M48
;GenerationSoftware,Autodesk,EAGLE,9.4.0*%
;CreationDate,2020-02-02T20:36:54Z*%
FMAT,2
ICI,OFF
METRIC,TZ,000.000
T8C0.350
T7C0.914
T6C0.965
T5C1.000
T4C1.001
T3C1.016
T2C2.540
T1C2.800
%
G90
M71
T1
X5207Y56210
X68580Y5080
X67818Y56210
X5207Y5080
T2
X5080Y12954
X49530Y15240
X6096Y34544
X6096Y46736
X5080Y26670
X69850Y15240
T3
X48260Y5080
X48260Y2540
X52070Y7620
X52070Y5080
X52070Y2540
X12700Y7620
X12700Y5080
X12700Y2540
X20320Y5080
X20320Y7620
X20320Y2540
X55880Y2540
X55880Y5080
X55880Y7620
X16510Y2540
X16510Y5080
X16510Y7620
X17780Y27305
X49530Y44450
X52070Y44450
X54610Y44450
X57150Y44450
X59690Y44450
X62230Y44450
X64770Y44450
X67310Y44450
X69850Y44450
X48260Y7620
X17780Y24765
X17780Y22225
X17780Y19685
X17780Y17145
X17780Y14605
X17780Y12065
T4
X10668Y40640
X10668Y38100
X15748Y48260
X10668Y33020
X10668Y43180
X13208Y33020
X15748Y33020
X18288Y33020
X18288Y48260
X13208Y48260
T5
X10668Y48260
T6
X29210Y35560
X26670Y35560
X26670Y33020
X26670Y30480
X26670Y27940
X26670Y25400
X26670Y22860
X26670Y20320
X26670Y17780
X26670Y15240
X26670Y12700
X26670Y10160
X26670Y7620
X26670Y5080
X26670Y2540
X41910Y2540
X41910Y5080
X41910Y7620
X41910Y10160
X41910Y12700
X41910Y15240
X41910Y17780
X41910Y20320
X41910Y22860
X41910Y25400
X41910Y27940
X41910Y30480
X41910Y33020
X41910Y35560
X39370Y35560
X36830Y35560
X34290Y35560
X31750Y35560
T7
X62230Y7620
X62230Y3810
X44704Y38989
T8
X29210Y42545
X39243Y44450
X16383Y57785
X50800Y59690
X56134Y59690
X62230Y59690
X39243Y56515
X39243Y50546
X21590Y24765
X21590Y20320
X21590Y33020
X22987Y27305
X22987Y22860
X15748Y30734
X30480Y8890
X30480Y16510
X55880Y12700
X38100Y52451
X37719Y28067
X45720Y10160
X45720Y25400
X62230Y25400
X57150Y30480
X59690Y27940
X72390Y49530
X54610Y17780
X53340Y20320
X53340Y46990
X46990Y46990
X46990Y22860
X40640Y40640
X21336Y40640
X21336Y54737
X12700Y10160
X21590Y10160
X21590Y12700
X31750Y38100
X38100Y15240
X38100Y11430
X52070Y11430
X36830Y17780
X36830Y8890
X33020Y30480
X33020Y46482
X35560Y31750
X29337Y56515
X35560Y48260
X30480Y52070
X30480Y33020
X22733Y50546
X22860Y35560
X31750Y54610
X41910Y38100
X44704Y42545
X22987Y30734
M30