G04 EAGLE Gerber RS-274X export*
G75*
%MOMM*%
%FSLAX34Y34*%
%LPD*%
%IN*%
%IPPOS*%
%AMOC8*
5,1,8,0,0,1.08239X$1,22.5*%
G01*
%ADD10C,0.254000*%


D10*
X0Y46932D02*
X-38Y42721D01*
X291Y38523D01*
X985Y34370D01*
X2038Y30293D01*
X3443Y26323D01*
X5188Y22491D01*
X7260Y18825D01*
X9645Y15354D01*
X12322Y12104D01*
X15273Y9100D01*
X18474Y6364D01*
X21901Y3918D01*
X25529Y1780D01*
X29329Y-34D01*
X33273Y-1510D01*
X37331Y-2637D01*
X41471Y-3405D01*
X45662Y-3810D01*
X708129Y-3810D01*
X711446Y-3000D01*
X714680Y-1904D01*
X717806Y-530D01*
X720800Y1111D01*
X723640Y3007D01*
X726304Y5143D01*
X728771Y7504D01*
X731024Y10070D01*
X733044Y12823D01*
X734816Y15741D01*
X736328Y18803D01*
X737567Y21985D01*
X738523Y25262D01*
X739191Y28611D01*
X739564Y32005D01*
X739640Y35419D01*
X739418Y38826D01*
X738900Y42201D01*
X738900Y560253D01*
X739272Y564435D01*
X739278Y568632D01*
X738918Y572815D01*
X738195Y576950D01*
X737115Y581006D01*
X735685Y584952D01*
X733916Y588759D01*
X731823Y592398D01*
X729420Y595840D01*
X726727Y599059D01*
X723763Y602032D01*
X720551Y604735D01*
X717116Y607148D01*
X713484Y609252D01*
X709682Y611031D01*
X705739Y612473D01*
X701686Y613565D01*
X697553Y614300D01*
X41026Y614300D01*
X37450Y614144D01*
X33902Y613677D01*
X30408Y612902D01*
X26994Y611826D01*
X23688Y610456D01*
X20513Y608804D01*
X17494Y606881D01*
X14655Y604702D01*
X12016Y602284D01*
X9598Y599645D01*
X7419Y596806D01*
X5496Y593787D01*
X3844Y590612D01*
X2474Y587306D01*
X1398Y583892D01*
X623Y580398D01*
X156Y576850D01*
X0Y573274D01*
X0Y46932D01*
X66070Y561602D02*
X65999Y560605D01*
X65856Y559615D01*
X65644Y558638D01*
X65362Y557678D01*
X65013Y556741D01*
X64597Y555831D01*
X64118Y554954D01*
X63577Y554112D01*
X62978Y553312D01*
X62323Y552556D01*
X61616Y551849D01*
X60860Y551194D01*
X60060Y550595D01*
X59218Y550054D01*
X58341Y549575D01*
X57431Y549159D01*
X56494Y548810D01*
X55535Y548528D01*
X54557Y548316D01*
X53568Y548173D01*
X52570Y548102D01*
X51570Y548102D01*
X50573Y548173D01*
X49583Y548316D01*
X48606Y548528D01*
X47646Y548810D01*
X46709Y549159D01*
X45799Y549575D01*
X44922Y550054D01*
X44080Y550595D01*
X43280Y551194D01*
X42524Y551849D01*
X41817Y552556D01*
X41162Y553312D01*
X40563Y554112D01*
X40022Y554954D01*
X39543Y555831D01*
X39127Y556741D01*
X38778Y557678D01*
X38496Y558638D01*
X38284Y559615D01*
X38141Y560605D01*
X38070Y561602D01*
X38070Y562602D01*
X38141Y563600D01*
X38284Y564589D01*
X38496Y565567D01*
X38778Y566526D01*
X39127Y567463D01*
X39543Y568373D01*
X40022Y569250D01*
X40563Y570092D01*
X41162Y570892D01*
X41817Y571648D01*
X42524Y572355D01*
X43280Y573010D01*
X44080Y573609D01*
X44922Y574150D01*
X45799Y574629D01*
X46709Y575045D01*
X47646Y575394D01*
X48606Y575676D01*
X49583Y575888D01*
X50573Y576031D01*
X51570Y576102D01*
X52570Y576102D01*
X53568Y576031D01*
X54557Y575888D01*
X55535Y575676D01*
X56494Y575394D01*
X57431Y575045D01*
X58341Y574629D01*
X59218Y574150D01*
X60060Y573609D01*
X60860Y573010D01*
X61616Y572355D01*
X62323Y571648D01*
X62978Y570892D01*
X63577Y570092D01*
X64118Y569250D01*
X64597Y568373D01*
X65013Y567463D01*
X65362Y566526D01*
X65644Y565567D01*
X65856Y564589D01*
X65999Y563600D01*
X66070Y562602D01*
X66070Y561602D01*
X699800Y50300D02*
X699729Y49303D01*
X699586Y48313D01*
X699374Y47336D01*
X699092Y46376D01*
X698743Y45439D01*
X698327Y44529D01*
X697848Y43652D01*
X697307Y42810D01*
X696708Y42010D01*
X696053Y41254D01*
X695346Y40547D01*
X694590Y39892D01*
X693790Y39293D01*
X692948Y38752D01*
X692071Y38273D01*
X691161Y37857D01*
X690224Y37508D01*
X689265Y37226D01*
X688287Y37014D01*
X687298Y36871D01*
X686300Y36800D01*
X685300Y36800D01*
X684303Y36871D01*
X683313Y37014D01*
X682336Y37226D01*
X681376Y37508D01*
X680439Y37857D01*
X679529Y38273D01*
X678652Y38752D01*
X677810Y39293D01*
X677010Y39892D01*
X676254Y40547D01*
X675547Y41254D01*
X674892Y42010D01*
X674293Y42810D01*
X673752Y43652D01*
X673273Y44529D01*
X672857Y45439D01*
X672508Y46376D01*
X672226Y47336D01*
X672014Y48313D01*
X671871Y49303D01*
X671800Y50300D01*
X671800Y51300D01*
X671871Y52298D01*
X672014Y53287D01*
X672226Y54265D01*
X672508Y55224D01*
X672857Y56161D01*
X673273Y57071D01*
X673752Y57948D01*
X674293Y58790D01*
X674892Y59590D01*
X675547Y60346D01*
X676254Y61053D01*
X677010Y61708D01*
X677810Y62307D01*
X678652Y62848D01*
X679529Y63327D01*
X680439Y63743D01*
X681376Y64092D01*
X682336Y64374D01*
X683313Y64586D01*
X684303Y64729D01*
X685300Y64800D01*
X686300Y64800D01*
X687298Y64729D01*
X688287Y64586D01*
X689265Y64374D01*
X690224Y64092D01*
X691161Y63743D01*
X692071Y63327D01*
X692948Y62848D01*
X693790Y62307D01*
X694590Y61708D01*
X695346Y61053D01*
X696053Y60346D01*
X696708Y59590D01*
X697307Y58790D01*
X697848Y57948D01*
X698327Y57071D01*
X698743Y56161D01*
X699092Y55224D01*
X699374Y54265D01*
X699586Y53287D01*
X699729Y52298D01*
X699800Y51300D01*
X699800Y50300D01*
X692180Y561602D02*
X692109Y560605D01*
X691966Y559615D01*
X691754Y558638D01*
X691472Y557678D01*
X691123Y556741D01*
X690707Y555831D01*
X690228Y554954D01*
X689687Y554112D01*
X689088Y553312D01*
X688433Y552556D01*
X687726Y551849D01*
X686970Y551194D01*
X686170Y550595D01*
X685328Y550054D01*
X684451Y549575D01*
X683541Y549159D01*
X682604Y548810D01*
X681645Y548528D01*
X680667Y548316D01*
X679678Y548173D01*
X678680Y548102D01*
X677680Y548102D01*
X676683Y548173D01*
X675693Y548316D01*
X674716Y548528D01*
X673756Y548810D01*
X672819Y549159D01*
X671909Y549575D01*
X671032Y550054D01*
X670190Y550595D01*
X669390Y551194D01*
X668634Y551849D01*
X667927Y552556D01*
X667272Y553312D01*
X666673Y554112D01*
X666132Y554954D01*
X665653Y555831D01*
X665237Y556741D01*
X664888Y557678D01*
X664606Y558638D01*
X664394Y559615D01*
X664251Y560605D01*
X664180Y561602D01*
X664180Y562602D01*
X664251Y563600D01*
X664394Y564589D01*
X664606Y565567D01*
X664888Y566526D01*
X665237Y567463D01*
X665653Y568373D01*
X666132Y569250D01*
X666673Y570092D01*
X667272Y570892D01*
X667927Y571648D01*
X668634Y572355D01*
X669390Y573010D01*
X670190Y573609D01*
X671032Y574150D01*
X671909Y574629D01*
X672819Y575045D01*
X673756Y575394D01*
X674716Y575676D01*
X675693Y575888D01*
X676683Y576031D01*
X677680Y576102D01*
X678680Y576102D01*
X679678Y576031D01*
X680667Y575888D01*
X681645Y575676D01*
X682604Y575394D01*
X683541Y575045D01*
X684451Y574629D01*
X685328Y574150D01*
X686170Y573609D01*
X686970Y573010D01*
X687726Y572355D01*
X688433Y571648D01*
X689088Y570892D01*
X689687Y570092D01*
X690228Y569250D01*
X690707Y568373D01*
X691123Y567463D01*
X691472Y566526D01*
X691754Y565567D01*
X691966Y564589D01*
X692109Y563600D01*
X692180Y562602D01*
X692180Y561602D01*
X66070Y50300D02*
X65999Y49303D01*
X65856Y48313D01*
X65644Y47336D01*
X65362Y46376D01*
X65013Y45439D01*
X64597Y44529D01*
X64118Y43652D01*
X63577Y42810D01*
X62978Y42010D01*
X62323Y41254D01*
X61616Y40547D01*
X60860Y39892D01*
X60060Y39293D01*
X59218Y38752D01*
X58341Y38273D01*
X57431Y37857D01*
X56494Y37508D01*
X55535Y37226D01*
X54557Y37014D01*
X53568Y36871D01*
X52570Y36800D01*
X51570Y36800D01*
X50573Y36871D01*
X49583Y37014D01*
X48606Y37226D01*
X47646Y37508D01*
X46709Y37857D01*
X45799Y38273D01*
X44922Y38752D01*
X44080Y39293D01*
X43280Y39892D01*
X42524Y40547D01*
X41817Y41254D01*
X41162Y42010D01*
X40563Y42810D01*
X40022Y43652D01*
X39543Y44529D01*
X39127Y45439D01*
X38778Y46376D01*
X38496Y47336D01*
X38284Y48313D01*
X38141Y49303D01*
X38070Y50300D01*
X38070Y51300D01*
X38141Y52298D01*
X38284Y53287D01*
X38496Y54265D01*
X38778Y55224D01*
X39127Y56161D01*
X39543Y57071D01*
X40022Y57948D01*
X40563Y58790D01*
X41162Y59590D01*
X41817Y60346D01*
X42524Y61053D01*
X43280Y61708D01*
X44080Y62307D01*
X44922Y62848D01*
X45799Y63327D01*
X46709Y63743D01*
X47646Y64092D01*
X48606Y64374D01*
X49583Y64586D01*
X50573Y64729D01*
X51570Y64800D01*
X52570Y64800D01*
X53568Y64729D01*
X54557Y64586D01*
X55535Y64374D01*
X56494Y64092D01*
X57431Y63743D01*
X58341Y63327D01*
X59218Y62848D01*
X60060Y62307D01*
X60860Y61708D01*
X61616Y61053D01*
X62323Y60346D01*
X62978Y59590D01*
X63577Y58790D01*
X64118Y57948D01*
X64597Y57071D01*
X65013Y56161D01*
X65362Y55224D01*
X65644Y54265D01*
X65856Y53287D01*
X65999Y52298D01*
X66070Y51300D01*
X66070Y50300D01*
M02*
