G04 EAGLE Gerber RS-274X export*
G75*
%MOMM*%
%FSLAX34Y34*%
%LPD*%
%INBottom Copper*%
%IPPOS*%
%AMOC8*
5,1,8,0,0,1.08239X$1,22.5*%
G01*
%ADD10C,1.524000*%
%ADD11C,1.473200*%
%ADD12C,4.064000*%
%ADD13C,1.879600*%
%ADD14C,1.676400*%
%ADD15P,2.749271X8X22.500000*%
%ADD16R,2.032000X2.032000*%
%ADD17C,2.032000*%
%ADD18C,0.756400*%
%ADD19C,0.152400*%

G36*
X179852Y6354D02*
X179852Y6354D01*
X179871Y6352D01*
X179973Y6374D01*
X180075Y6390D01*
X180092Y6400D01*
X180112Y6404D01*
X180201Y6457D01*
X180292Y6506D01*
X180306Y6520D01*
X180323Y6530D01*
X180390Y6609D01*
X180462Y6684D01*
X180470Y6702D01*
X180483Y6717D01*
X180522Y6813D01*
X180565Y6907D01*
X180567Y6927D01*
X180575Y6945D01*
X180593Y7112D01*
X180593Y17067D01*
X180591Y17079D01*
X180593Y17091D01*
X180572Y17200D01*
X180554Y17310D01*
X180548Y17320D01*
X180546Y17332D01*
X180490Y17429D01*
X180438Y17527D01*
X180430Y17535D01*
X180424Y17546D01*
X180341Y17620D01*
X180260Y17696D01*
X180249Y17701D01*
X180240Y17709D01*
X180138Y17753D01*
X180037Y17800D01*
X180025Y17801D01*
X180014Y17806D01*
X179903Y17815D01*
X179793Y17827D01*
X179781Y17825D01*
X179769Y17826D01*
X179661Y17799D01*
X179552Y17775D01*
X179542Y17769D01*
X179530Y17766D01*
X179385Y17683D01*
X178045Y16710D01*
X176620Y15984D01*
X175099Y15489D01*
X173520Y15239D01*
X166623Y15239D01*
X166623Y24638D01*
X166621Y24651D01*
X166622Y24660D01*
X166621Y24666D01*
X166622Y24677D01*
X166600Y24779D01*
X166583Y24881D01*
X166574Y24898D01*
X166570Y24918D01*
X166517Y25007D01*
X166468Y25098D01*
X166454Y25112D01*
X166444Y25129D01*
X166365Y25196D01*
X166290Y25267D01*
X166272Y25276D01*
X166257Y25289D01*
X166161Y25327D01*
X166067Y25371D01*
X166047Y25373D01*
X166029Y25381D01*
X165862Y25399D01*
X165099Y25399D01*
X165099Y25401D01*
X165862Y25401D01*
X165882Y25404D01*
X165901Y25402D01*
X166003Y25424D01*
X166105Y25441D01*
X166122Y25450D01*
X166142Y25454D01*
X166231Y25507D01*
X166322Y25556D01*
X166336Y25570D01*
X166353Y25580D01*
X166420Y25659D01*
X166491Y25734D01*
X166500Y25752D01*
X166513Y25767D01*
X166552Y25863D01*
X166595Y25957D01*
X166597Y25977D01*
X166605Y25995D01*
X166623Y26162D01*
X166623Y35561D01*
X173520Y35561D01*
X175099Y35311D01*
X176620Y34816D01*
X178045Y34090D01*
X179385Y33117D01*
X179395Y33112D01*
X179404Y33104D01*
X179505Y33057D01*
X179604Y33007D01*
X179616Y33005D01*
X179627Y33000D01*
X179738Y32988D01*
X179848Y32972D01*
X179860Y32974D01*
X179871Y32973D01*
X179980Y32997D01*
X180090Y33017D01*
X180100Y33023D01*
X180112Y33025D01*
X180208Y33082D01*
X180305Y33136D01*
X180313Y33145D01*
X180323Y33151D01*
X180395Y33236D01*
X180470Y33318D01*
X180475Y33329D01*
X180483Y33338D01*
X180525Y33442D01*
X180569Y33543D01*
X180570Y33555D01*
X180575Y33566D01*
X180593Y33733D01*
X180593Y43903D01*
X180582Y43974D01*
X180580Y44045D01*
X180562Y44094D01*
X180554Y44146D01*
X180520Y44209D01*
X180495Y44276D01*
X180463Y44317D01*
X180438Y44363D01*
X180386Y44412D01*
X180342Y44468D01*
X180298Y44497D01*
X180260Y44532D01*
X180195Y44563D01*
X180135Y44601D01*
X180084Y44614D01*
X180037Y44636D01*
X179966Y44644D01*
X179896Y44661D01*
X179844Y44657D01*
X179793Y44663D01*
X179722Y44648D01*
X179651Y44642D01*
X179603Y44622D01*
X179552Y44611D01*
X179491Y44574D01*
X179425Y44546D01*
X179369Y44501D01*
X179341Y44485D01*
X179326Y44467D01*
X179294Y44441D01*
X177900Y43047D01*
X174539Y41655D01*
X155661Y41655D01*
X152300Y43047D01*
X149727Y45620D01*
X148335Y48981D01*
X148335Y52619D01*
X149727Y55980D01*
X152300Y58553D01*
X155661Y59945D01*
X174539Y59945D01*
X177900Y58553D01*
X179294Y57159D01*
X179352Y57117D01*
X179404Y57068D01*
X179451Y57046D01*
X179493Y57015D01*
X179562Y56994D01*
X179627Y56964D01*
X179679Y56958D01*
X179729Y56943D01*
X179800Y56945D01*
X179871Y56937D01*
X179922Y56948D01*
X179974Y56949D01*
X180042Y56974D01*
X180112Y56989D01*
X180157Y57016D01*
X180205Y57034D01*
X180261Y57079D01*
X180323Y57115D01*
X180357Y57155D01*
X180397Y57187D01*
X180436Y57248D01*
X180483Y57302D01*
X180502Y57351D01*
X180530Y57394D01*
X180548Y57464D01*
X180575Y57530D01*
X180583Y57602D01*
X180591Y57633D01*
X180589Y57656D01*
X180593Y57697D01*
X180593Y69303D01*
X180582Y69374D01*
X180580Y69445D01*
X180562Y69494D01*
X180554Y69546D01*
X180520Y69609D01*
X180495Y69676D01*
X180463Y69717D01*
X180438Y69763D01*
X180386Y69812D01*
X180342Y69868D01*
X180298Y69897D01*
X180260Y69932D01*
X180195Y69963D01*
X180135Y70001D01*
X180084Y70014D01*
X180037Y70036D01*
X179966Y70044D01*
X179896Y70061D01*
X179844Y70057D01*
X179793Y70063D01*
X179722Y70048D01*
X179651Y70042D01*
X179603Y70022D01*
X179552Y70011D01*
X179491Y69974D01*
X179425Y69946D01*
X179369Y69901D01*
X179341Y69885D01*
X179326Y69867D01*
X179294Y69841D01*
X177900Y68447D01*
X174539Y67055D01*
X155661Y67055D01*
X152300Y68447D01*
X149727Y71020D01*
X148335Y74381D01*
X148335Y78019D01*
X149727Y81380D01*
X152300Y83953D01*
X155661Y85345D01*
X162052Y85345D01*
X162072Y85348D01*
X162091Y85346D01*
X162193Y85368D01*
X162295Y85384D01*
X162312Y85394D01*
X162332Y85398D01*
X162421Y85451D01*
X162512Y85500D01*
X162526Y85514D01*
X162543Y85524D01*
X162610Y85603D01*
X162682Y85678D01*
X162690Y85696D01*
X162703Y85711D01*
X162742Y85807D01*
X162785Y85901D01*
X162787Y85921D01*
X162795Y85939D01*
X162813Y86106D01*
X162813Y89847D01*
X164153Y91187D01*
X183827Y91187D01*
X185167Y89847D01*
X185167Y78783D01*
X185182Y78687D01*
X185192Y78590D01*
X185202Y78567D01*
X185206Y78541D01*
X185252Y78455D01*
X185292Y78366D01*
X185309Y78346D01*
X185322Y78323D01*
X185392Y78256D01*
X185458Y78185D01*
X185481Y78172D01*
X185500Y78154D01*
X185588Y78113D01*
X185674Y78066D01*
X185699Y78061D01*
X185723Y78050D01*
X185820Y78040D01*
X185916Y78022D01*
X185942Y78026D01*
X185967Y78023D01*
X186063Y78044D01*
X186159Y78058D01*
X186182Y78070D01*
X186208Y78076D01*
X186291Y78125D01*
X186378Y78170D01*
X186397Y78188D01*
X186419Y78202D01*
X186482Y78276D01*
X186550Y78345D01*
X186566Y78374D01*
X186579Y78389D01*
X186591Y78419D01*
X186631Y78492D01*
X187827Y81380D01*
X190400Y83953D01*
X193761Y85345D01*
X212639Y85345D01*
X216000Y83953D01*
X218573Y81380D01*
X219965Y78019D01*
X219965Y74381D01*
X218573Y71020D01*
X216000Y68447D01*
X212639Y67055D01*
X193761Y67055D01*
X190400Y68447D01*
X187827Y71020D01*
X186631Y73908D01*
X186580Y73991D01*
X186534Y74077D01*
X186516Y74095D01*
X186502Y74117D01*
X186426Y74179D01*
X186356Y74246D01*
X186332Y74257D01*
X186312Y74274D01*
X186221Y74309D01*
X186133Y74350D01*
X186107Y74353D01*
X186083Y74362D01*
X185985Y74366D01*
X185889Y74377D01*
X185863Y74371D01*
X185837Y74372D01*
X185743Y74345D01*
X185648Y74324D01*
X185626Y74311D01*
X185601Y74304D01*
X185521Y74248D01*
X185437Y74198D01*
X185420Y74178D01*
X185399Y74164D01*
X185340Y74085D01*
X185277Y74011D01*
X185267Y73987D01*
X185252Y73966D01*
X185222Y73874D01*
X185185Y73783D01*
X185182Y73751D01*
X185176Y73732D01*
X185176Y73699D01*
X185167Y73617D01*
X185167Y53383D01*
X185182Y53287D01*
X185192Y53190D01*
X185202Y53167D01*
X185206Y53141D01*
X185252Y53055D01*
X185292Y52966D01*
X185309Y52946D01*
X185322Y52923D01*
X185392Y52856D01*
X185458Y52785D01*
X185481Y52772D01*
X185500Y52754D01*
X185588Y52713D01*
X185674Y52666D01*
X185699Y52661D01*
X185723Y52650D01*
X185820Y52640D01*
X185916Y52622D01*
X185942Y52626D01*
X185967Y52623D01*
X186063Y52644D01*
X186159Y52658D01*
X186182Y52670D01*
X186208Y52676D01*
X186291Y52725D01*
X186378Y52770D01*
X186397Y52788D01*
X186419Y52802D01*
X186482Y52876D01*
X186550Y52945D01*
X186566Y52974D01*
X186579Y52989D01*
X186591Y53019D01*
X186631Y53092D01*
X187827Y55980D01*
X190400Y58553D01*
X193761Y59945D01*
X212639Y59945D01*
X216000Y58553D01*
X218573Y55980D01*
X219965Y52619D01*
X219965Y48981D01*
X218573Y45620D01*
X216000Y43047D01*
X212639Y41655D01*
X193761Y41655D01*
X190400Y43047D01*
X187827Y45620D01*
X186631Y48508D01*
X186580Y48591D01*
X186534Y48677D01*
X186516Y48695D01*
X186502Y48717D01*
X186426Y48779D01*
X186356Y48846D01*
X186332Y48857D01*
X186312Y48874D01*
X186221Y48909D01*
X186133Y48950D01*
X186107Y48953D01*
X186083Y48962D01*
X185985Y48966D01*
X185889Y48977D01*
X185863Y48971D01*
X185837Y48972D01*
X185743Y48945D01*
X185648Y48924D01*
X185626Y48911D01*
X185601Y48904D01*
X185521Y48848D01*
X185437Y48798D01*
X185420Y48778D01*
X185399Y48764D01*
X185340Y48685D01*
X185277Y48611D01*
X185267Y48587D01*
X185252Y48566D01*
X185222Y48474D01*
X185185Y48383D01*
X185182Y48351D01*
X185176Y48332D01*
X185176Y48299D01*
X185167Y48217D01*
X185167Y30515D01*
X185178Y30448D01*
X185179Y30380D01*
X185197Y30327D01*
X185206Y30272D01*
X185238Y30212D01*
X185261Y30148D01*
X185295Y30104D01*
X185322Y30054D01*
X185371Y30008D01*
X185413Y29954D01*
X185459Y29924D01*
X185500Y29885D01*
X185562Y29856D01*
X185618Y29819D01*
X185672Y29805D01*
X185723Y29781D01*
X185790Y29774D01*
X185856Y29757D01*
X185912Y29760D01*
X185967Y29754D01*
X186034Y29769D01*
X186101Y29773D01*
X186153Y29795D01*
X186208Y29807D01*
X186266Y29841D01*
X186329Y29867D01*
X186371Y29904D01*
X186419Y29933D01*
X186463Y29984D01*
X186514Y30029D01*
X186557Y30095D01*
X186579Y30120D01*
X186587Y30139D01*
X186606Y30169D01*
X186890Y30725D01*
X187830Y32019D01*
X188961Y33150D01*
X190255Y34090D01*
X191680Y34816D01*
X193201Y35311D01*
X194780Y35561D01*
X201677Y35561D01*
X201677Y26162D01*
X201680Y26142D01*
X201678Y26123D01*
X201700Y26021D01*
X201717Y25919D01*
X201726Y25902D01*
X201730Y25882D01*
X201783Y25793D01*
X201832Y25702D01*
X201846Y25688D01*
X201856Y25671D01*
X201935Y25604D01*
X202010Y25533D01*
X202028Y25524D01*
X202043Y25511D01*
X202139Y25473D01*
X202233Y25429D01*
X202253Y25427D01*
X202271Y25419D01*
X202438Y25401D01*
X203201Y25401D01*
X203201Y25399D01*
X202438Y25399D01*
X202418Y25396D01*
X202399Y25398D01*
X202297Y25376D01*
X202195Y25359D01*
X202178Y25350D01*
X202158Y25346D01*
X202069Y25293D01*
X201978Y25244D01*
X201964Y25230D01*
X201947Y25220D01*
X201880Y25141D01*
X201809Y25066D01*
X201800Y25048D01*
X201787Y25033D01*
X201748Y24937D01*
X201705Y24843D01*
X201703Y24823D01*
X201695Y24805D01*
X201677Y24638D01*
X201677Y15239D01*
X194780Y15239D01*
X193201Y15489D01*
X191680Y15984D01*
X190255Y16710D01*
X188961Y17650D01*
X187830Y18781D01*
X186890Y20075D01*
X186606Y20631D01*
X186566Y20686D01*
X186534Y20746D01*
X186494Y20784D01*
X186461Y20829D01*
X186405Y20868D01*
X186356Y20915D01*
X186305Y20939D01*
X186259Y20971D01*
X186195Y20990D01*
X186133Y21019D01*
X186077Y21025D01*
X186024Y21041D01*
X185956Y21038D01*
X185889Y21046D01*
X185834Y21034D01*
X185778Y21032D01*
X185714Y21008D01*
X185648Y20993D01*
X185600Y20965D01*
X185548Y20945D01*
X185495Y20902D01*
X185437Y20867D01*
X185401Y20825D01*
X185357Y20789D01*
X185321Y20732D01*
X185277Y20680D01*
X185256Y20628D01*
X185226Y20581D01*
X185211Y20515D01*
X185185Y20452D01*
X185177Y20374D01*
X185169Y20342D01*
X185171Y20321D01*
X185167Y20285D01*
X185167Y10160D01*
X185170Y10140D01*
X185168Y10121D01*
X185190Y10019D01*
X185206Y9917D01*
X185216Y9900D01*
X185220Y9880D01*
X185273Y9791D01*
X185322Y9700D01*
X185336Y9686D01*
X185346Y9669D01*
X185425Y9602D01*
X185500Y9530D01*
X185518Y9522D01*
X185533Y9509D01*
X185629Y9470D01*
X185723Y9427D01*
X185743Y9425D01*
X185761Y9417D01*
X185928Y9399D01*
X238252Y9399D01*
X238272Y9402D01*
X238291Y9400D01*
X238393Y9422D01*
X238495Y9438D01*
X238512Y9448D01*
X238532Y9452D01*
X238621Y9505D01*
X238712Y9554D01*
X238726Y9568D01*
X238743Y9578D01*
X238810Y9657D01*
X238882Y9732D01*
X238890Y9750D01*
X238903Y9765D01*
X238942Y9861D01*
X238985Y9955D01*
X238987Y9975D01*
X238995Y9993D01*
X239013Y10160D01*
X239013Y102547D01*
X240353Y103887D01*
X257515Y103887D01*
X257630Y103906D01*
X257746Y103923D01*
X257752Y103925D01*
X257758Y103926D01*
X257861Y103981D01*
X257965Y104034D01*
X257970Y104039D01*
X257975Y104042D01*
X258055Y104126D01*
X258138Y104210D01*
X258141Y104216D01*
X258145Y104220D01*
X258153Y104237D01*
X258219Y104357D01*
X259163Y106636D01*
X261664Y109137D01*
X264932Y110491D01*
X268468Y110491D01*
X271736Y109137D01*
X274237Y106636D01*
X275591Y103368D01*
X275591Y99832D01*
X274237Y96564D01*
X271736Y94063D01*
X268468Y92709D01*
X264932Y92709D01*
X261664Y94063D01*
X259163Y96564D01*
X258219Y98843D01*
X258157Y98943D01*
X258097Y99043D01*
X258092Y99047D01*
X258089Y99052D01*
X257999Y99127D01*
X257910Y99203D01*
X257904Y99205D01*
X257900Y99209D01*
X257791Y99251D01*
X257682Y99295D01*
X257674Y99296D01*
X257670Y99297D01*
X257652Y99298D01*
X257515Y99313D01*
X244348Y99313D01*
X244328Y99310D01*
X244309Y99312D01*
X244207Y99290D01*
X244105Y99274D01*
X244088Y99264D01*
X244068Y99260D01*
X243979Y99207D01*
X243888Y99158D01*
X243874Y99144D01*
X243857Y99134D01*
X243790Y99055D01*
X243718Y98980D01*
X243710Y98962D01*
X243697Y98947D01*
X243658Y98851D01*
X243615Y98757D01*
X243613Y98737D01*
X243605Y98719D01*
X243587Y98552D01*
X243587Y7112D01*
X243590Y7092D01*
X243588Y7073D01*
X243610Y6971D01*
X243626Y6869D01*
X243636Y6852D01*
X243640Y6832D01*
X243693Y6743D01*
X243742Y6652D01*
X243756Y6638D01*
X243766Y6621D01*
X243845Y6554D01*
X243920Y6482D01*
X243938Y6474D01*
X243953Y6461D01*
X244049Y6422D01*
X244143Y6379D01*
X244163Y6377D01*
X244181Y6369D01*
X244348Y6351D01*
X706784Y6351D01*
X706799Y6353D01*
X706815Y6351D01*
X706981Y6377D01*
X709765Y7121D01*
X709787Y7131D01*
X709842Y7151D01*
X709844Y7152D01*
X709847Y7153D01*
X709905Y7174D01*
X716513Y10429D01*
X716526Y10438D01*
X716540Y10444D01*
X716678Y10540D01*
X722218Y15394D01*
X722228Y15406D01*
X722241Y15415D01*
X722349Y15544D01*
X726445Y21667D01*
X726451Y21681D01*
X726461Y21693D01*
X726532Y21845D01*
X728903Y28820D01*
X728906Y28835D01*
X728913Y28849D01*
X728942Y29014D01*
X729427Y36365D01*
X729425Y36389D01*
X729422Y36514D01*
X729048Y39368D01*
X729043Y39383D01*
X729043Y39399D01*
X728996Y39560D01*
X728739Y40180D01*
X728739Y41128D01*
X728735Y41152D01*
X728725Y41276D01*
X728540Y42205D01*
X728725Y43130D01*
X728725Y43154D01*
X728739Y43279D01*
X728739Y490797D01*
X728728Y490867D01*
X728726Y490939D01*
X728708Y490988D01*
X728700Y491039D01*
X728666Y491103D01*
X728641Y491170D01*
X728609Y491211D01*
X728584Y491257D01*
X728532Y491306D01*
X728488Y491362D01*
X728444Y491390D01*
X728406Y491426D01*
X728341Y491456D01*
X728281Y491495D01*
X728230Y491508D01*
X728183Y491530D01*
X728112Y491538D01*
X728042Y491555D01*
X727990Y491551D01*
X727939Y491557D01*
X727868Y491542D01*
X727797Y491536D01*
X727749Y491516D01*
X727698Y491505D01*
X727637Y491468D01*
X727571Y491440D01*
X727515Y491395D01*
X727487Y491378D01*
X727472Y491361D01*
X727440Y491335D01*
X726410Y490305D01*
X726357Y490231D01*
X726297Y490161D01*
X726285Y490131D01*
X726266Y490105D01*
X726239Y490018D01*
X726205Y489933D01*
X726201Y489892D01*
X726194Y489870D01*
X726195Y489838D01*
X726187Y489767D01*
X726187Y176853D01*
X724847Y175513D01*
X703610Y175513D01*
X703514Y175498D01*
X703417Y175488D01*
X703393Y175478D01*
X703367Y175474D01*
X703281Y175428D01*
X703192Y175388D01*
X703173Y175371D01*
X703150Y175358D01*
X703083Y175288D01*
X703011Y175222D01*
X702998Y175199D01*
X702980Y175180D01*
X702939Y175092D01*
X702892Y175006D01*
X702888Y174981D01*
X702877Y174957D01*
X702866Y174860D01*
X702849Y174764D01*
X702852Y174738D01*
X702849Y174713D01*
X702870Y174617D01*
X702884Y174521D01*
X702896Y174498D01*
X702902Y174472D01*
X702952Y174389D01*
X702996Y174302D01*
X703015Y174283D01*
X703028Y174261D01*
X703102Y174198D01*
X703171Y174130D01*
X703200Y174114D01*
X703215Y174101D01*
X703246Y174089D01*
X703318Y174049D01*
X710874Y170919D01*
X717019Y164774D01*
X720345Y156745D01*
X720345Y148055D01*
X717019Y140026D01*
X710874Y133881D01*
X702845Y130555D01*
X694155Y130555D01*
X686126Y133881D01*
X679981Y140026D01*
X676655Y148055D01*
X676655Y156745D01*
X679981Y164774D01*
X686126Y170919D01*
X693682Y174049D01*
X693764Y174100D01*
X693850Y174146D01*
X693868Y174165D01*
X693891Y174178D01*
X693953Y174253D01*
X694020Y174324D01*
X694031Y174348D01*
X694047Y174368D01*
X694082Y174459D01*
X694123Y174547D01*
X694126Y174573D01*
X694136Y174597D01*
X694140Y174695D01*
X694151Y174791D01*
X694145Y174817D01*
X694146Y174843D01*
X694119Y174937D01*
X694098Y175032D01*
X694085Y175054D01*
X694078Y175079D01*
X694022Y175159D01*
X693972Y175243D01*
X693952Y175260D01*
X693937Y175281D01*
X693859Y175340D01*
X693785Y175403D01*
X693761Y175413D01*
X693740Y175428D01*
X693647Y175458D01*
X693557Y175495D01*
X693525Y175498D01*
X693506Y175504D01*
X693473Y175504D01*
X693390Y175513D01*
X551633Y175513D01*
X551543Y175499D01*
X551452Y175491D01*
X551423Y175479D01*
X551391Y175474D01*
X551310Y175431D01*
X551226Y175395D01*
X551194Y175369D01*
X551173Y175358D01*
X551151Y175335D01*
X551095Y175290D01*
X548298Y172493D01*
X543902Y172493D01*
X540793Y175602D01*
X540793Y179998D01*
X543902Y183107D01*
X548298Y183107D01*
X551095Y180310D01*
X551169Y180257D01*
X551239Y180197D01*
X551269Y180185D01*
X551295Y180166D01*
X551382Y180139D01*
X551467Y180105D01*
X551508Y180101D01*
X551530Y180094D01*
X551562Y180095D01*
X551633Y180087D01*
X720852Y180087D01*
X720872Y180090D01*
X720891Y180088D01*
X720993Y180110D01*
X721095Y180126D01*
X721112Y180136D01*
X721132Y180140D01*
X721221Y180193D01*
X721312Y180242D01*
X721326Y180256D01*
X721343Y180266D01*
X721410Y180345D01*
X721482Y180420D01*
X721490Y180438D01*
X721503Y180453D01*
X721542Y180549D01*
X721585Y180643D01*
X721587Y180663D01*
X721595Y180681D01*
X721613Y180848D01*
X721613Y489767D01*
X721612Y489777D01*
X721612Y489784D01*
X721605Y489818D01*
X721599Y489857D01*
X721591Y489948D01*
X721579Y489977D01*
X721574Y490009D01*
X721531Y490090D01*
X721495Y490174D01*
X721469Y490206D01*
X721458Y490227D01*
X721435Y490249D01*
X721390Y490305D01*
X718593Y493102D01*
X718593Y497498D01*
X721702Y500607D01*
X726098Y500607D01*
X727440Y499265D01*
X727498Y499223D01*
X727550Y499174D01*
X727597Y499152D01*
X727639Y499122D01*
X727708Y499100D01*
X727773Y499070D01*
X727825Y499065D01*
X727875Y499049D01*
X727946Y499051D01*
X728017Y499043D01*
X728068Y499054D01*
X728120Y499056D01*
X728188Y499080D01*
X728258Y499095D01*
X728303Y499122D01*
X728351Y499140D01*
X728407Y499185D01*
X728469Y499222D01*
X728503Y499261D01*
X728543Y499294D01*
X728582Y499354D01*
X728629Y499409D01*
X728648Y499457D01*
X728676Y499501D01*
X728694Y499570D01*
X728721Y499637D01*
X728729Y499708D01*
X728737Y499739D01*
X728735Y499762D01*
X728739Y499803D01*
X728739Y558824D01*
X728737Y558839D01*
X728739Y558854D01*
X728714Y559019D01*
X728561Y559591D01*
X728733Y560877D01*
X728732Y560909D01*
X728739Y560977D01*
X728739Y562274D01*
X728867Y562583D01*
X728875Y562617D01*
X728876Y562619D01*
X728876Y562620D01*
X728892Y562651D01*
X728923Y562816D01*
X729150Y565796D01*
X729148Y565828D01*
X729149Y565898D01*
X729150Y565909D01*
X729149Y565913D01*
X729149Y565924D01*
X728384Y574218D01*
X728383Y574219D01*
X728384Y574220D01*
X728349Y574385D01*
X725757Y582300D01*
X725757Y582301D01*
X725756Y582303D01*
X725686Y582455D01*
X721398Y589596D01*
X721397Y589597D01*
X721397Y589598D01*
X721294Y589731D01*
X715525Y595738D01*
X715524Y595739D01*
X715523Y595740D01*
X715394Y595847D01*
X708432Y600420D01*
X708431Y600420D01*
X708430Y600421D01*
X708280Y600497D01*
X700475Y603405D01*
X700444Y603412D01*
X700352Y603440D01*
X696756Y604126D01*
X696728Y604127D01*
X696613Y604139D01*
X41026Y604139D01*
X41008Y604136D01*
X40976Y604138D01*
X37047Y603880D01*
X37024Y603875D01*
X36900Y603856D01*
X29309Y601822D01*
X29294Y601815D01*
X29279Y601813D01*
X29125Y601746D01*
X22319Y597816D01*
X22307Y597806D01*
X22293Y597800D01*
X22162Y597695D01*
X16605Y592138D01*
X16595Y592126D01*
X16583Y592116D01*
X16484Y591981D01*
X12554Y585175D01*
X12549Y585160D01*
X12539Y585148D01*
X12478Y584991D01*
X10444Y577400D01*
X10442Y577377D01*
X10420Y577253D01*
X10162Y573324D01*
X10164Y573305D01*
X10161Y573274D01*
X10161Y48807D01*
X10168Y48762D01*
X10166Y48717D01*
X10198Y48582D01*
X10200Y48565D01*
X10203Y48560D01*
X10204Y48553D01*
X10253Y48416D01*
X10162Y46685D01*
X10163Y46669D01*
X10161Y46645D01*
X10161Y44823D01*
X10161Y44821D01*
X10153Y44789D01*
X10155Y44769D01*
X10151Y44734D01*
X10160Y42167D01*
X10165Y42135D01*
X10168Y42091D01*
X10168Y42090D01*
X10168Y42089D01*
X10171Y42039D01*
X11601Y33799D01*
X11601Y33798D01*
X11601Y33797D01*
X11648Y33636D01*
X14875Y25920D01*
X14876Y25919D01*
X14877Y25918D01*
X14958Y25771D01*
X19821Y18967D01*
X19822Y18966D01*
X19823Y18965D01*
X19935Y18841D01*
X26191Y13290D01*
X26192Y13289D01*
X26193Y13288D01*
X26330Y13191D01*
X33663Y9171D01*
X33665Y9171D01*
X33666Y9170D01*
X33821Y9107D01*
X41865Y6819D01*
X41897Y6815D01*
X41991Y6795D01*
X46016Y6355D01*
X46044Y6357D01*
X46098Y6351D01*
X179832Y6351D01*
X179852Y6354D01*
G37*
%LPC*%
G36*
X667194Y528291D02*
X667194Y528291D01*
X657283Y533340D01*
X649418Y541205D01*
X644369Y551116D01*
X642629Y562102D01*
X644369Y573088D01*
X649418Y582998D01*
X657284Y590864D01*
X667194Y595913D01*
X678180Y597653D01*
X689166Y595913D01*
X699077Y590864D01*
X706942Y582999D01*
X711991Y573088D01*
X713731Y562102D01*
X711991Y551116D01*
X706942Y541205D01*
X699077Y533340D01*
X689166Y528291D01*
X678180Y526551D01*
X667194Y528291D01*
G37*
%LPD*%
%LPC*%
G36*
X41084Y16989D02*
X41084Y16989D01*
X31173Y22038D01*
X23308Y29903D01*
X18259Y39814D01*
X16519Y50800D01*
X18259Y61786D01*
X23308Y71697D01*
X31173Y79562D01*
X41084Y84611D01*
X52070Y86351D01*
X63056Y84611D01*
X72967Y79562D01*
X80832Y71697D01*
X85881Y61786D01*
X87621Y50800D01*
X85881Y39814D01*
X80832Y29903D01*
X72967Y22038D01*
X63056Y16989D01*
X52070Y15249D01*
X41084Y16989D01*
G37*
%LPD*%
%LPC*%
G36*
X41084Y528291D02*
X41084Y528291D01*
X31173Y533340D01*
X23308Y541205D01*
X18259Y551116D01*
X16519Y562102D01*
X18259Y573088D01*
X23308Y582999D01*
X31173Y590864D01*
X41084Y595913D01*
X52070Y597653D01*
X63056Y595913D01*
X72967Y590864D01*
X80832Y582999D01*
X85881Y573088D01*
X87621Y562102D01*
X85881Y551116D01*
X80832Y541205D01*
X72967Y533340D01*
X63056Y528291D01*
X52070Y526551D01*
X41084Y528291D01*
G37*
%LPD*%
%LPC*%
G36*
X328002Y299493D02*
X328002Y299493D01*
X324893Y302602D01*
X324893Y306998D01*
X327690Y309795D01*
X327743Y309869D01*
X327803Y309939D01*
X327815Y309969D01*
X327834Y309995D01*
X327861Y310082D01*
X327895Y310167D01*
X327899Y310208D01*
X327906Y310230D01*
X327905Y310262D01*
X327913Y310333D01*
X327913Y459287D01*
X327899Y459377D01*
X327891Y459468D01*
X327879Y459497D01*
X327874Y459529D01*
X327854Y459567D01*
X327852Y459574D01*
X327831Y459609D01*
X327831Y459610D01*
X327795Y459694D01*
X327769Y459726D01*
X327758Y459747D01*
X327737Y459767D01*
X327726Y459785D01*
X327713Y459796D01*
X327690Y459825D01*
X324893Y462622D01*
X324893Y467018D01*
X328002Y470127D01*
X332398Y470127D01*
X335507Y467018D01*
X335507Y462622D01*
X332710Y459825D01*
X332667Y459765D01*
X332626Y459723D01*
X332619Y459707D01*
X332597Y459681D01*
X332585Y459651D01*
X332566Y459625D01*
X332539Y459538D01*
X332531Y459516D01*
X332523Y459499D01*
X332522Y459496D01*
X332505Y459453D01*
X332501Y459412D01*
X332494Y459390D01*
X332495Y459358D01*
X332487Y459287D01*
X332487Y360155D01*
X332498Y360088D01*
X332499Y360020D01*
X332517Y359968D01*
X332526Y359912D01*
X332558Y359852D01*
X332581Y359789D01*
X332615Y359744D01*
X332642Y359695D01*
X332691Y359648D01*
X332732Y359595D01*
X332779Y359564D01*
X332820Y359526D01*
X332881Y359497D01*
X332938Y359460D01*
X332992Y359446D01*
X333043Y359422D01*
X333110Y359414D01*
X333176Y359397D01*
X333232Y359401D01*
X333287Y359395D01*
X333354Y359409D01*
X333421Y359414D01*
X333473Y359435D01*
X333528Y359447D01*
X333586Y359482D01*
X333649Y359508D01*
X333691Y359545D01*
X333739Y359573D01*
X333783Y359625D01*
X333834Y359669D01*
X333877Y359735D01*
X333899Y359760D01*
X333907Y359780D01*
X333926Y359809D01*
X334427Y360792D01*
X335344Y362054D01*
X336446Y363156D01*
X337708Y364073D01*
X339097Y364781D01*
X340580Y365263D01*
X341377Y365389D01*
X341377Y356362D01*
X341380Y356342D01*
X341378Y356323D01*
X341400Y356221D01*
X341417Y356119D01*
X341426Y356102D01*
X341430Y356082D01*
X341483Y355993D01*
X341532Y355902D01*
X341546Y355888D01*
X341556Y355871D01*
X341635Y355804D01*
X341710Y355733D01*
X341728Y355724D01*
X341743Y355711D01*
X341839Y355673D01*
X341933Y355629D01*
X341953Y355627D01*
X341971Y355619D01*
X342138Y355601D01*
X343662Y355601D01*
X343682Y355604D01*
X343701Y355602D01*
X343803Y355624D01*
X343905Y355641D01*
X343922Y355650D01*
X343942Y355654D01*
X344031Y355707D01*
X344122Y355756D01*
X344136Y355770D01*
X344153Y355780D01*
X344220Y355859D01*
X344291Y355934D01*
X344300Y355952D01*
X344313Y355967D01*
X344352Y356063D01*
X344395Y356157D01*
X344397Y356177D01*
X344405Y356195D01*
X344423Y356362D01*
X344423Y365389D01*
X345220Y365263D01*
X346703Y364781D01*
X348092Y364073D01*
X349354Y363156D01*
X350456Y362054D01*
X351373Y360792D01*
X351874Y359809D01*
X351914Y359755D01*
X351946Y359695D01*
X351986Y359656D01*
X352019Y359611D01*
X352075Y359572D01*
X352124Y359526D01*
X352175Y359502D01*
X352221Y359470D01*
X352286Y359450D01*
X352347Y359422D01*
X352403Y359416D01*
X352456Y359400D01*
X352524Y359402D01*
X352591Y359395D01*
X352646Y359407D01*
X352702Y359409D01*
X352766Y359433D01*
X352832Y359447D01*
X352880Y359476D01*
X352932Y359496D01*
X352985Y359539D01*
X353043Y359573D01*
X353079Y359616D01*
X353123Y359651D01*
X353159Y359709D01*
X353203Y359760D01*
X353224Y359812D01*
X353254Y359860D01*
X353269Y359925D01*
X353295Y359988D01*
X353303Y360067D01*
X353311Y360099D01*
X353309Y360120D01*
X353313Y360155D01*
X353313Y477067D01*
X353299Y477157D01*
X353291Y477248D01*
X353279Y477277D01*
X353274Y477309D01*
X353231Y477390D01*
X353195Y477474D01*
X353169Y477506D01*
X353158Y477527D01*
X353135Y477549D01*
X353090Y477605D01*
X350293Y480402D01*
X350293Y484798D01*
X353402Y487907D01*
X357798Y487907D01*
X360907Y484798D01*
X360907Y480402D01*
X358110Y477605D01*
X358057Y477531D01*
X357997Y477461D01*
X357985Y477431D01*
X357966Y477405D01*
X357939Y477318D01*
X357905Y477233D01*
X357901Y477192D01*
X357894Y477170D01*
X357895Y477138D01*
X357887Y477067D01*
X357887Y323033D01*
X357892Y323003D01*
X357890Y322991D01*
X357902Y322939D01*
X357909Y322852D01*
X357921Y322823D01*
X357926Y322791D01*
X357939Y322766D01*
X357943Y322751D01*
X357974Y322698D01*
X358005Y322626D01*
X358031Y322594D01*
X358042Y322573D01*
X358059Y322557D01*
X358069Y322540D01*
X358085Y322526D01*
X358110Y322495D01*
X360907Y319698D01*
X360907Y315302D01*
X357798Y312193D01*
X353402Y312193D01*
X350293Y315302D01*
X350293Y319698D01*
X353090Y322495D01*
X353133Y322554D01*
X353179Y322603D01*
X353187Y322620D01*
X353203Y322639D01*
X353215Y322669D01*
X353234Y322695D01*
X353258Y322773D01*
X353282Y322826D01*
X353284Y322840D01*
X353295Y322867D01*
X353299Y322908D01*
X353306Y322930D01*
X353305Y322962D01*
X353313Y323033D01*
X353313Y351045D01*
X353302Y351112D01*
X353301Y351180D01*
X353283Y351232D01*
X353274Y351288D01*
X353242Y351348D01*
X353219Y351411D01*
X353185Y351456D01*
X353158Y351505D01*
X353109Y351552D01*
X353068Y351605D01*
X353021Y351636D01*
X352980Y351674D01*
X352919Y351703D01*
X352862Y351740D01*
X352808Y351754D01*
X352757Y351778D01*
X352690Y351786D01*
X352624Y351803D01*
X352568Y351799D01*
X352513Y351805D01*
X352446Y351791D01*
X352379Y351786D01*
X352327Y351765D01*
X352272Y351753D01*
X352214Y351718D01*
X352151Y351692D01*
X352109Y351655D01*
X352061Y351627D01*
X352017Y351575D01*
X351966Y351531D01*
X351923Y351465D01*
X351901Y351440D01*
X351893Y351420D01*
X351874Y351391D01*
X351373Y350408D01*
X350456Y349146D01*
X349354Y348044D01*
X348092Y347127D01*
X346703Y346419D01*
X345220Y345937D01*
X344423Y345811D01*
X344423Y354838D01*
X344420Y354858D01*
X344422Y354877D01*
X344400Y354979D01*
X344383Y355081D01*
X344374Y355098D01*
X344370Y355118D01*
X344317Y355207D01*
X344268Y355298D01*
X344254Y355312D01*
X344244Y355329D01*
X344165Y355396D01*
X344090Y355467D01*
X344072Y355476D01*
X344057Y355489D01*
X343961Y355527D01*
X343867Y355571D01*
X343847Y355573D01*
X343829Y355581D01*
X343662Y355599D01*
X342138Y355599D01*
X342118Y355596D01*
X342099Y355598D01*
X341997Y355576D01*
X341895Y355559D01*
X341878Y355550D01*
X341858Y355546D01*
X341769Y355493D01*
X341678Y355444D01*
X341664Y355430D01*
X341647Y355420D01*
X341580Y355341D01*
X341509Y355266D01*
X341500Y355248D01*
X341487Y355233D01*
X341448Y355137D01*
X341405Y355043D01*
X341403Y355023D01*
X341395Y355005D01*
X341377Y354838D01*
X341377Y345811D01*
X340580Y345937D01*
X339097Y346419D01*
X337708Y347127D01*
X336446Y348044D01*
X335344Y349146D01*
X334427Y350408D01*
X333926Y351390D01*
X333886Y351445D01*
X333854Y351505D01*
X333814Y351544D01*
X333781Y351589D01*
X333725Y351628D01*
X333676Y351674D01*
X333625Y351698D01*
X333579Y351730D01*
X333514Y351749D01*
X333453Y351778D01*
X333397Y351784D01*
X333344Y351800D01*
X333276Y351798D01*
X333209Y351805D01*
X333154Y351793D01*
X333098Y351791D01*
X333034Y351767D01*
X332968Y351753D01*
X332920Y351724D01*
X332868Y351704D01*
X332815Y351661D01*
X332757Y351627D01*
X332721Y351584D01*
X332677Y351549D01*
X332641Y351491D01*
X332597Y351440D01*
X332576Y351388D01*
X332546Y351340D01*
X332531Y351275D01*
X332505Y351212D01*
X332497Y351133D01*
X332489Y351101D01*
X332491Y351080D01*
X332487Y351045D01*
X332487Y310333D01*
X332501Y310243D01*
X332509Y310152D01*
X332521Y310123D01*
X332526Y310091D01*
X332569Y310010D01*
X332605Y309926D01*
X332631Y309894D01*
X332642Y309873D01*
X332665Y309851D01*
X332710Y309795D01*
X335507Y306998D01*
X335507Y302602D01*
X332398Y299493D01*
X328002Y299493D01*
G37*
%LPD*%
%LPC*%
G36*
X531202Y197893D02*
X531202Y197893D01*
X528093Y201002D01*
X528093Y205398D01*
X530890Y208195D01*
X530943Y208269D01*
X531003Y208339D01*
X531015Y208369D01*
X531034Y208395D01*
X531061Y208482D01*
X531095Y208567D01*
X531099Y208608D01*
X531106Y208630D01*
X531105Y208662D01*
X531113Y208733D01*
X531113Y437628D01*
X531102Y437699D01*
X531100Y437771D01*
X531082Y437820D01*
X531074Y437871D01*
X531040Y437934D01*
X531015Y438002D01*
X530983Y438042D01*
X530958Y438089D01*
X530906Y438138D01*
X530862Y438194D01*
X530818Y438222D01*
X530780Y438258D01*
X530715Y438288D01*
X530655Y438327D01*
X530604Y438340D01*
X530557Y438362D01*
X530486Y438369D01*
X530416Y438387D01*
X530364Y438383D01*
X530313Y438389D01*
X530242Y438373D01*
X530171Y438368D01*
X530123Y438347D01*
X530072Y438336D01*
X530011Y438300D01*
X529945Y438271D01*
X529889Y438227D01*
X529861Y438210D01*
X529846Y438192D01*
X529814Y438167D01*
X526887Y435240D01*
X522873Y433577D01*
X518527Y433577D01*
X514513Y435240D01*
X511440Y438313D01*
X509777Y442327D01*
X509777Y446673D01*
X511440Y450687D01*
X514513Y453760D01*
X518527Y455423D01*
X522873Y455423D01*
X526887Y453760D01*
X529814Y450833D01*
X529872Y450791D01*
X529924Y450742D01*
X529971Y450720D01*
X530013Y450690D01*
X530082Y450669D01*
X530147Y450638D01*
X530199Y450633D01*
X530249Y450617D01*
X530320Y450619D01*
X530391Y450611D01*
X530442Y450622D01*
X530494Y450624D01*
X530562Y450648D01*
X530632Y450664D01*
X530677Y450690D01*
X530725Y450708D01*
X530781Y450753D01*
X530843Y450790D01*
X530877Y450829D01*
X530917Y450862D01*
X530956Y450922D01*
X531003Y450977D01*
X531022Y451025D01*
X531050Y451069D01*
X531068Y451138D01*
X531095Y451205D01*
X531103Y451276D01*
X531111Y451307D01*
X531109Y451331D01*
X531113Y451372D01*
X531113Y464367D01*
X531099Y464457D01*
X531091Y464548D01*
X531079Y464577D01*
X531074Y464609D01*
X531031Y464690D01*
X530995Y464774D01*
X530969Y464806D01*
X530958Y464827D01*
X530935Y464849D01*
X530890Y464905D01*
X528093Y467702D01*
X528093Y472098D01*
X531202Y475207D01*
X535598Y475207D01*
X538707Y472098D01*
X538707Y467702D01*
X535910Y464905D01*
X535857Y464831D01*
X535797Y464761D01*
X535785Y464731D01*
X535766Y464705D01*
X535739Y464618D01*
X535705Y464533D01*
X535701Y464492D01*
X535694Y464470D01*
X535695Y464438D01*
X535687Y464367D01*
X535687Y452808D01*
X535698Y452738D01*
X535700Y452666D01*
X535718Y452617D01*
X535726Y452566D01*
X535760Y452502D01*
X535785Y452435D01*
X535817Y452394D01*
X535842Y452348D01*
X535894Y452299D01*
X535938Y452243D01*
X535982Y452215D01*
X536020Y452179D01*
X536085Y452149D01*
X536145Y452110D01*
X536196Y452097D01*
X536243Y452075D01*
X536314Y452067D01*
X536384Y452050D01*
X536436Y452054D01*
X536487Y452048D01*
X536558Y452063D01*
X536629Y452069D01*
X536677Y452089D01*
X536728Y452100D01*
X536789Y452137D01*
X536855Y452165D01*
X536911Y452210D01*
X536939Y452227D01*
X536954Y452244D01*
X536986Y452270D01*
X538322Y453606D01*
X539843Y454711D01*
X541517Y455564D01*
X543304Y456145D01*
X544577Y456346D01*
X544577Y445262D01*
X544580Y445242D01*
X544578Y445223D01*
X544600Y445121D01*
X544617Y445019D01*
X544626Y445002D01*
X544630Y444982D01*
X544683Y444893D01*
X544732Y444802D01*
X544746Y444788D01*
X544756Y444771D01*
X544835Y444704D01*
X544910Y444633D01*
X544928Y444624D01*
X544943Y444611D01*
X545039Y444573D01*
X545133Y444529D01*
X545153Y444527D01*
X545171Y444519D01*
X545338Y444501D01*
X546101Y444501D01*
X546101Y444499D01*
X545338Y444499D01*
X545318Y444496D01*
X545299Y444498D01*
X545197Y444476D01*
X545095Y444459D01*
X545078Y444450D01*
X545058Y444446D01*
X544969Y444393D01*
X544878Y444344D01*
X544864Y444330D01*
X544847Y444320D01*
X544780Y444241D01*
X544709Y444166D01*
X544700Y444148D01*
X544687Y444133D01*
X544648Y444037D01*
X544605Y443943D01*
X544603Y443923D01*
X544595Y443905D01*
X544577Y443738D01*
X544577Y432654D01*
X543304Y432855D01*
X541517Y433436D01*
X539843Y434289D01*
X538322Y435394D01*
X536986Y436730D01*
X536928Y436772D01*
X536876Y436821D01*
X536829Y436843D01*
X536787Y436873D01*
X536718Y436894D01*
X536653Y436925D01*
X536601Y436930D01*
X536551Y436946D01*
X536480Y436944D01*
X536409Y436952D01*
X536358Y436941D01*
X536306Y436939D01*
X536238Y436915D01*
X536168Y436900D01*
X536123Y436873D01*
X536075Y436855D01*
X536019Y436810D01*
X535957Y436773D01*
X535923Y436734D01*
X535883Y436701D01*
X535844Y436641D01*
X535797Y436586D01*
X535778Y436538D01*
X535750Y436494D01*
X535732Y436425D01*
X535705Y436358D01*
X535697Y436287D01*
X535689Y436256D01*
X535691Y436232D01*
X535687Y436192D01*
X535687Y208733D01*
X535701Y208643D01*
X535709Y208552D01*
X535721Y208523D01*
X535726Y208491D01*
X535769Y208410D01*
X535805Y208326D01*
X535831Y208294D01*
X535842Y208273D01*
X535865Y208251D01*
X535910Y208195D01*
X538707Y205398D01*
X538707Y201002D01*
X535598Y197893D01*
X531202Y197893D01*
G37*
%LPD*%
%LPC*%
G36*
X56615Y445515D02*
X56615Y445515D01*
X48586Y448841D01*
X42441Y454986D01*
X39115Y463015D01*
X39115Y471705D01*
X42441Y479734D01*
X48586Y485879D01*
X56615Y489205D01*
X65305Y489205D01*
X73334Y485879D01*
X79479Y479734D01*
X82805Y471705D01*
X82805Y463015D01*
X79479Y454986D01*
X73334Y448841D01*
X65305Y445515D01*
X56615Y445515D01*
G37*
%LPD*%
%LPC*%
G36*
X46455Y244855D02*
X46455Y244855D01*
X38426Y248181D01*
X32281Y254326D01*
X28955Y262355D01*
X28955Y271045D01*
X32281Y279074D01*
X38426Y285219D01*
X46455Y288545D01*
X55145Y288545D01*
X63174Y285219D01*
X69319Y279074D01*
X72645Y271045D01*
X72645Y262355D01*
X69319Y254326D01*
X63174Y248181D01*
X55145Y244855D01*
X46455Y244855D01*
G37*
%LPD*%
%LPC*%
G36*
X490955Y130555D02*
X490955Y130555D01*
X482926Y133881D01*
X476781Y140026D01*
X473455Y148055D01*
X473455Y156745D01*
X476781Y164774D01*
X482926Y170919D01*
X490955Y174245D01*
X499645Y174245D01*
X507674Y170919D01*
X513819Y164774D01*
X517145Y156745D01*
X517145Y148055D01*
X513819Y140026D01*
X507674Y133881D01*
X499645Y130555D01*
X490955Y130555D01*
G37*
%LPD*%
%LPC*%
G36*
X56615Y323595D02*
X56615Y323595D01*
X48586Y326921D01*
X42441Y333066D01*
X39115Y341095D01*
X39115Y349785D01*
X42441Y357814D01*
X48586Y363959D01*
X56615Y367285D01*
X65305Y367285D01*
X73334Y363959D01*
X79479Y357814D01*
X82805Y349785D01*
X82805Y341095D01*
X79479Y333066D01*
X73334Y326921D01*
X65305Y323595D01*
X56615Y323595D01*
G37*
%LPD*%
%LPC*%
G36*
X46455Y107695D02*
X46455Y107695D01*
X38426Y111021D01*
X32281Y117166D01*
X28955Y125195D01*
X28955Y133885D01*
X32281Y141914D01*
X38426Y148059D01*
X46455Y151385D01*
X55145Y151385D01*
X63174Y148059D01*
X69319Y141914D01*
X72645Y133885D01*
X72645Y125195D01*
X69319Y117166D01*
X63174Y111021D01*
X55145Y107695D01*
X46455Y107695D01*
G37*
%LPD*%
%LPC*%
G36*
X620102Y248693D02*
X620102Y248693D01*
X616993Y251802D01*
X616993Y256198D01*
X619790Y258995D01*
X619843Y259069D01*
X619903Y259139D01*
X619915Y259169D01*
X619934Y259195D01*
X619961Y259282D01*
X619995Y259367D01*
X619999Y259408D01*
X620006Y259430D01*
X620005Y259462D01*
X620013Y259533D01*
X620013Y433116D01*
X619994Y433231D01*
X619977Y433347D01*
X619975Y433352D01*
X619974Y433359D01*
X619919Y433461D01*
X619866Y433566D01*
X619861Y433570D01*
X619858Y433576D01*
X619774Y433656D01*
X619690Y433738D01*
X619684Y433742D01*
X619680Y433745D01*
X619663Y433753D01*
X619543Y433819D01*
X616113Y435240D01*
X613040Y438313D01*
X611377Y442327D01*
X611377Y446673D01*
X613040Y450687D01*
X616113Y453760D01*
X620127Y455423D01*
X624473Y455423D01*
X628487Y453760D01*
X631560Y450687D01*
X633223Y446673D01*
X633223Y442327D01*
X631560Y438313D01*
X628487Y435240D01*
X625057Y433819D01*
X624957Y433758D01*
X624857Y433698D01*
X624853Y433693D01*
X624848Y433690D01*
X624773Y433600D01*
X624697Y433511D01*
X624695Y433505D01*
X624691Y433500D01*
X624649Y433392D01*
X624605Y433283D01*
X624604Y433275D01*
X624603Y433270D01*
X624602Y433252D01*
X624587Y433116D01*
X624587Y259533D01*
X624601Y259443D01*
X624609Y259352D01*
X624621Y259323D01*
X624626Y259291D01*
X624669Y259210D01*
X624705Y259126D01*
X624731Y259094D01*
X624742Y259073D01*
X624765Y259051D01*
X624810Y258995D01*
X627607Y256198D01*
X627607Y251802D01*
X624498Y248693D01*
X620102Y248693D01*
G37*
%LPD*%
%LPC*%
G36*
X374992Y275363D02*
X374992Y275363D01*
X371883Y278472D01*
X371883Y282868D01*
X374992Y285977D01*
X377952Y285977D01*
X377972Y285980D01*
X377991Y285978D01*
X378093Y286000D01*
X378195Y286016D01*
X378212Y286026D01*
X378232Y286030D01*
X378321Y286083D01*
X378412Y286132D01*
X378426Y286146D01*
X378443Y286156D01*
X378510Y286235D01*
X378582Y286310D01*
X378590Y286328D01*
X378603Y286343D01*
X378642Y286439D01*
X378685Y286533D01*
X378687Y286553D01*
X378695Y286571D01*
X378713Y286738D01*
X378713Y518977D01*
X378699Y519067D01*
X378691Y519158D01*
X378679Y519187D01*
X378674Y519219D01*
X378631Y519300D01*
X378595Y519384D01*
X378569Y519416D01*
X378558Y519437D01*
X378535Y519459D01*
X378490Y519515D01*
X375693Y522312D01*
X375693Y526708D01*
X378802Y529817D01*
X383198Y529817D01*
X386307Y526708D01*
X386307Y522312D01*
X383510Y519515D01*
X383457Y519441D01*
X383397Y519371D01*
X383385Y519341D01*
X383366Y519315D01*
X383339Y519228D01*
X383305Y519143D01*
X383301Y519102D01*
X383294Y519080D01*
X383295Y519048D01*
X383287Y518977D01*
X383287Y283533D01*
X382720Y282966D01*
X382667Y282892D01*
X382607Y282822D01*
X382595Y282792D01*
X382576Y282766D01*
X382549Y282679D01*
X382515Y282594D01*
X382511Y282553D01*
X382504Y282531D01*
X382505Y282499D01*
X382497Y282427D01*
X382497Y278472D01*
X379388Y275363D01*
X374992Y275363D01*
G37*
%LPD*%
%LPC*%
G36*
X467702Y223293D02*
X467702Y223293D01*
X464593Y226402D01*
X464593Y230798D01*
X467390Y233595D01*
X467443Y233669D01*
X467503Y233739D01*
X467515Y233769D01*
X467534Y233795D01*
X467561Y233882D01*
X467595Y233967D01*
X467599Y234008D01*
X467606Y234030D01*
X467605Y234062D01*
X467613Y234133D01*
X467613Y464367D01*
X467599Y464457D01*
X467591Y464548D01*
X467579Y464577D01*
X467574Y464609D01*
X467531Y464690D01*
X467495Y464774D01*
X467469Y464806D01*
X467458Y464827D01*
X467435Y464849D01*
X467390Y464905D01*
X464593Y467702D01*
X464593Y472098D01*
X467702Y475207D01*
X472098Y475207D01*
X475207Y472098D01*
X475207Y467702D01*
X472410Y464905D01*
X472357Y464831D01*
X472297Y464761D01*
X472285Y464731D01*
X472266Y464705D01*
X472239Y464618D01*
X472205Y464533D01*
X472201Y464492D01*
X472194Y464470D01*
X472195Y464438D01*
X472187Y464367D01*
X472187Y234133D01*
X472201Y234043D01*
X472209Y233952D01*
X472221Y233923D01*
X472226Y233891D01*
X472269Y233810D01*
X472305Y233726D01*
X472331Y233694D01*
X472342Y233673D01*
X472365Y233651D01*
X472410Y233595D01*
X475207Y230798D01*
X475207Y226402D01*
X472098Y223293D01*
X467702Y223293D01*
G37*
%LPD*%
%LPC*%
G36*
X594702Y274093D02*
X594702Y274093D01*
X591593Y277202D01*
X591593Y281598D01*
X594390Y284395D01*
X594443Y284469D01*
X594503Y284539D01*
X594515Y284569D01*
X594534Y284595D01*
X594561Y284682D01*
X594595Y284767D01*
X594599Y284808D01*
X594606Y284830D01*
X594605Y284862D01*
X594613Y284933D01*
X594613Y433116D01*
X594594Y433231D01*
X594577Y433347D01*
X594575Y433352D01*
X594574Y433359D01*
X594519Y433461D01*
X594466Y433566D01*
X594461Y433570D01*
X594458Y433576D01*
X594374Y433656D01*
X594290Y433738D01*
X594284Y433742D01*
X594280Y433745D01*
X594263Y433753D01*
X594143Y433819D01*
X590713Y435240D01*
X587640Y438313D01*
X585977Y442327D01*
X585977Y446673D01*
X587640Y450687D01*
X590713Y453760D01*
X594727Y455423D01*
X599073Y455423D01*
X603087Y453760D01*
X606160Y450687D01*
X607823Y446673D01*
X607823Y442327D01*
X606160Y438313D01*
X603087Y435240D01*
X599657Y433819D01*
X599557Y433758D01*
X599457Y433698D01*
X599453Y433693D01*
X599448Y433690D01*
X599373Y433600D01*
X599297Y433511D01*
X599295Y433505D01*
X599291Y433500D01*
X599249Y433392D01*
X599205Y433283D01*
X599204Y433275D01*
X599203Y433270D01*
X599202Y433252D01*
X599187Y433116D01*
X599187Y284933D01*
X599201Y284843D01*
X599209Y284752D01*
X599221Y284723D01*
X599226Y284691D01*
X599269Y284610D01*
X599305Y284526D01*
X599331Y284494D01*
X599342Y284473D01*
X599365Y284451D01*
X599410Y284395D01*
X602207Y281598D01*
X602207Y277202D01*
X599098Y274093D01*
X594702Y274093D01*
G37*
%LPD*%
%LPC*%
G36*
X569302Y299493D02*
X569302Y299493D01*
X566193Y302602D01*
X566193Y306998D01*
X568990Y309795D01*
X569043Y309869D01*
X569103Y309939D01*
X569115Y309969D01*
X569134Y309995D01*
X569161Y310082D01*
X569195Y310167D01*
X569199Y310208D01*
X569206Y310230D01*
X569205Y310262D01*
X569213Y310333D01*
X569213Y433116D01*
X569194Y433231D01*
X569177Y433347D01*
X569175Y433352D01*
X569174Y433359D01*
X569119Y433461D01*
X569066Y433566D01*
X569061Y433570D01*
X569058Y433576D01*
X568974Y433656D01*
X568890Y433738D01*
X568884Y433742D01*
X568880Y433745D01*
X568863Y433753D01*
X568743Y433819D01*
X565313Y435240D01*
X562240Y438313D01*
X560577Y442327D01*
X560577Y446673D01*
X562240Y450687D01*
X565313Y453760D01*
X569327Y455423D01*
X573673Y455423D01*
X577687Y453760D01*
X580760Y450687D01*
X582423Y446673D01*
X582423Y442327D01*
X580760Y438313D01*
X577687Y435240D01*
X574257Y433819D01*
X574157Y433758D01*
X574057Y433698D01*
X574053Y433693D01*
X574048Y433690D01*
X573973Y433600D01*
X573897Y433511D01*
X573895Y433505D01*
X573891Y433500D01*
X573849Y433392D01*
X573805Y433283D01*
X573804Y433275D01*
X573803Y433270D01*
X573802Y433252D01*
X573787Y433116D01*
X573787Y310333D01*
X573801Y310243D01*
X573809Y310152D01*
X573821Y310123D01*
X573826Y310091D01*
X573869Y310010D01*
X573905Y309926D01*
X573931Y309894D01*
X573942Y309873D01*
X573965Y309851D01*
X574010Y309795D01*
X576807Y306998D01*
X576807Y302602D01*
X573698Y299493D01*
X569302Y299493D01*
G37*
%LPD*%
%LPC*%
G36*
X417332Y245109D02*
X417332Y245109D01*
X414064Y246463D01*
X411563Y248964D01*
X410619Y251243D01*
X410557Y251343D01*
X410497Y251443D01*
X410492Y251447D01*
X410489Y251452D01*
X410399Y251527D01*
X410310Y251603D01*
X410304Y251605D01*
X410300Y251609D01*
X410191Y251651D01*
X410082Y251695D01*
X410074Y251696D01*
X410070Y251697D01*
X410052Y251698D01*
X409915Y251713D01*
X405453Y251713D01*
X404113Y253053D01*
X404113Y400867D01*
X404099Y400957D01*
X404091Y401048D01*
X404079Y401077D01*
X404074Y401109D01*
X404031Y401190D01*
X403995Y401274D01*
X403969Y401306D01*
X403958Y401327D01*
X403935Y401349D01*
X403890Y401405D01*
X401093Y404202D01*
X401093Y408598D01*
X404202Y411707D01*
X408598Y411707D01*
X411707Y408598D01*
X411707Y404202D01*
X408910Y401405D01*
X408857Y401331D01*
X408797Y401261D01*
X408785Y401231D01*
X408766Y401205D01*
X408739Y401118D01*
X408705Y401033D01*
X408701Y400992D01*
X408694Y400970D01*
X408695Y400938D01*
X408687Y400867D01*
X408687Y257048D01*
X408690Y257028D01*
X408688Y257009D01*
X408710Y256907D01*
X408726Y256805D01*
X408736Y256788D01*
X408740Y256768D01*
X408793Y256679D01*
X408842Y256588D01*
X408856Y256574D01*
X408866Y256557D01*
X408945Y256490D01*
X409020Y256418D01*
X409038Y256410D01*
X409053Y256397D01*
X409149Y256358D01*
X409243Y256315D01*
X409263Y256313D01*
X409281Y256305D01*
X409448Y256287D01*
X409915Y256287D01*
X410030Y256306D01*
X410146Y256323D01*
X410152Y256325D01*
X410158Y256326D01*
X410261Y256381D01*
X410365Y256434D01*
X410370Y256439D01*
X410375Y256442D01*
X410455Y256526D01*
X410538Y256610D01*
X410541Y256616D01*
X410545Y256620D01*
X410553Y256637D01*
X410619Y256757D01*
X411563Y259036D01*
X414064Y261537D01*
X417332Y262891D01*
X420868Y262891D01*
X424136Y261537D01*
X426637Y259036D01*
X427991Y255768D01*
X427991Y252232D01*
X426637Y248964D01*
X424136Y246463D01*
X420868Y245109D01*
X417332Y245109D01*
G37*
%LPD*%
%LPC*%
G36*
X302602Y324893D02*
X302602Y324893D01*
X299493Y328002D01*
X299493Y332398D01*
X302290Y335195D01*
X302343Y335269D01*
X302403Y335339D01*
X302415Y335369D01*
X302434Y335395D01*
X302461Y335482D01*
X302495Y335567D01*
X302499Y335608D01*
X302506Y335630D01*
X302505Y335662D01*
X302513Y335733D01*
X302513Y515167D01*
X302499Y515257D01*
X302491Y515348D01*
X302479Y515377D01*
X302474Y515409D01*
X302431Y515490D01*
X302395Y515574D01*
X302369Y515606D01*
X302358Y515627D01*
X302335Y515649D01*
X302290Y515705D01*
X299493Y518502D01*
X299493Y522898D01*
X302602Y526007D01*
X306998Y526007D01*
X310107Y522898D01*
X310107Y518502D01*
X307310Y515705D01*
X307257Y515631D01*
X307197Y515561D01*
X307185Y515531D01*
X307166Y515505D01*
X307139Y515418D01*
X307105Y515333D01*
X307101Y515292D01*
X307094Y515270D01*
X307095Y515238D01*
X307087Y515167D01*
X307087Y335733D01*
X307101Y335643D01*
X307109Y335552D01*
X307121Y335523D01*
X307126Y335491D01*
X307169Y335410D01*
X307205Y335326D01*
X307231Y335294D01*
X307242Y335273D01*
X307265Y335251D01*
X307310Y335195D01*
X310107Y332398D01*
X310107Y328002D01*
X306998Y324893D01*
X302602Y324893D01*
G37*
%LPD*%
%LPC*%
G36*
X315302Y375693D02*
X315302Y375693D01*
X312193Y378802D01*
X312193Y383198D01*
X314990Y385995D01*
X315043Y386069D01*
X315103Y386139D01*
X315115Y386169D01*
X315134Y386195D01*
X315161Y386282D01*
X315195Y386367D01*
X315199Y386408D01*
X315206Y386430D01*
X315205Y386462D01*
X315213Y386533D01*
X315213Y540567D01*
X315199Y540657D01*
X315191Y540748D01*
X315179Y540777D01*
X315174Y540809D01*
X315131Y540890D01*
X315095Y540974D01*
X315069Y541006D01*
X315058Y541027D01*
X315035Y541049D01*
X314990Y541105D01*
X312193Y543902D01*
X312193Y548298D01*
X315302Y551407D01*
X319698Y551407D01*
X322807Y548298D01*
X322807Y543902D01*
X320010Y541105D01*
X319957Y541031D01*
X319897Y540961D01*
X319885Y540931D01*
X319866Y540905D01*
X319839Y540818D01*
X319805Y540733D01*
X319801Y540692D01*
X319794Y540670D01*
X319795Y540638D01*
X319787Y540567D01*
X319787Y386533D01*
X319801Y386443D01*
X319809Y386352D01*
X319821Y386323D01*
X319826Y386291D01*
X319869Y386210D01*
X319905Y386126D01*
X319931Y386094D01*
X319942Y386073D01*
X319965Y386051D01*
X320010Y385995D01*
X322807Y383198D01*
X322807Y378802D01*
X319698Y375693D01*
X315302Y375693D01*
G37*
%LPD*%
%LPC*%
G36*
X441148Y375665D02*
X441148Y375665D01*
X432815Y383998D01*
X432815Y395782D01*
X441148Y404115D01*
X443992Y404115D01*
X444012Y404118D01*
X444031Y404116D01*
X444133Y404138D01*
X444235Y404154D01*
X444252Y404164D01*
X444272Y404168D01*
X444361Y404221D01*
X444452Y404270D01*
X444466Y404284D01*
X444483Y404294D01*
X444550Y404373D01*
X444622Y404448D01*
X444630Y404466D01*
X444643Y404481D01*
X444682Y404577D01*
X444725Y404671D01*
X444727Y404691D01*
X444735Y404709D01*
X444753Y404876D01*
X444753Y419917D01*
X444739Y420007D01*
X444731Y420098D01*
X444719Y420127D01*
X444714Y420159D01*
X444671Y420240D01*
X444635Y420324D01*
X444609Y420356D01*
X444598Y420377D01*
X444575Y420399D01*
X444530Y420455D01*
X441733Y423252D01*
X441733Y427648D01*
X444842Y430757D01*
X449238Y430757D01*
X452347Y427648D01*
X452347Y423252D01*
X449550Y420455D01*
X449497Y420381D01*
X449437Y420311D01*
X449425Y420281D01*
X449406Y420255D01*
X449379Y420168D01*
X449345Y420083D01*
X449341Y420042D01*
X449334Y420020D01*
X449335Y419988D01*
X449327Y419917D01*
X449327Y404876D01*
X449330Y404856D01*
X449328Y404837D01*
X449350Y404735D01*
X449366Y404633D01*
X449376Y404616D01*
X449380Y404596D01*
X449433Y404507D01*
X449482Y404416D01*
X449496Y404402D01*
X449506Y404385D01*
X449585Y404318D01*
X449660Y404246D01*
X449678Y404238D01*
X449693Y404225D01*
X449789Y404186D01*
X449883Y404143D01*
X449903Y404141D01*
X449921Y404133D01*
X450088Y404115D01*
X452932Y404115D01*
X461265Y395782D01*
X461265Y383998D01*
X452932Y375665D01*
X441148Y375665D01*
G37*
%LPD*%
%LPC*%
G36*
X455002Y96293D02*
X455002Y96293D01*
X451893Y99402D01*
X451893Y103798D01*
X454690Y106595D01*
X454743Y106669D01*
X454803Y106739D01*
X454815Y106769D01*
X454834Y106795D01*
X454861Y106882D01*
X454895Y106967D01*
X454899Y107008D01*
X454906Y107030D01*
X454905Y107062D01*
X454913Y107133D01*
X454913Y248467D01*
X454899Y248557D01*
X454891Y248648D01*
X454879Y248677D01*
X454874Y248709D01*
X454831Y248790D01*
X454795Y248874D01*
X454769Y248906D01*
X454758Y248927D01*
X454735Y248949D01*
X454690Y249005D01*
X451893Y251802D01*
X451893Y256198D01*
X455002Y259307D01*
X459398Y259307D01*
X462507Y256198D01*
X462507Y251802D01*
X459710Y249005D01*
X459657Y248931D01*
X459597Y248861D01*
X459585Y248831D01*
X459566Y248805D01*
X459539Y248718D01*
X459505Y248633D01*
X459501Y248592D01*
X459494Y248570D01*
X459495Y248538D01*
X459487Y248467D01*
X459487Y107133D01*
X459501Y107043D01*
X459509Y106952D01*
X459521Y106923D01*
X459526Y106891D01*
X459569Y106810D01*
X459605Y106726D01*
X459631Y106694D01*
X459642Y106673D01*
X459665Y106651D01*
X459710Y106595D01*
X462507Y103798D01*
X462507Y99402D01*
X459398Y96293D01*
X455002Y96293D01*
G37*
%LPD*%
%LPC*%
G36*
X226402Y350293D02*
X226402Y350293D01*
X223293Y353402D01*
X223293Y357798D01*
X226090Y360595D01*
X226138Y360662D01*
X226141Y360665D01*
X226143Y360668D01*
X226143Y360669D01*
X226203Y360739D01*
X226215Y360769D01*
X226234Y360795D01*
X226261Y360882D01*
X226295Y360967D01*
X226299Y361008D01*
X226306Y361030D01*
X226305Y361062D01*
X226313Y361133D01*
X226313Y499392D01*
X226310Y499412D01*
X226312Y499431D01*
X226290Y499533D01*
X226274Y499635D01*
X226264Y499652D01*
X226260Y499672D01*
X226207Y499761D01*
X226158Y499852D01*
X226144Y499866D01*
X226134Y499883D01*
X226055Y499950D01*
X225980Y500022D01*
X225962Y500030D01*
X225947Y500043D01*
X225851Y500082D01*
X225757Y500125D01*
X225737Y500127D01*
X225719Y500135D01*
X225552Y500153D01*
X225132Y500153D01*
X222023Y503262D01*
X222023Y507658D01*
X225132Y510767D01*
X229528Y510767D01*
X232637Y507658D01*
X232637Y503262D01*
X231110Y501735D01*
X231057Y501661D01*
X230997Y501591D01*
X230985Y501561D01*
X230966Y501535D01*
X230939Y501448D01*
X230905Y501363D01*
X230901Y501322D01*
X230894Y501300D01*
X230895Y501268D01*
X230887Y501197D01*
X230887Y361133D01*
X230901Y361043D01*
X230909Y360952D01*
X230921Y360923D01*
X230926Y360891D01*
X230969Y360810D01*
X231005Y360726D01*
X231031Y360694D01*
X231042Y360673D01*
X231065Y360651D01*
X231110Y360595D01*
X233907Y357798D01*
X233907Y353402D01*
X230798Y350293D01*
X226402Y350293D01*
G37*
%LPD*%
%LPC*%
G36*
X549361Y67055D02*
X549361Y67055D01*
X546000Y68447D01*
X543427Y71020D01*
X542035Y74381D01*
X542035Y78019D01*
X543427Y81380D01*
X546000Y83953D01*
X549361Y85345D01*
X555752Y85345D01*
X555772Y85348D01*
X555791Y85346D01*
X555893Y85368D01*
X555995Y85384D01*
X556012Y85394D01*
X556032Y85398D01*
X556121Y85451D01*
X556212Y85500D01*
X556226Y85514D01*
X556243Y85524D01*
X556310Y85603D01*
X556382Y85678D01*
X556390Y85696D01*
X556403Y85711D01*
X556442Y85807D01*
X556485Y85901D01*
X556487Y85921D01*
X556495Y85939D01*
X556513Y86106D01*
X556513Y121467D01*
X556499Y121557D01*
X556491Y121648D01*
X556479Y121677D01*
X556474Y121709D01*
X556431Y121790D01*
X556395Y121874D01*
X556369Y121906D01*
X556358Y121927D01*
X556335Y121949D01*
X556290Y122005D01*
X553493Y124802D01*
X553493Y129198D01*
X556602Y132307D01*
X560998Y132307D01*
X564107Y129198D01*
X564107Y124802D01*
X561310Y122005D01*
X561257Y121931D01*
X561197Y121861D01*
X561185Y121831D01*
X561166Y121805D01*
X561139Y121718D01*
X561105Y121633D01*
X561101Y121592D01*
X561094Y121570D01*
X561095Y121538D01*
X561087Y121467D01*
X561087Y86106D01*
X561090Y86086D01*
X561088Y86067D01*
X561110Y85965D01*
X561126Y85863D01*
X561136Y85846D01*
X561140Y85826D01*
X561193Y85737D01*
X561242Y85646D01*
X561256Y85632D01*
X561266Y85615D01*
X561345Y85548D01*
X561420Y85476D01*
X561438Y85468D01*
X561453Y85455D01*
X561549Y85416D01*
X561643Y85373D01*
X561663Y85371D01*
X561681Y85363D01*
X561848Y85345D01*
X568239Y85345D01*
X571600Y83953D01*
X574173Y81380D01*
X575565Y78019D01*
X575565Y74381D01*
X574173Y71020D01*
X571600Y68447D01*
X568239Y67055D01*
X549361Y67055D01*
G37*
%LPD*%
%LPC*%
G36*
X211162Y401093D02*
X211162Y401093D01*
X208053Y404202D01*
X208053Y408598D01*
X210850Y411395D01*
X210903Y411469D01*
X210963Y411539D01*
X210975Y411569D01*
X210994Y411595D01*
X211021Y411682D01*
X211055Y411767D01*
X211059Y411808D01*
X211066Y411830D01*
X211065Y411862D01*
X211073Y411933D01*
X211073Y541837D01*
X211059Y541927D01*
X211051Y542018D01*
X211039Y542047D01*
X211034Y542079D01*
X210991Y542160D01*
X210955Y542244D01*
X210929Y542276D01*
X210918Y542297D01*
X210895Y542319D01*
X210850Y542375D01*
X208053Y545172D01*
X208053Y549568D01*
X211162Y552677D01*
X215558Y552677D01*
X218667Y549568D01*
X218667Y545172D01*
X215870Y542375D01*
X215817Y542301D01*
X215757Y542231D01*
X215745Y542201D01*
X215726Y542175D01*
X215699Y542088D01*
X215665Y542003D01*
X215661Y541962D01*
X215654Y541940D01*
X215655Y541908D01*
X215647Y541837D01*
X215647Y411933D01*
X215661Y411843D01*
X215669Y411752D01*
X215681Y411723D01*
X215686Y411691D01*
X215729Y411610D01*
X215765Y411526D01*
X215791Y411494D01*
X215802Y411473D01*
X215825Y411451D01*
X215870Y411395D01*
X218667Y408598D01*
X218667Y404202D01*
X215558Y401093D01*
X211162Y401093D01*
G37*
%LPD*%
%LPC*%
G36*
X213702Y197893D02*
X213702Y197893D01*
X210593Y201002D01*
X210593Y205398D01*
X213390Y208195D01*
X213443Y208269D01*
X213503Y208339D01*
X213515Y208369D01*
X213534Y208395D01*
X213561Y208482D01*
X213595Y208567D01*
X213599Y208608D01*
X213606Y208630D01*
X213605Y208662D01*
X213613Y208733D01*
X213613Y242117D01*
X213599Y242207D01*
X213591Y242298D01*
X213579Y242327D01*
X213574Y242359D01*
X213531Y242440D01*
X213495Y242524D01*
X213469Y242556D01*
X213458Y242577D01*
X213435Y242599D01*
X213390Y242655D01*
X210593Y245452D01*
X210593Y249848D01*
X213390Y252645D01*
X213443Y252719D01*
X213503Y252789D01*
X213515Y252819D01*
X213534Y252845D01*
X213561Y252932D01*
X213595Y253017D01*
X213599Y253058D01*
X213606Y253080D01*
X213605Y253112D01*
X213613Y253183D01*
X213613Y324667D01*
X213599Y324757D01*
X213591Y324848D01*
X213579Y324877D01*
X213574Y324909D01*
X213531Y324990D01*
X213495Y325074D01*
X213469Y325106D01*
X213458Y325127D01*
X213435Y325149D01*
X213390Y325205D01*
X210593Y328002D01*
X210593Y332398D01*
X213702Y335507D01*
X218098Y335507D01*
X221207Y332398D01*
X221207Y328002D01*
X218410Y325205D01*
X218357Y325131D01*
X218297Y325061D01*
X218285Y325031D01*
X218266Y325005D01*
X218239Y324918D01*
X218205Y324833D01*
X218201Y324792D01*
X218194Y324770D01*
X218195Y324738D01*
X218187Y324667D01*
X218187Y253183D01*
X218201Y253093D01*
X218209Y253002D01*
X218221Y252973D01*
X218226Y252941D01*
X218269Y252860D01*
X218305Y252776D01*
X218331Y252744D01*
X218342Y252723D01*
X218365Y252701D01*
X218410Y252645D01*
X221207Y249848D01*
X221207Y245452D01*
X218410Y242655D01*
X218357Y242581D01*
X218297Y242511D01*
X218285Y242481D01*
X218266Y242455D01*
X218239Y242368D01*
X218205Y242283D01*
X218201Y242242D01*
X218194Y242220D01*
X218195Y242188D01*
X218187Y242117D01*
X218187Y208733D01*
X218201Y208643D01*
X218209Y208552D01*
X218221Y208523D01*
X218226Y208491D01*
X218269Y208410D01*
X218305Y208326D01*
X218331Y208294D01*
X218342Y208273D01*
X218365Y208251D01*
X218410Y208195D01*
X221207Y205398D01*
X221207Y201002D01*
X218098Y197893D01*
X213702Y197893D01*
G37*
%LPD*%
%LPC*%
G36*
X511261Y67055D02*
X511261Y67055D01*
X507900Y68447D01*
X505327Y71020D01*
X503935Y74381D01*
X503935Y78019D01*
X505327Y81380D01*
X507900Y83953D01*
X511261Y85345D01*
X517652Y85345D01*
X517672Y85348D01*
X517691Y85346D01*
X517793Y85368D01*
X517895Y85384D01*
X517912Y85394D01*
X517932Y85398D01*
X518021Y85451D01*
X518112Y85500D01*
X518126Y85514D01*
X518143Y85524D01*
X518210Y85603D01*
X518282Y85678D01*
X518290Y85696D01*
X518303Y85711D01*
X518342Y85807D01*
X518385Y85901D01*
X518387Y85921D01*
X518395Y85939D01*
X518413Y86106D01*
X518413Y108767D01*
X518399Y108857D01*
X518391Y108948D01*
X518379Y108977D01*
X518374Y109009D01*
X518331Y109090D01*
X518295Y109174D01*
X518269Y109206D01*
X518258Y109227D01*
X518235Y109249D01*
X518190Y109305D01*
X515393Y112102D01*
X515393Y116498D01*
X518502Y119607D01*
X522898Y119607D01*
X526007Y116498D01*
X526007Y112102D01*
X523210Y109305D01*
X523157Y109231D01*
X523097Y109161D01*
X523085Y109131D01*
X523066Y109105D01*
X523039Y109018D01*
X523005Y108933D01*
X523001Y108892D01*
X522994Y108870D01*
X522995Y108838D01*
X522987Y108767D01*
X522987Y86106D01*
X522990Y86086D01*
X522988Y86067D01*
X523010Y85965D01*
X523026Y85863D01*
X523036Y85846D01*
X523040Y85826D01*
X523093Y85737D01*
X523142Y85646D01*
X523156Y85632D01*
X523166Y85615D01*
X523245Y85548D01*
X523320Y85476D01*
X523338Y85468D01*
X523353Y85455D01*
X523449Y85416D01*
X523543Y85373D01*
X523563Y85371D01*
X523581Y85363D01*
X523748Y85345D01*
X530139Y85345D01*
X533500Y83953D01*
X536073Y81380D01*
X537465Y78019D01*
X537465Y74381D01*
X536073Y71020D01*
X533500Y68447D01*
X530139Y67055D01*
X511261Y67055D01*
G37*
%LPD*%
%LPC*%
G36*
X117561Y67055D02*
X117561Y67055D01*
X114200Y68447D01*
X111627Y71020D01*
X110235Y74381D01*
X110235Y78019D01*
X111627Y81380D01*
X114200Y83953D01*
X117561Y85345D01*
X123952Y85345D01*
X123972Y85348D01*
X123991Y85346D01*
X124093Y85368D01*
X124195Y85384D01*
X124212Y85394D01*
X124232Y85398D01*
X124321Y85451D01*
X124412Y85500D01*
X124426Y85514D01*
X124443Y85524D01*
X124510Y85603D01*
X124582Y85678D01*
X124590Y85696D01*
X124603Y85711D01*
X124642Y85807D01*
X124685Y85901D01*
X124687Y85921D01*
X124695Y85939D01*
X124713Y86106D01*
X124713Y96067D01*
X124699Y96157D01*
X124691Y96248D01*
X124679Y96277D01*
X124674Y96309D01*
X124631Y96390D01*
X124595Y96474D01*
X124569Y96506D01*
X124558Y96527D01*
X124535Y96549D01*
X124490Y96605D01*
X121693Y99402D01*
X121693Y103798D01*
X124802Y106907D01*
X129198Y106907D01*
X132307Y103798D01*
X132307Y99402D01*
X129510Y96605D01*
X129457Y96531D01*
X129397Y96461D01*
X129385Y96431D01*
X129366Y96405D01*
X129339Y96318D01*
X129305Y96233D01*
X129301Y96192D01*
X129294Y96170D01*
X129295Y96138D01*
X129287Y96067D01*
X129287Y86106D01*
X129290Y86086D01*
X129288Y86067D01*
X129310Y85965D01*
X129326Y85863D01*
X129336Y85846D01*
X129340Y85826D01*
X129393Y85737D01*
X129442Y85646D01*
X129456Y85632D01*
X129466Y85615D01*
X129545Y85548D01*
X129620Y85476D01*
X129638Y85468D01*
X129653Y85455D01*
X129749Y85416D01*
X129843Y85373D01*
X129863Y85371D01*
X129881Y85363D01*
X130048Y85345D01*
X136439Y85345D01*
X139800Y83953D01*
X142373Y81380D01*
X143765Y78019D01*
X143765Y74381D01*
X142373Y71020D01*
X139800Y68447D01*
X136439Y67055D01*
X117561Y67055D01*
G37*
%LPD*%
%LPC*%
G36*
X549361Y41655D02*
X549361Y41655D01*
X546000Y43047D01*
X543427Y45620D01*
X542035Y48981D01*
X542035Y52619D01*
X543427Y55980D01*
X546000Y58553D01*
X549361Y59945D01*
X568239Y59945D01*
X571600Y58553D01*
X574173Y55980D01*
X575565Y52619D01*
X575565Y48981D01*
X574173Y45620D01*
X571600Y43047D01*
X568239Y41655D01*
X549361Y41655D01*
G37*
%LPD*%
%LPC*%
G36*
X473161Y67055D02*
X473161Y67055D01*
X469800Y68447D01*
X467227Y71020D01*
X465835Y74381D01*
X465835Y78019D01*
X467227Y81380D01*
X469800Y83953D01*
X473161Y85345D01*
X492039Y85345D01*
X495400Y83953D01*
X497973Y81380D01*
X499365Y78019D01*
X499365Y74381D01*
X497973Y71020D01*
X495400Y68447D01*
X492039Y67055D01*
X473161Y67055D01*
G37*
%LPD*%
%LPC*%
G36*
X117561Y41655D02*
X117561Y41655D01*
X114200Y43047D01*
X111627Y45620D01*
X110235Y48981D01*
X110235Y52619D01*
X111627Y55980D01*
X114200Y58553D01*
X117561Y59945D01*
X136439Y59945D01*
X139800Y58553D01*
X142373Y55980D01*
X143765Y52619D01*
X143765Y48981D01*
X142373Y45620D01*
X139800Y43047D01*
X136439Y41655D01*
X117561Y41655D01*
G37*
%LPD*%
%LPC*%
G36*
X511261Y41655D02*
X511261Y41655D01*
X507900Y43047D01*
X505327Y45620D01*
X503935Y48981D01*
X503935Y52619D01*
X505327Y55980D01*
X507900Y58553D01*
X511261Y59945D01*
X530139Y59945D01*
X533500Y58553D01*
X536073Y55980D01*
X537465Y52619D01*
X537465Y48981D01*
X536073Y45620D01*
X533500Y43047D01*
X530139Y41655D01*
X511261Y41655D01*
G37*
%LPD*%
%LPC*%
G36*
X473161Y41655D02*
X473161Y41655D01*
X469800Y43047D01*
X467227Y45620D01*
X465835Y48981D01*
X465835Y52619D01*
X467227Y55980D01*
X469800Y58553D01*
X473161Y59945D01*
X492039Y59945D01*
X495400Y58553D01*
X497973Y55980D01*
X499365Y52619D01*
X499365Y48981D01*
X497973Y45620D01*
X495400Y43047D01*
X492039Y41655D01*
X473161Y41655D01*
G37*
%LPD*%
%LPC*%
G36*
X366102Y83593D02*
X366102Y83593D01*
X362993Y86702D01*
X362993Y91098D01*
X365790Y93895D01*
X365843Y93969D01*
X365903Y94039D01*
X365915Y94069D01*
X365934Y94095D01*
X365961Y94182D01*
X365995Y94267D01*
X365999Y94308D01*
X366006Y94330D01*
X366005Y94362D01*
X366013Y94433D01*
X366013Y172267D01*
X365999Y172357D01*
X365991Y172448D01*
X365979Y172477D01*
X365974Y172509D01*
X365931Y172590D01*
X365895Y172674D01*
X365869Y172706D01*
X365858Y172727D01*
X365835Y172749D01*
X365790Y172805D01*
X362993Y175602D01*
X362993Y179998D01*
X366102Y183107D01*
X370498Y183107D01*
X373607Y179998D01*
X373607Y175602D01*
X370810Y172805D01*
X370762Y172739D01*
X370755Y172731D01*
X370753Y172727D01*
X370697Y172661D01*
X370685Y172631D01*
X370666Y172605D01*
X370639Y172518D01*
X370605Y172433D01*
X370601Y172392D01*
X370594Y172370D01*
X370595Y172338D01*
X370587Y172267D01*
X370587Y94433D01*
X370601Y94343D01*
X370609Y94252D01*
X370621Y94223D01*
X370626Y94191D01*
X370669Y94110D01*
X370705Y94026D01*
X370731Y93994D01*
X370742Y93973D01*
X370765Y93951D01*
X370810Y93895D01*
X373607Y91098D01*
X373607Y86702D01*
X370498Y83593D01*
X366102Y83593D01*
G37*
%LPD*%
%LPC*%
G36*
X227672Y223293D02*
X227672Y223293D01*
X224563Y226402D01*
X224563Y230798D01*
X227360Y233595D01*
X227413Y233669D01*
X227473Y233739D01*
X227485Y233769D01*
X227504Y233795D01*
X227531Y233882D01*
X227565Y233967D01*
X227569Y234008D01*
X227576Y234030D01*
X227575Y234062D01*
X227583Y234133D01*
X227583Y267517D01*
X227569Y267607D01*
X227561Y267698D01*
X227549Y267727D01*
X227544Y267759D01*
X227501Y267840D01*
X227465Y267924D01*
X227439Y267956D01*
X227428Y267977D01*
X227405Y267999D01*
X227360Y268055D01*
X224563Y270852D01*
X224563Y275248D01*
X227360Y278045D01*
X227413Y278119D01*
X227473Y278189D01*
X227485Y278219D01*
X227504Y278245D01*
X227531Y278332D01*
X227565Y278417D01*
X227569Y278458D01*
X227576Y278480D01*
X227575Y278512D01*
X227583Y278583D01*
X227583Y301807D01*
X227569Y301897D01*
X227561Y301988D01*
X227549Y302017D01*
X227544Y302049D01*
X227501Y302130D01*
X227465Y302214D01*
X227439Y302246D01*
X227428Y302267D01*
X227405Y302289D01*
X227360Y302345D01*
X224563Y305142D01*
X224563Y309538D01*
X227672Y312647D01*
X232068Y312647D01*
X235177Y309538D01*
X235177Y305142D01*
X232380Y302345D01*
X232327Y302271D01*
X232267Y302201D01*
X232255Y302171D01*
X232236Y302145D01*
X232209Y302058D01*
X232175Y301973D01*
X232171Y301932D01*
X232164Y301910D01*
X232165Y301878D01*
X232157Y301807D01*
X232157Y278583D01*
X232171Y278493D01*
X232179Y278402D01*
X232191Y278373D01*
X232196Y278341D01*
X232239Y278260D01*
X232275Y278176D01*
X232301Y278144D01*
X232312Y278123D01*
X232335Y278101D01*
X232380Y278045D01*
X235177Y275248D01*
X235177Y270852D01*
X232380Y268055D01*
X232327Y267981D01*
X232267Y267911D01*
X232255Y267881D01*
X232236Y267855D01*
X232209Y267768D01*
X232175Y267683D01*
X232171Y267642D01*
X232164Y267620D01*
X232165Y267588D01*
X232157Y267517D01*
X232157Y234133D01*
X232171Y234043D01*
X232179Y233952D01*
X232191Y233923D01*
X232196Y233891D01*
X232239Y233810D01*
X232275Y233726D01*
X232301Y233694D01*
X232312Y233673D01*
X232335Y233651D01*
X232380Y233595D01*
X235177Y230798D01*
X235177Y226402D01*
X232068Y223293D01*
X227672Y223293D01*
G37*
%LPD*%
%LPC*%
G36*
X302602Y83593D02*
X302602Y83593D01*
X299493Y86702D01*
X299493Y91098D01*
X302290Y93895D01*
X302343Y93969D01*
X302403Y94039D01*
X302415Y94069D01*
X302434Y94095D01*
X302461Y94182D01*
X302495Y94267D01*
X302499Y94308D01*
X302506Y94330D01*
X302505Y94362D01*
X302513Y94433D01*
X302513Y159567D01*
X302499Y159657D01*
X302491Y159748D01*
X302479Y159777D01*
X302474Y159809D01*
X302431Y159890D01*
X302395Y159974D01*
X302369Y160006D01*
X302358Y160027D01*
X302335Y160049D01*
X302290Y160105D01*
X299493Y162902D01*
X299493Y167298D01*
X302602Y170407D01*
X306998Y170407D01*
X310107Y167298D01*
X310107Y162902D01*
X307310Y160105D01*
X307257Y160031D01*
X307197Y159961D01*
X307185Y159931D01*
X307166Y159905D01*
X307139Y159818D01*
X307105Y159733D01*
X307101Y159692D01*
X307094Y159670D01*
X307095Y159638D01*
X307087Y159567D01*
X307087Y94433D01*
X307101Y94343D01*
X307109Y94252D01*
X307121Y94223D01*
X307126Y94191D01*
X307169Y94110D01*
X307205Y94026D01*
X307231Y93994D01*
X307242Y93973D01*
X307265Y93951D01*
X307310Y93895D01*
X310107Y91098D01*
X310107Y86702D01*
X306998Y83593D01*
X302602Y83593D01*
G37*
%LPD*%
%LPC*%
G36*
X155282Y302033D02*
X155282Y302033D01*
X152173Y305142D01*
X152173Y309538D01*
X154970Y312335D01*
X155023Y312409D01*
X155083Y312479D01*
X155095Y312509D01*
X155114Y312535D01*
X155141Y312622D01*
X155175Y312707D01*
X155179Y312748D01*
X155186Y312770D01*
X155185Y312802D01*
X155193Y312873D01*
X155193Y319916D01*
X155174Y320030D01*
X155157Y320147D01*
X155155Y320152D01*
X155154Y320158D01*
X155099Y320261D01*
X155046Y320366D01*
X155041Y320370D01*
X155038Y320376D01*
X154954Y320456D01*
X154870Y320538D01*
X154864Y320542D01*
X154860Y320545D01*
X154843Y320553D01*
X154723Y320619D01*
X151868Y321801D01*
X149081Y324588D01*
X147573Y328229D01*
X147573Y332171D01*
X149081Y335812D01*
X151868Y338599D01*
X155509Y340107D01*
X159451Y340107D01*
X163092Y338599D01*
X165879Y335812D01*
X167387Y332171D01*
X167387Y328229D01*
X165879Y324588D01*
X163092Y321801D01*
X160237Y320619D01*
X160137Y320557D01*
X160037Y320497D01*
X160033Y320493D01*
X160028Y320489D01*
X159953Y320399D01*
X159877Y320310D01*
X159875Y320305D01*
X159871Y320300D01*
X159829Y320191D01*
X159785Y320082D01*
X159784Y320075D01*
X159783Y320070D01*
X159782Y320052D01*
X159767Y319916D01*
X159767Y312873D01*
X159781Y312783D01*
X159789Y312692D01*
X159801Y312663D01*
X159806Y312631D01*
X159849Y312550D01*
X159885Y312466D01*
X159911Y312434D01*
X159922Y312413D01*
X159945Y312391D01*
X159990Y312335D01*
X162787Y309538D01*
X162787Y305142D01*
X159678Y302033D01*
X155282Y302033D01*
G37*
%LPD*%
%LPC*%
G36*
X682676Y39115D02*
X682676Y39115D01*
X678381Y40894D01*
X675094Y44181D01*
X673315Y48476D01*
X673315Y53124D01*
X675094Y57419D01*
X678381Y60706D01*
X682676Y62485D01*
X687324Y62485D01*
X691619Y60706D01*
X694906Y57419D01*
X696685Y53124D01*
X696685Y48476D01*
X694906Y44181D01*
X691619Y40894D01*
X687324Y39115D01*
X682676Y39115D01*
G37*
%LPD*%
%LPC*%
G36*
X417332Y346709D02*
X417332Y346709D01*
X414064Y348063D01*
X411563Y350564D01*
X410209Y353832D01*
X410209Y357368D01*
X411563Y360636D01*
X414064Y363137D01*
X416343Y364081D01*
X416443Y364143D01*
X416543Y364203D01*
X416547Y364208D01*
X416552Y364211D01*
X416627Y364301D01*
X416703Y364390D01*
X416705Y364396D01*
X416709Y364400D01*
X416751Y364509D01*
X416795Y364618D01*
X416796Y364626D01*
X416797Y364630D01*
X416798Y364648D01*
X416813Y364785D01*
X416813Y375467D01*
X416799Y375557D01*
X416791Y375648D01*
X416779Y375677D01*
X416774Y375709D01*
X416731Y375790D01*
X416695Y375874D01*
X416669Y375906D01*
X416658Y375927D01*
X416635Y375949D01*
X416590Y376005D01*
X413793Y378802D01*
X413793Y383198D01*
X416902Y386307D01*
X421298Y386307D01*
X424407Y383198D01*
X424407Y378802D01*
X421610Y376005D01*
X421557Y375931D01*
X421497Y375861D01*
X421485Y375831D01*
X421466Y375805D01*
X421439Y375718D01*
X421405Y375633D01*
X421401Y375592D01*
X421394Y375570D01*
X421395Y375538D01*
X421387Y375467D01*
X421387Y364785D01*
X421406Y364670D01*
X421423Y364554D01*
X421425Y364548D01*
X421426Y364542D01*
X421481Y364439D01*
X421534Y364335D01*
X421539Y364330D01*
X421542Y364325D01*
X421626Y364245D01*
X421710Y364162D01*
X421716Y364159D01*
X421720Y364155D01*
X421737Y364147D01*
X421857Y364081D01*
X424136Y363137D01*
X426637Y360636D01*
X427991Y357368D01*
X427991Y353832D01*
X426637Y350564D01*
X424136Y348063D01*
X420868Y346709D01*
X417332Y346709D01*
G37*
%LPD*%
%LPC*%
G36*
X493127Y433577D02*
X493127Y433577D01*
X489113Y435240D01*
X486040Y438313D01*
X484377Y442327D01*
X484377Y446673D01*
X486040Y450687D01*
X489113Y453760D01*
X493127Y455423D01*
X497473Y455423D01*
X501487Y453760D01*
X504560Y450687D01*
X506223Y446673D01*
X506223Y442327D01*
X504560Y438313D01*
X501487Y435240D01*
X497473Y433577D01*
X493127Y433577D01*
G37*
%LPD*%
%LPC*%
G36*
X645527Y433577D02*
X645527Y433577D01*
X641513Y435240D01*
X638440Y438313D01*
X636777Y442327D01*
X636777Y446673D01*
X638440Y450687D01*
X641513Y453760D01*
X645527Y455423D01*
X649873Y455423D01*
X653887Y453760D01*
X656960Y450687D01*
X658623Y446673D01*
X658623Y442327D01*
X656960Y438313D01*
X653887Y435240D01*
X649873Y433577D01*
X645527Y433577D01*
G37*
%LPD*%
%LPC*%
G36*
X175627Y109727D02*
X175627Y109727D01*
X171613Y111390D01*
X168540Y114463D01*
X166877Y118477D01*
X166877Y122823D01*
X168540Y126837D01*
X171613Y129910D01*
X175627Y131573D01*
X179973Y131573D01*
X183987Y129910D01*
X187060Y126837D01*
X188723Y122823D01*
X188723Y118477D01*
X187060Y114463D01*
X183987Y111390D01*
X179973Y109727D01*
X175627Y109727D01*
G37*
%LPD*%
%LPC*%
G36*
X670927Y433577D02*
X670927Y433577D01*
X666913Y435240D01*
X663840Y438313D01*
X662177Y442327D01*
X662177Y446673D01*
X663840Y450687D01*
X666913Y453760D01*
X670927Y455423D01*
X675273Y455423D01*
X679287Y453760D01*
X682360Y450687D01*
X684023Y446673D01*
X684023Y442327D01*
X682360Y438313D01*
X679287Y435240D01*
X675273Y433577D01*
X670927Y433577D01*
G37*
%LPD*%
%LPC*%
G36*
X696327Y433577D02*
X696327Y433577D01*
X692313Y435240D01*
X689240Y438313D01*
X687577Y442327D01*
X687577Y446673D01*
X689240Y450687D01*
X692313Y453760D01*
X696327Y455423D01*
X700673Y455423D01*
X704687Y453760D01*
X707760Y450687D01*
X709423Y446673D01*
X709423Y442327D01*
X707760Y438313D01*
X704687Y435240D01*
X700673Y433577D01*
X696327Y433577D01*
G37*
%LPD*%
%LPC*%
G36*
X175627Y262127D02*
X175627Y262127D01*
X171613Y263790D01*
X168540Y266863D01*
X166877Y270877D01*
X166877Y275223D01*
X168540Y279237D01*
X171613Y282310D01*
X175627Y283973D01*
X179973Y283973D01*
X183987Y282310D01*
X187060Y279237D01*
X188723Y275223D01*
X188723Y270877D01*
X187060Y266863D01*
X183987Y263790D01*
X179973Y262127D01*
X175627Y262127D01*
G37*
%LPD*%
%LPC*%
G36*
X175627Y211327D02*
X175627Y211327D01*
X171613Y212990D01*
X168540Y216063D01*
X166877Y220077D01*
X166877Y224423D01*
X168540Y228437D01*
X171613Y231510D01*
X175627Y233173D01*
X179973Y233173D01*
X183987Y231510D01*
X187060Y228437D01*
X188723Y224423D01*
X188723Y220077D01*
X187060Y216063D01*
X183987Y212990D01*
X179973Y211327D01*
X175627Y211327D01*
G37*
%LPD*%
%LPC*%
G36*
X175627Y160527D02*
X175627Y160527D01*
X171613Y162190D01*
X168540Y165263D01*
X166877Y169277D01*
X166877Y173623D01*
X168540Y177637D01*
X171613Y180710D01*
X175627Y182373D01*
X179973Y182373D01*
X183987Y180710D01*
X187060Y177637D01*
X188723Y173623D01*
X188723Y169277D01*
X187060Y165263D01*
X183987Y162190D01*
X179973Y160527D01*
X175627Y160527D01*
G37*
%LPD*%
%LPC*%
G36*
X175627Y236727D02*
X175627Y236727D01*
X171613Y238390D01*
X168540Y241463D01*
X166877Y245477D01*
X166877Y249823D01*
X168540Y253837D01*
X171613Y256910D01*
X175627Y258573D01*
X179973Y258573D01*
X183987Y256910D01*
X187060Y253837D01*
X188723Y249823D01*
X188723Y245477D01*
X187060Y241463D01*
X183987Y238390D01*
X179973Y236727D01*
X175627Y236727D01*
G37*
%LPD*%
%LPC*%
G36*
X175627Y185927D02*
X175627Y185927D01*
X171613Y187590D01*
X168540Y190663D01*
X166877Y194677D01*
X166877Y199023D01*
X168540Y203037D01*
X171613Y206110D01*
X175627Y207773D01*
X179973Y207773D01*
X183987Y206110D01*
X187060Y203037D01*
X188723Y199023D01*
X188723Y194677D01*
X187060Y190663D01*
X183987Y187590D01*
X179973Y185927D01*
X175627Y185927D01*
G37*
%LPD*%
%LPC*%
G36*
X378802Y108993D02*
X378802Y108993D01*
X375693Y112102D01*
X375693Y116498D01*
X378490Y119295D01*
X378543Y119369D01*
X378603Y119439D01*
X378615Y119469D01*
X378634Y119495D01*
X378661Y119582D01*
X378695Y119667D01*
X378699Y119708D01*
X378706Y119730D01*
X378705Y119762D01*
X378713Y119833D01*
X378713Y146867D01*
X378699Y146957D01*
X378691Y147048D01*
X378679Y147077D01*
X378674Y147109D01*
X378631Y147190D01*
X378595Y147274D01*
X378569Y147306D01*
X378558Y147327D01*
X378535Y147349D01*
X378490Y147405D01*
X375693Y150202D01*
X375693Y154598D01*
X378802Y157707D01*
X383198Y157707D01*
X386307Y154598D01*
X386307Y150202D01*
X383510Y147405D01*
X383457Y147331D01*
X383397Y147261D01*
X383385Y147231D01*
X383366Y147205D01*
X383339Y147118D01*
X383305Y147033D01*
X383301Y146992D01*
X383294Y146970D01*
X383295Y146938D01*
X383287Y146867D01*
X383287Y119833D01*
X383301Y119743D01*
X383309Y119652D01*
X383321Y119623D01*
X383326Y119591D01*
X383369Y119510D01*
X383405Y119426D01*
X383431Y119394D01*
X383442Y119373D01*
X383465Y119351D01*
X383510Y119295D01*
X386307Y116498D01*
X386307Y112102D01*
X383198Y108993D01*
X378802Y108993D01*
G37*
%LPD*%
%LPC*%
G36*
X104709Y421893D02*
X104709Y421893D01*
X101068Y423401D01*
X98281Y426188D01*
X96773Y429829D01*
X96773Y433771D01*
X98281Y437412D01*
X101068Y440199D01*
X104709Y441707D01*
X108651Y441707D01*
X112292Y440199D01*
X115079Y437412D01*
X116587Y433771D01*
X116587Y429829D01*
X115079Y426188D01*
X112292Y423401D01*
X108651Y421893D01*
X104709Y421893D01*
G37*
%LPD*%
%LPC*%
G36*
X104709Y371093D02*
X104709Y371093D01*
X101068Y372601D01*
X98281Y375388D01*
X96773Y379029D01*
X96773Y382971D01*
X98281Y386612D01*
X101068Y389399D01*
X104709Y390907D01*
X108651Y390907D01*
X112292Y389399D01*
X115079Y386612D01*
X116587Y382971D01*
X116587Y379029D01*
X115079Y375388D01*
X112292Y372601D01*
X108651Y371093D01*
X104709Y371093D01*
G37*
%LPD*%
%LPC*%
G36*
X180909Y320293D02*
X180909Y320293D01*
X177268Y321801D01*
X174481Y324588D01*
X172973Y328229D01*
X172973Y332171D01*
X174481Y335812D01*
X177268Y338599D01*
X180909Y340107D01*
X184851Y340107D01*
X188492Y338599D01*
X191279Y335812D01*
X192787Y332171D01*
X192787Y328229D01*
X191279Y324588D01*
X188492Y321801D01*
X184851Y320293D01*
X180909Y320293D01*
G37*
%LPD*%
%LPC*%
G36*
X130109Y320293D02*
X130109Y320293D01*
X126468Y321801D01*
X123681Y324588D01*
X122173Y328229D01*
X122173Y332171D01*
X123681Y335812D01*
X126468Y338599D01*
X130109Y340107D01*
X134051Y340107D01*
X137692Y338599D01*
X140479Y335812D01*
X141987Y332171D01*
X141987Y328229D01*
X140479Y324588D01*
X137692Y321801D01*
X134051Y320293D01*
X130109Y320293D01*
G37*
%LPD*%
%LPC*%
G36*
X104709Y472693D02*
X104709Y472693D01*
X101068Y474201D01*
X98281Y476988D01*
X96773Y480629D01*
X96773Y484571D01*
X98281Y488212D01*
X101068Y490999D01*
X104709Y492507D01*
X108651Y492507D01*
X112292Y490999D01*
X115079Y488212D01*
X116587Y484571D01*
X116587Y480629D01*
X115079Y476988D01*
X112292Y474201D01*
X108651Y472693D01*
X104709Y472693D01*
G37*
%LPD*%
%LPC*%
G36*
X130109Y472693D02*
X130109Y472693D01*
X126468Y474201D01*
X123681Y476988D01*
X122173Y480629D01*
X122173Y484571D01*
X123681Y488212D01*
X126468Y490999D01*
X130109Y492507D01*
X134051Y492507D01*
X137692Y490999D01*
X140479Y488212D01*
X141987Y484571D01*
X141987Y480629D01*
X140479Y476988D01*
X137692Y474201D01*
X134051Y472693D01*
X130109Y472693D01*
G37*
%LPD*%
%LPC*%
G36*
X180909Y472693D02*
X180909Y472693D01*
X177268Y474201D01*
X174481Y476988D01*
X172973Y480629D01*
X172973Y484571D01*
X174481Y488212D01*
X177268Y490999D01*
X180909Y492507D01*
X184851Y492507D01*
X188492Y490999D01*
X191279Y488212D01*
X192787Y484571D01*
X192787Y480629D01*
X191279Y476988D01*
X188492Y474201D01*
X184851Y472693D01*
X180909Y472693D01*
G37*
%LPD*%
%LPC*%
G36*
X213702Y96293D02*
X213702Y96293D01*
X210593Y99402D01*
X210593Y103798D01*
X213390Y106595D01*
X213443Y106669D01*
X213503Y106739D01*
X213515Y106769D01*
X213534Y106795D01*
X213561Y106882D01*
X213595Y106967D01*
X213599Y107008D01*
X213606Y107030D01*
X213605Y107062D01*
X213613Y107133D01*
X213613Y121467D01*
X213599Y121557D01*
X213591Y121648D01*
X213579Y121677D01*
X213574Y121709D01*
X213531Y121790D01*
X213495Y121874D01*
X213469Y121906D01*
X213458Y121927D01*
X213435Y121949D01*
X213390Y122005D01*
X210593Y124802D01*
X210593Y129198D01*
X213702Y132307D01*
X218098Y132307D01*
X221207Y129198D01*
X221207Y124802D01*
X218410Y122005D01*
X218357Y121931D01*
X218297Y121861D01*
X218285Y121831D01*
X218266Y121805D01*
X218239Y121718D01*
X218205Y121633D01*
X218201Y121592D01*
X218194Y121570D01*
X218195Y121538D01*
X218187Y121467D01*
X218187Y107133D01*
X218201Y107043D01*
X218209Y106952D01*
X218221Y106923D01*
X218226Y106891D01*
X218269Y106810D01*
X218305Y106726D01*
X218331Y106694D01*
X218342Y106673D01*
X218365Y106651D01*
X218410Y106595D01*
X221207Y103798D01*
X221207Y99402D01*
X218098Y96293D01*
X213702Y96293D01*
G37*
%LPD*%
%LPC*%
G36*
X315732Y346709D02*
X315732Y346709D01*
X312464Y348063D01*
X309963Y350564D01*
X308609Y353832D01*
X308609Y357368D01*
X309963Y360636D01*
X312464Y363137D01*
X315732Y364491D01*
X319268Y364491D01*
X322536Y363137D01*
X325037Y360636D01*
X326391Y357368D01*
X326391Y353832D01*
X325037Y350564D01*
X322536Y348063D01*
X319268Y346709D01*
X315732Y346709D01*
G37*
%LPD*%
%LPC*%
G36*
X290332Y346709D02*
X290332Y346709D01*
X287064Y348063D01*
X284563Y350564D01*
X283209Y353832D01*
X283209Y357368D01*
X284563Y360636D01*
X287064Y363137D01*
X290332Y364491D01*
X293868Y364491D01*
X297136Y363137D01*
X299637Y360636D01*
X300991Y357368D01*
X300991Y353832D01*
X299637Y350564D01*
X297136Y348063D01*
X293868Y346709D01*
X290332Y346709D01*
G37*
%LPD*%
%LPC*%
G36*
X264932Y346709D02*
X264932Y346709D01*
X261664Y348063D01*
X259163Y350564D01*
X257809Y353832D01*
X257809Y357368D01*
X259163Y360636D01*
X261664Y363137D01*
X264932Y364491D01*
X268468Y364491D01*
X271736Y363137D01*
X274237Y360636D01*
X275591Y357368D01*
X275591Y353832D01*
X274237Y350564D01*
X271736Y348063D01*
X268468Y346709D01*
X264932Y346709D01*
G37*
%LPD*%
%LPC*%
G36*
X417332Y321309D02*
X417332Y321309D01*
X414064Y322663D01*
X411563Y325164D01*
X410209Y328432D01*
X410209Y331968D01*
X411563Y335236D01*
X414064Y337737D01*
X417332Y339091D01*
X420868Y339091D01*
X424136Y337737D01*
X426637Y335236D01*
X427991Y331968D01*
X427991Y328432D01*
X426637Y325164D01*
X424136Y322663D01*
X420868Y321309D01*
X417332Y321309D01*
G37*
%LPD*%
%LPC*%
G36*
X264932Y321309D02*
X264932Y321309D01*
X261664Y322663D01*
X259163Y325164D01*
X257809Y328432D01*
X257809Y331968D01*
X259163Y335236D01*
X261664Y337737D01*
X264932Y339091D01*
X268468Y339091D01*
X271736Y337737D01*
X274237Y335236D01*
X275591Y331968D01*
X275591Y328432D01*
X274237Y325164D01*
X271736Y322663D01*
X268468Y321309D01*
X264932Y321309D01*
G37*
%LPD*%
%LPC*%
G36*
X264932Y194309D02*
X264932Y194309D01*
X261664Y195663D01*
X259163Y198164D01*
X257809Y201432D01*
X257809Y204968D01*
X259163Y208236D01*
X261664Y210737D01*
X264932Y212091D01*
X268468Y212091D01*
X271736Y210737D01*
X274237Y208236D01*
X275591Y204968D01*
X275591Y201432D01*
X274237Y198164D01*
X271736Y195663D01*
X268468Y194309D01*
X264932Y194309D01*
G37*
%LPD*%
%LPC*%
G36*
X417332Y295909D02*
X417332Y295909D01*
X414064Y297263D01*
X411563Y299764D01*
X410209Y303032D01*
X410209Y306568D01*
X411563Y309836D01*
X414064Y312337D01*
X417332Y313691D01*
X420868Y313691D01*
X424136Y312337D01*
X426637Y309836D01*
X427991Y306568D01*
X427991Y303032D01*
X426637Y299764D01*
X424136Y297263D01*
X420868Y295909D01*
X417332Y295909D01*
G37*
%LPD*%
%LPC*%
G36*
X264932Y295909D02*
X264932Y295909D01*
X261664Y297263D01*
X259163Y299764D01*
X257809Y303032D01*
X257809Y306568D01*
X259163Y309836D01*
X261664Y312337D01*
X264932Y313691D01*
X268468Y313691D01*
X271736Y312337D01*
X274237Y309836D01*
X275591Y306568D01*
X275591Y303032D01*
X274237Y299764D01*
X271736Y297263D01*
X268468Y295909D01*
X264932Y295909D01*
G37*
%LPD*%
%LPC*%
G36*
X417332Y270509D02*
X417332Y270509D01*
X414064Y271863D01*
X411563Y274364D01*
X410209Y277632D01*
X410209Y281168D01*
X411563Y284436D01*
X414064Y286937D01*
X417332Y288291D01*
X420868Y288291D01*
X424136Y286937D01*
X426637Y284436D01*
X427991Y281168D01*
X427991Y277632D01*
X426637Y274364D01*
X424136Y271863D01*
X420868Y270509D01*
X417332Y270509D01*
G37*
%LPD*%
%LPC*%
G36*
X264932Y270509D02*
X264932Y270509D01*
X261664Y271863D01*
X259163Y274364D01*
X257809Y277632D01*
X257809Y281168D01*
X259163Y284436D01*
X261664Y286937D01*
X264932Y288291D01*
X268468Y288291D01*
X271736Y286937D01*
X274237Y284436D01*
X275591Y281168D01*
X275591Y277632D01*
X274237Y274364D01*
X271736Y271863D01*
X268468Y270509D01*
X264932Y270509D01*
G37*
%LPD*%
%LPC*%
G36*
X264932Y245109D02*
X264932Y245109D01*
X261664Y246463D01*
X259163Y248964D01*
X257809Y252232D01*
X257809Y255768D01*
X259163Y259036D01*
X261664Y261537D01*
X264932Y262891D01*
X268468Y262891D01*
X271736Y261537D01*
X274237Y259036D01*
X275591Y255768D01*
X275591Y252232D01*
X274237Y248964D01*
X271736Y246463D01*
X268468Y245109D01*
X264932Y245109D01*
G37*
%LPD*%
%LPC*%
G36*
X417332Y219709D02*
X417332Y219709D01*
X414064Y221063D01*
X411563Y223564D01*
X410209Y226832D01*
X410209Y230368D01*
X411563Y233636D01*
X414064Y236137D01*
X417332Y237491D01*
X420868Y237491D01*
X424136Y236137D01*
X426637Y233636D01*
X427991Y230368D01*
X427991Y226832D01*
X426637Y223564D01*
X424136Y221063D01*
X420868Y219709D01*
X417332Y219709D01*
G37*
%LPD*%
%LPC*%
G36*
X264932Y219709D02*
X264932Y219709D01*
X261664Y221063D01*
X259163Y223564D01*
X257809Y226832D01*
X257809Y230368D01*
X259163Y233636D01*
X261664Y236137D01*
X264932Y237491D01*
X268468Y237491D01*
X271736Y236137D01*
X274237Y233636D01*
X275591Y230368D01*
X275591Y226832D01*
X274237Y223564D01*
X271736Y221063D01*
X268468Y219709D01*
X264932Y219709D01*
G37*
%LPD*%
%LPC*%
G36*
X417332Y194309D02*
X417332Y194309D01*
X414064Y195663D01*
X411563Y198164D01*
X410209Y201432D01*
X410209Y204968D01*
X411563Y208236D01*
X414064Y210737D01*
X417332Y212091D01*
X420868Y212091D01*
X424136Y210737D01*
X426637Y208236D01*
X427991Y204968D01*
X427991Y201432D01*
X426637Y198164D01*
X424136Y195663D01*
X420868Y194309D01*
X417332Y194309D01*
G37*
%LPD*%
%LPC*%
G36*
X417332Y118109D02*
X417332Y118109D01*
X414064Y119463D01*
X411563Y121964D01*
X410209Y125232D01*
X410209Y128768D01*
X411563Y132036D01*
X414064Y134537D01*
X417332Y135891D01*
X420868Y135891D01*
X424136Y134537D01*
X426637Y132036D01*
X427991Y128768D01*
X427991Y125232D01*
X426637Y121964D01*
X424136Y119463D01*
X420868Y118109D01*
X417332Y118109D01*
G37*
%LPD*%
%LPC*%
G36*
X417332Y168909D02*
X417332Y168909D01*
X414064Y170263D01*
X411563Y172764D01*
X410209Y176032D01*
X410209Y179568D01*
X411563Y182836D01*
X414064Y185337D01*
X417332Y186691D01*
X420868Y186691D01*
X424136Y185337D01*
X426637Y182836D01*
X427991Y179568D01*
X427991Y176032D01*
X426637Y172764D01*
X424136Y170263D01*
X420868Y168909D01*
X417332Y168909D01*
G37*
%LPD*%
%LPC*%
G36*
X264932Y168909D02*
X264932Y168909D01*
X261664Y170263D01*
X259163Y172764D01*
X257809Y176032D01*
X257809Y179568D01*
X259163Y182836D01*
X261664Y185337D01*
X264932Y186691D01*
X268468Y186691D01*
X271736Y185337D01*
X274237Y182836D01*
X275591Y179568D01*
X275591Y176032D01*
X274237Y172764D01*
X271736Y170263D01*
X268468Y168909D01*
X264932Y168909D01*
G37*
%LPD*%
%LPC*%
G36*
X417332Y143509D02*
X417332Y143509D01*
X414064Y144863D01*
X411563Y147364D01*
X410209Y150632D01*
X410209Y154168D01*
X411563Y157436D01*
X414064Y159937D01*
X417332Y161291D01*
X420868Y161291D01*
X424136Y159937D01*
X426637Y157436D01*
X427991Y154168D01*
X427991Y150632D01*
X426637Y147364D01*
X424136Y144863D01*
X420868Y143509D01*
X417332Y143509D01*
G37*
%LPD*%
%LPC*%
G36*
X264932Y143509D02*
X264932Y143509D01*
X261664Y144863D01*
X259163Y147364D01*
X257809Y150632D01*
X257809Y154168D01*
X259163Y157436D01*
X261664Y159937D01*
X264932Y161291D01*
X268468Y161291D01*
X271736Y159937D01*
X274237Y157436D01*
X275591Y154168D01*
X275591Y150632D01*
X274237Y147364D01*
X271736Y144863D01*
X268468Y143509D01*
X264932Y143509D01*
G37*
%LPD*%
%LPC*%
G36*
X264932Y118109D02*
X264932Y118109D01*
X261664Y119463D01*
X259163Y121964D01*
X257809Y125232D01*
X257809Y128768D01*
X259163Y132036D01*
X261664Y134537D01*
X264932Y135891D01*
X268468Y135891D01*
X271736Y134537D01*
X274237Y132036D01*
X275591Y128768D01*
X275591Y125232D01*
X274237Y121964D01*
X271736Y119463D01*
X268468Y118109D01*
X264932Y118109D01*
G37*
%LPD*%
%LPC*%
G36*
X417332Y92709D02*
X417332Y92709D01*
X414064Y94063D01*
X411563Y96564D01*
X410209Y99832D01*
X410209Y103368D01*
X411563Y106636D01*
X414064Y109137D01*
X417332Y110491D01*
X420868Y110491D01*
X424136Y109137D01*
X426637Y106636D01*
X427991Y103368D01*
X427991Y99832D01*
X426637Y96564D01*
X424136Y94063D01*
X420868Y92709D01*
X417332Y92709D01*
G37*
%LPD*%
%LPC*%
G36*
X417332Y67309D02*
X417332Y67309D01*
X414064Y68663D01*
X411563Y71164D01*
X410209Y74432D01*
X410209Y77968D01*
X411563Y81236D01*
X414064Y83737D01*
X417332Y85091D01*
X420868Y85091D01*
X424136Y83737D01*
X426637Y81236D01*
X427991Y77968D01*
X427991Y74432D01*
X426637Y71164D01*
X424136Y68663D01*
X420868Y67309D01*
X417332Y67309D01*
G37*
%LPD*%
%LPC*%
G36*
X264932Y67309D02*
X264932Y67309D01*
X261664Y68663D01*
X259163Y71164D01*
X257809Y74432D01*
X257809Y77968D01*
X259163Y81236D01*
X261664Y83737D01*
X264932Y85091D01*
X268468Y85091D01*
X271736Y83737D01*
X274237Y81236D01*
X275591Y77968D01*
X275591Y74432D01*
X274237Y71164D01*
X271736Y68663D01*
X268468Y67309D01*
X264932Y67309D01*
G37*
%LPD*%
%LPC*%
G36*
X391932Y346709D02*
X391932Y346709D01*
X388664Y348063D01*
X386163Y350564D01*
X384809Y353832D01*
X384809Y357368D01*
X386163Y360636D01*
X388664Y363137D01*
X391932Y364491D01*
X395468Y364491D01*
X398736Y363137D01*
X401237Y360636D01*
X402591Y357368D01*
X402591Y353832D01*
X401237Y350564D01*
X398736Y348063D01*
X395468Y346709D01*
X391932Y346709D01*
G37*
%LPD*%
%LPC*%
G36*
X366532Y346709D02*
X366532Y346709D01*
X363264Y348063D01*
X360763Y350564D01*
X359409Y353832D01*
X359409Y357368D01*
X360763Y360636D01*
X363264Y363137D01*
X366532Y364491D01*
X370068Y364491D01*
X373336Y363137D01*
X375837Y360636D01*
X377191Y357368D01*
X377191Y353832D01*
X375837Y350564D01*
X373336Y348063D01*
X370068Y346709D01*
X366532Y346709D01*
G37*
%LPD*%
%LPC*%
G36*
X417332Y41909D02*
X417332Y41909D01*
X414064Y43263D01*
X411563Y45764D01*
X410209Y49032D01*
X410209Y52568D01*
X411563Y55836D01*
X414064Y58337D01*
X417332Y59691D01*
X420868Y59691D01*
X424136Y58337D01*
X426637Y55836D01*
X427991Y52568D01*
X427991Y49032D01*
X426637Y45764D01*
X424136Y43263D01*
X420868Y41909D01*
X417332Y41909D01*
G37*
%LPD*%
%LPC*%
G36*
X264932Y41909D02*
X264932Y41909D01*
X261664Y43263D01*
X259163Y45764D01*
X257809Y49032D01*
X257809Y52568D01*
X259163Y55836D01*
X261664Y58337D01*
X264932Y59691D01*
X268468Y59691D01*
X271736Y58337D01*
X274237Y55836D01*
X275591Y52568D01*
X275591Y49032D01*
X274237Y45764D01*
X271736Y43263D01*
X268468Y41909D01*
X264932Y41909D01*
G37*
%LPD*%
%LPC*%
G36*
X264932Y16509D02*
X264932Y16509D01*
X261664Y17863D01*
X259163Y20364D01*
X257809Y23632D01*
X257809Y27168D01*
X259163Y30436D01*
X261664Y32937D01*
X264932Y34291D01*
X268468Y34291D01*
X271736Y32937D01*
X274237Y30436D01*
X275591Y27168D01*
X275591Y23632D01*
X274237Y20364D01*
X271736Y17863D01*
X268468Y16509D01*
X264932Y16509D01*
G37*
%LPD*%
%LPC*%
G36*
X636523Y52323D02*
X636523Y52323D01*
X636523Y63501D01*
X645494Y63501D01*
X646141Y63328D01*
X646720Y62993D01*
X647193Y62520D01*
X647528Y61941D01*
X647701Y61294D01*
X647701Y52323D01*
X636523Y52323D01*
G37*
%LPD*%
%LPC*%
G36*
X636523Y38099D02*
X636523Y38099D01*
X636523Y49277D01*
X647701Y49277D01*
X647701Y40306D01*
X647528Y39659D01*
X647193Y39080D01*
X646720Y38607D01*
X646141Y38272D01*
X645494Y38099D01*
X636523Y38099D01*
G37*
%LPD*%
%LPC*%
G36*
X622299Y52323D02*
X622299Y52323D01*
X622299Y61294D01*
X622472Y61941D01*
X622807Y62520D01*
X623280Y62993D01*
X623859Y63328D01*
X624506Y63501D01*
X633477Y63501D01*
X633477Y52323D01*
X622299Y52323D01*
G37*
%LPD*%
%LPC*%
G36*
X624506Y38099D02*
X624506Y38099D01*
X623859Y38272D01*
X623280Y38607D01*
X622807Y39080D01*
X622472Y39659D01*
X622299Y40306D01*
X622299Y49277D01*
X633477Y49277D01*
X633477Y38099D01*
X624506Y38099D01*
G37*
%LPD*%
%LPC*%
G36*
X204723Y26923D02*
X204723Y26923D01*
X204723Y35561D01*
X211620Y35561D01*
X213199Y35311D01*
X214720Y34816D01*
X216145Y34090D01*
X217439Y33150D01*
X218570Y32019D01*
X219510Y30725D01*
X220236Y29300D01*
X220731Y27779D01*
X220866Y26923D01*
X204723Y26923D01*
G37*
%LPD*%
%LPC*%
G36*
X128523Y26923D02*
X128523Y26923D01*
X128523Y35561D01*
X135420Y35561D01*
X136999Y35311D01*
X138520Y34816D01*
X139945Y34090D01*
X141239Y33150D01*
X142370Y32019D01*
X143310Y30725D01*
X144036Y29300D01*
X144531Y27779D01*
X144666Y26923D01*
X128523Y26923D01*
G37*
%LPD*%
%LPC*%
G36*
X522223Y26923D02*
X522223Y26923D01*
X522223Y35561D01*
X529120Y35561D01*
X530699Y35311D01*
X532220Y34816D01*
X533645Y34090D01*
X534939Y33150D01*
X536070Y32019D01*
X537010Y30725D01*
X537736Y29300D01*
X538231Y27779D01*
X538366Y26923D01*
X522223Y26923D01*
G37*
%LPD*%
%LPC*%
G36*
X560323Y26923D02*
X560323Y26923D01*
X560323Y35561D01*
X567220Y35561D01*
X568799Y35311D01*
X570320Y34816D01*
X571745Y34090D01*
X573039Y33150D01*
X574170Y32019D01*
X575110Y30725D01*
X575836Y29300D01*
X576331Y27779D01*
X576466Y26923D01*
X560323Y26923D01*
G37*
%LPD*%
%LPC*%
G36*
X484123Y26923D02*
X484123Y26923D01*
X484123Y35561D01*
X491020Y35561D01*
X492599Y35311D01*
X494120Y34816D01*
X495545Y34090D01*
X496839Y33150D01*
X497970Y32019D01*
X498910Y30725D01*
X499636Y29300D01*
X500131Y27779D01*
X500266Y26923D01*
X484123Y26923D01*
G37*
%LPD*%
%LPC*%
G36*
X109334Y26923D02*
X109334Y26923D01*
X109469Y27779D01*
X109964Y29300D01*
X110690Y30725D01*
X111630Y32019D01*
X112761Y33150D01*
X114055Y34090D01*
X115480Y34816D01*
X117001Y35311D01*
X118580Y35561D01*
X125477Y35561D01*
X125477Y26923D01*
X109334Y26923D01*
G37*
%LPD*%
%LPC*%
G36*
X503034Y26923D02*
X503034Y26923D01*
X503169Y27779D01*
X503664Y29300D01*
X504390Y30725D01*
X505330Y32019D01*
X506461Y33150D01*
X507755Y34090D01*
X509180Y34816D01*
X510701Y35311D01*
X512280Y35561D01*
X519177Y35561D01*
X519177Y26923D01*
X503034Y26923D01*
G37*
%LPD*%
%LPC*%
G36*
X541134Y26923D02*
X541134Y26923D01*
X541269Y27779D01*
X541764Y29300D01*
X542490Y30725D01*
X543430Y32019D01*
X544561Y33150D01*
X545855Y34090D01*
X547280Y34816D01*
X548801Y35311D01*
X550380Y35561D01*
X557277Y35561D01*
X557277Y26923D01*
X541134Y26923D01*
G37*
%LPD*%
%LPC*%
G36*
X147434Y26923D02*
X147434Y26923D01*
X147569Y27779D01*
X148064Y29300D01*
X148790Y30725D01*
X149730Y32019D01*
X150861Y33150D01*
X152155Y34090D01*
X153580Y34816D01*
X155101Y35311D01*
X156680Y35561D01*
X163577Y35561D01*
X163577Y26923D01*
X147434Y26923D01*
G37*
%LPD*%
%LPC*%
G36*
X464934Y26923D02*
X464934Y26923D01*
X465069Y27779D01*
X465564Y29300D01*
X466290Y30725D01*
X467230Y32019D01*
X468361Y33150D01*
X469655Y34090D01*
X471080Y34816D01*
X472601Y35311D01*
X474180Y35561D01*
X481077Y35561D01*
X481077Y26923D01*
X464934Y26923D01*
G37*
%LPD*%
%LPC*%
G36*
X128523Y15239D02*
X128523Y15239D01*
X128523Y23877D01*
X144666Y23877D01*
X144531Y23021D01*
X144036Y21500D01*
X143310Y20075D01*
X142370Y18781D01*
X141239Y17650D01*
X139945Y16710D01*
X138520Y15984D01*
X136999Y15489D01*
X135420Y15239D01*
X128523Y15239D01*
G37*
%LPD*%
%LPC*%
G36*
X204723Y15239D02*
X204723Y15239D01*
X204723Y23877D01*
X220866Y23877D01*
X220731Y23021D01*
X220236Y21500D01*
X219510Y20075D01*
X218570Y18781D01*
X217439Y17650D01*
X216145Y16710D01*
X214720Y15984D01*
X213199Y15489D01*
X211620Y15239D01*
X204723Y15239D01*
G37*
%LPD*%
%LPC*%
G36*
X522223Y15239D02*
X522223Y15239D01*
X522223Y23877D01*
X538366Y23877D01*
X538231Y23021D01*
X537736Y21500D01*
X537010Y20075D01*
X536070Y18781D01*
X534939Y17650D01*
X533645Y16710D01*
X532220Y15984D01*
X530699Y15489D01*
X529120Y15239D01*
X522223Y15239D01*
G37*
%LPD*%
%LPC*%
G36*
X560323Y15239D02*
X560323Y15239D01*
X560323Y23877D01*
X576466Y23877D01*
X576331Y23021D01*
X575836Y21500D01*
X575110Y20075D01*
X574170Y18781D01*
X573039Y17650D01*
X571745Y16710D01*
X570320Y15984D01*
X568799Y15489D01*
X567220Y15239D01*
X560323Y15239D01*
G37*
%LPD*%
%LPC*%
G36*
X484123Y15239D02*
X484123Y15239D01*
X484123Y23877D01*
X500266Y23877D01*
X500131Y23021D01*
X499636Y21500D01*
X498910Y20075D01*
X497970Y18781D01*
X496839Y17650D01*
X495545Y16710D01*
X494120Y15984D01*
X492599Y15489D01*
X491020Y15239D01*
X484123Y15239D01*
G37*
%LPD*%
%LPC*%
G36*
X550380Y15239D02*
X550380Y15239D01*
X548801Y15489D01*
X547280Y15984D01*
X545855Y16710D01*
X544561Y17650D01*
X543430Y18781D01*
X542490Y20075D01*
X541764Y21500D01*
X541269Y23021D01*
X541134Y23877D01*
X557277Y23877D01*
X557277Y15239D01*
X550380Y15239D01*
G37*
%LPD*%
%LPC*%
G36*
X512280Y15239D02*
X512280Y15239D01*
X510701Y15489D01*
X509180Y15984D01*
X507755Y16710D01*
X506461Y17650D01*
X505330Y18781D01*
X504390Y20075D01*
X503664Y21500D01*
X503169Y23021D01*
X503034Y23877D01*
X519177Y23877D01*
X519177Y15239D01*
X512280Y15239D01*
G37*
%LPD*%
%LPC*%
G36*
X474180Y15239D02*
X474180Y15239D01*
X472601Y15489D01*
X471080Y15984D01*
X469655Y16710D01*
X468361Y17650D01*
X467230Y18781D01*
X466290Y20075D01*
X465564Y21500D01*
X465069Y23021D01*
X464934Y23877D01*
X481077Y23877D01*
X481077Y15239D01*
X474180Y15239D01*
G37*
%LPD*%
%LPC*%
G36*
X156680Y15239D02*
X156680Y15239D01*
X155101Y15489D01*
X153580Y15984D01*
X152155Y16710D01*
X150861Y17650D01*
X149730Y18781D01*
X148790Y20075D01*
X148064Y21500D01*
X147569Y23021D01*
X147434Y23877D01*
X163577Y23877D01*
X163577Y15239D01*
X156680Y15239D01*
G37*
%LPD*%
%LPC*%
G36*
X118580Y15239D02*
X118580Y15239D01*
X117001Y15489D01*
X115480Y15984D01*
X114055Y16710D01*
X112761Y17650D01*
X111630Y18781D01*
X110690Y20075D01*
X109964Y21500D01*
X109469Y23021D01*
X109334Y23877D01*
X125477Y23877D01*
X125477Y15239D01*
X118580Y15239D01*
G37*
%LPD*%
%LPC*%
G36*
X390232Y500153D02*
X390232Y500153D01*
X387123Y503262D01*
X387123Y507658D01*
X390232Y510767D01*
X394628Y510767D01*
X397737Y507658D01*
X397737Y503262D01*
X394628Y500153D01*
X390232Y500153D01*
G37*
%LPD*%
%LPC*%
G36*
X179323Y147573D02*
X179323Y147573D01*
X179323Y157896D01*
X180596Y157695D01*
X182383Y157114D01*
X184057Y156261D01*
X185578Y155156D01*
X186906Y153828D01*
X188011Y152307D01*
X188864Y150633D01*
X189445Y148846D01*
X189646Y147573D01*
X179323Y147573D01*
G37*
%LPD*%
%LPC*%
G36*
X547623Y446023D02*
X547623Y446023D01*
X547623Y456346D01*
X548896Y456145D01*
X550683Y455564D01*
X552357Y454711D01*
X553878Y453606D01*
X555206Y452278D01*
X556311Y450757D01*
X557164Y449083D01*
X557745Y447296D01*
X557946Y446023D01*
X547623Y446023D01*
G37*
%LPD*%
%LPC*%
G36*
X179323Y144527D02*
X179323Y144527D01*
X189646Y144527D01*
X189445Y143254D01*
X188864Y141467D01*
X188011Y139793D01*
X186906Y138272D01*
X185578Y136944D01*
X184057Y135839D01*
X182383Y134986D01*
X180596Y134405D01*
X179323Y134204D01*
X179323Y144527D01*
G37*
%LPD*%
%LPC*%
G36*
X547623Y442977D02*
X547623Y442977D01*
X557946Y442977D01*
X557745Y441704D01*
X557164Y439917D01*
X556311Y438243D01*
X555206Y436722D01*
X553878Y435394D01*
X552357Y434289D01*
X550683Y433436D01*
X548896Y432855D01*
X547623Y432654D01*
X547623Y442977D01*
G37*
%LPD*%
%LPC*%
G36*
X165954Y147573D02*
X165954Y147573D01*
X166155Y148846D01*
X166736Y150633D01*
X167589Y152307D01*
X168694Y153828D01*
X170022Y155156D01*
X171543Y156261D01*
X173217Y157114D01*
X175004Y157695D01*
X176277Y157896D01*
X176277Y147573D01*
X165954Y147573D01*
G37*
%LPD*%
%LPC*%
G36*
X175004Y134405D02*
X175004Y134405D01*
X173217Y134986D01*
X171543Y135839D01*
X170022Y136944D01*
X168694Y138272D01*
X167589Y139793D01*
X166736Y141467D01*
X166155Y143254D01*
X165954Y144527D01*
X176277Y144527D01*
X176277Y134204D01*
X175004Y134405D01*
G37*
%LPD*%
%LPC*%
G36*
X108203Y331723D02*
X108203Y331723D01*
X108203Y341018D01*
X109238Y340854D01*
X110873Y340322D01*
X112405Y339542D01*
X113796Y338531D01*
X115011Y337316D01*
X116022Y335925D01*
X116802Y334393D01*
X117334Y332758D01*
X117498Y331723D01*
X108203Y331723D01*
G37*
%LPD*%
%LPC*%
G36*
X108203Y407923D02*
X108203Y407923D01*
X108203Y417218D01*
X109238Y417054D01*
X110873Y416522D01*
X112405Y415742D01*
X113796Y414731D01*
X115011Y413516D01*
X116022Y412125D01*
X116802Y410593D01*
X117334Y408958D01*
X117498Y407923D01*
X108203Y407923D01*
G37*
%LPD*%
%LPC*%
G36*
X159003Y484123D02*
X159003Y484123D01*
X159003Y493418D01*
X160038Y493254D01*
X161673Y492722D01*
X163205Y491942D01*
X164596Y490931D01*
X165811Y489716D01*
X166822Y488325D01*
X167602Y486793D01*
X168134Y485158D01*
X168298Y484123D01*
X159003Y484123D01*
G37*
%LPD*%
%LPC*%
G36*
X95862Y407923D02*
X95862Y407923D01*
X96026Y408958D01*
X96558Y410593D01*
X97338Y412125D01*
X98349Y413516D01*
X99564Y414731D01*
X100955Y415742D01*
X102487Y416522D01*
X104122Y417054D01*
X105157Y417218D01*
X105157Y407923D01*
X95862Y407923D01*
G37*
%LPD*%
%LPC*%
G36*
X159003Y481077D02*
X159003Y481077D01*
X168298Y481077D01*
X168134Y480042D01*
X167602Y478407D01*
X166822Y476875D01*
X165811Y475484D01*
X164596Y474269D01*
X163205Y473258D01*
X161673Y472478D01*
X160038Y471946D01*
X159003Y471782D01*
X159003Y481077D01*
G37*
%LPD*%
%LPC*%
G36*
X95862Y331723D02*
X95862Y331723D01*
X96026Y332758D01*
X96558Y334393D01*
X97338Y335925D01*
X98349Y337316D01*
X99564Y338531D01*
X100955Y339542D01*
X102487Y340322D01*
X104122Y340854D01*
X105157Y341018D01*
X105157Y331723D01*
X95862Y331723D01*
G37*
%LPD*%
%LPC*%
G36*
X146662Y484123D02*
X146662Y484123D01*
X146826Y485158D01*
X147358Y486793D01*
X148138Y488325D01*
X149149Y489716D01*
X150364Y490931D01*
X151755Y491942D01*
X153287Y492722D01*
X154922Y493254D01*
X155957Y493418D01*
X155957Y484123D01*
X146662Y484123D01*
G37*
%LPD*%
%LPC*%
G36*
X108203Y404877D02*
X108203Y404877D01*
X117498Y404877D01*
X117334Y403842D01*
X116802Y402207D01*
X116022Y400675D01*
X115011Y399284D01*
X113796Y398069D01*
X112405Y397058D01*
X110873Y396278D01*
X109238Y395746D01*
X108203Y395582D01*
X108203Y404877D01*
G37*
%LPD*%
%LPC*%
G36*
X108203Y328677D02*
X108203Y328677D01*
X117498Y328677D01*
X117334Y327642D01*
X116802Y326007D01*
X116022Y324475D01*
X115011Y323084D01*
X113796Y321869D01*
X112405Y320858D01*
X110873Y320078D01*
X109238Y319546D01*
X108203Y319382D01*
X108203Y328677D01*
G37*
%LPD*%
%LPC*%
G36*
X104122Y395746D02*
X104122Y395746D01*
X102487Y396278D01*
X100955Y397058D01*
X99564Y398069D01*
X98349Y399284D01*
X97338Y400675D01*
X96558Y402207D01*
X96026Y403842D01*
X95862Y404877D01*
X105157Y404877D01*
X105157Y395582D01*
X104122Y395746D01*
G37*
%LPD*%
%LPC*%
G36*
X104122Y319546D02*
X104122Y319546D01*
X102487Y320078D01*
X100955Y320858D01*
X99564Y321869D01*
X98349Y323084D01*
X97338Y324475D01*
X96558Y326007D01*
X96026Y327642D01*
X95862Y328677D01*
X105157Y328677D01*
X105157Y319382D01*
X104122Y319546D01*
G37*
%LPD*%
%LPC*%
G36*
X154922Y471946D02*
X154922Y471946D01*
X153287Y472478D01*
X151755Y473258D01*
X150364Y474269D01*
X149149Y475484D01*
X148138Y476875D01*
X147358Y478407D01*
X146826Y480042D01*
X146662Y481077D01*
X155957Y481077D01*
X155957Y471782D01*
X154922Y471946D01*
G37*
%LPD*%
%LPC*%
G36*
X420623Y26923D02*
X420623Y26923D01*
X420623Y35189D01*
X421420Y35063D01*
X422903Y34581D01*
X424292Y33873D01*
X425554Y32956D01*
X426656Y31854D01*
X427573Y30592D01*
X428281Y29203D01*
X428763Y27720D01*
X428889Y26923D01*
X420623Y26923D01*
G37*
%LPD*%
%LPC*%
G36*
X409311Y26923D02*
X409311Y26923D01*
X409437Y27720D01*
X409919Y29203D01*
X410627Y30592D01*
X411544Y31854D01*
X412646Y32956D01*
X413908Y33873D01*
X415297Y34581D01*
X416780Y35063D01*
X417577Y35189D01*
X417577Y26923D01*
X409311Y26923D01*
G37*
%LPD*%
%LPC*%
G36*
X420623Y23877D02*
X420623Y23877D01*
X428889Y23877D01*
X428763Y23080D01*
X428281Y21597D01*
X427573Y20208D01*
X426656Y18946D01*
X425554Y17844D01*
X424292Y16927D01*
X422903Y16219D01*
X421420Y15737D01*
X420623Y15611D01*
X420623Y23877D01*
G37*
%LPD*%
%LPC*%
G36*
X416780Y15737D02*
X416780Y15737D01*
X415297Y16219D01*
X413908Y16927D01*
X412646Y17844D01*
X411544Y18946D01*
X410627Y20208D01*
X409919Y21597D01*
X409437Y23080D01*
X409311Y23877D01*
X417577Y23877D01*
X417577Y15611D01*
X416780Y15737D01*
G37*
%LPD*%
%LPC*%
G36*
X157479Y482599D02*
X157479Y482599D01*
X157479Y482601D01*
X157481Y482601D01*
X157481Y482599D01*
X157479Y482599D01*
G37*
%LPD*%
%LPC*%
G36*
X106679Y406399D02*
X106679Y406399D01*
X106679Y406401D01*
X106681Y406401D01*
X106681Y406399D01*
X106679Y406399D01*
G37*
%LPD*%
%LPC*%
G36*
X558799Y25399D02*
X558799Y25399D01*
X558799Y25401D01*
X558801Y25401D01*
X558801Y25399D01*
X558799Y25399D01*
G37*
%LPD*%
%LPC*%
G36*
X520699Y25399D02*
X520699Y25399D01*
X520699Y25401D01*
X520701Y25401D01*
X520701Y25399D01*
X520699Y25399D01*
G37*
%LPD*%
%LPC*%
G36*
X177799Y146049D02*
X177799Y146049D01*
X177799Y146051D01*
X177801Y146051D01*
X177801Y146049D01*
X177799Y146049D01*
G37*
%LPD*%
%LPC*%
G36*
X419099Y25399D02*
X419099Y25399D01*
X419099Y25401D01*
X419101Y25401D01*
X419101Y25399D01*
X419099Y25399D01*
G37*
%LPD*%
%LPC*%
G36*
X126999Y25399D02*
X126999Y25399D01*
X126999Y25401D01*
X127001Y25401D01*
X127001Y25399D01*
X126999Y25399D01*
G37*
%LPD*%
%LPC*%
G36*
X106679Y330199D02*
X106679Y330199D01*
X106679Y330201D01*
X106681Y330201D01*
X106681Y330199D01*
X106679Y330199D01*
G37*
%LPD*%
%LPC*%
G36*
X634999Y50799D02*
X634999Y50799D01*
X634999Y50801D01*
X635001Y50801D01*
X635001Y50799D01*
X634999Y50799D01*
G37*
%LPD*%
%LPC*%
G36*
X482599Y25399D02*
X482599Y25399D01*
X482599Y25401D01*
X482601Y25401D01*
X482601Y25399D01*
X482599Y25399D01*
G37*
%LPD*%
D10*
X474980Y76200D02*
X490220Y76200D01*
X490220Y50800D02*
X474980Y50800D01*
X474980Y25400D02*
X490220Y25400D01*
X513080Y76200D02*
X528320Y76200D01*
X528320Y50800D02*
X513080Y50800D01*
X513080Y25400D02*
X528320Y25400D01*
X134620Y76200D02*
X119380Y76200D01*
X119380Y50800D02*
X134620Y50800D01*
X134620Y25400D02*
X119380Y25400D01*
D11*
X419100Y25400D03*
X419100Y50800D03*
X419100Y76200D03*
X419100Y101600D03*
X419100Y127000D03*
X419100Y152400D03*
X419100Y177800D03*
X419100Y203200D03*
X419100Y228600D03*
X419100Y254000D03*
X419100Y279400D03*
X419100Y304800D03*
X419100Y330200D03*
X419100Y355600D03*
X393700Y355600D03*
X368300Y355600D03*
X342900Y355600D03*
X317500Y355600D03*
X292100Y355600D03*
X266700Y355600D03*
X266700Y330200D03*
X266700Y304800D03*
X266700Y279400D03*
X266700Y254000D03*
X266700Y228600D03*
X266700Y203200D03*
X266700Y177800D03*
X266700Y152400D03*
X266700Y127000D03*
X266700Y101600D03*
X266700Y76200D03*
X266700Y50800D03*
X266700Y25400D03*
D12*
X50800Y129540D03*
X50800Y266700D03*
D13*
X177800Y120650D03*
X177800Y146050D03*
X177800Y171450D03*
X177800Y196850D03*
X177800Y222250D03*
X177800Y247650D03*
X177800Y273050D03*
D12*
X698500Y152400D03*
X495300Y152400D03*
D13*
X698500Y444500D03*
X673100Y444500D03*
X647700Y444500D03*
X622300Y444500D03*
X596900Y444500D03*
X571500Y444500D03*
X546100Y444500D03*
X520700Y444500D03*
X495300Y444500D03*
D12*
X60960Y467360D03*
X60960Y345440D03*
D14*
X106680Y482600D03*
X132080Y482600D03*
X157480Y482600D03*
X182880Y482600D03*
X182880Y330200D03*
X157480Y330200D03*
X132080Y330200D03*
X106680Y330200D03*
X106680Y431800D03*
X106680Y406400D03*
X106680Y381000D03*
D15*
X447040Y389890D03*
D10*
X172720Y76200D02*
X157480Y76200D01*
X157480Y50800D02*
X172720Y50800D01*
X172720Y25400D02*
X157480Y25400D01*
X551180Y76200D02*
X566420Y76200D01*
X566420Y50800D02*
X551180Y50800D01*
X551180Y25400D02*
X566420Y25400D01*
X210820Y76200D02*
X195580Y76200D01*
X195580Y50800D02*
X210820Y50800D01*
X210820Y25400D02*
X195580Y25400D01*
D16*
X635000Y50800D03*
D17*
X685000Y50800D03*
D18*
X293370Y565150D03*
X292100Y425450D03*
X392430Y444500D03*
X163830Y577850D03*
X508000Y596900D03*
X561340Y596900D03*
X622300Y596900D03*
X392430Y565150D03*
X392430Y505460D03*
X215900Y247650D03*
D19*
X215900Y203200D01*
D18*
X215900Y203200D03*
X215900Y330200D03*
D19*
X215900Y247650D01*
D18*
X229870Y273050D03*
D19*
X229870Y228600D01*
D18*
X229870Y228600D03*
D19*
X157480Y307340D02*
X157480Y330200D01*
D18*
X157480Y307340D03*
X229870Y307340D03*
D19*
X229870Y273050D01*
D18*
X447040Y425450D03*
D19*
X447040Y389890D01*
X419100Y381000D02*
X419100Y355600D01*
D18*
X419100Y381000D03*
X317500Y381000D03*
D19*
X317500Y546100D01*
D18*
X317500Y546100D03*
X228600Y355600D03*
D19*
X228600Y505460D01*
X227330Y505460D01*
D18*
X227330Y505460D03*
X304800Y330200D03*
D19*
X304800Y520700D01*
D18*
X304800Y520700D03*
X355600Y482600D03*
D19*
X355600Y317500D01*
D18*
X355600Y317500D03*
X330200Y464820D03*
D19*
X330200Y304800D01*
D18*
X330200Y304800D03*
X368300Y88900D03*
D19*
X368300Y177800D01*
D18*
X368300Y177800D03*
D19*
X520700Y114300D02*
X520700Y76200D01*
D18*
X520700Y114300D03*
X381000Y114300D03*
X381000Y152400D03*
D19*
X381000Y114300D01*
X127000Y101600D02*
X127000Y76200D01*
D18*
X215900Y127000D03*
D19*
X215900Y101600D01*
D18*
X215900Y101600D03*
X127000Y101600D03*
D19*
X165100Y88900D02*
X165100Y76200D01*
X182880Y88900D02*
X182880Y7112D01*
X241300Y7112D01*
X241300Y101600D01*
X266700Y101600D01*
X182880Y88900D02*
X165100Y88900D01*
D18*
X213360Y547370D03*
D19*
X213360Y406400D01*
D18*
X213360Y406400D03*
X406400Y406400D03*
D19*
X406400Y254000D01*
X419100Y254000D01*
D18*
X469900Y228600D03*
D19*
X469900Y469900D01*
D18*
X469900Y469900D03*
X533400Y469900D03*
D19*
X533400Y203200D01*
D18*
X533400Y203200D03*
X546100Y177800D03*
X723900Y495300D03*
D19*
X723900Y177800D01*
X546100Y177800D01*
D18*
X596900Y279400D03*
D19*
X596900Y444500D01*
D18*
X571500Y304800D03*
D19*
X571500Y444500D01*
X622300Y444500D02*
X622300Y254000D01*
D18*
X622300Y254000D03*
X457200Y254000D03*
X457200Y101600D03*
D19*
X457200Y254000D01*
D18*
X377190Y280670D03*
D19*
X381000Y284480D01*
X381000Y524510D01*
D18*
X381000Y524510D03*
D19*
X558800Y127000D02*
X558800Y76200D01*
D18*
X558800Y127000D03*
X304800Y165100D03*
X304800Y88900D03*
D19*
X304800Y165100D01*
M02*
