G04 EAGLE Gerber RS-274X export*
G75*
%MOMM*%
%FSLAX34Y34*%
%LPD*%
%INBottom Copper*%
%IPPOS*%
%AMOC8*
5,1,8,0,0,1.08239X$1,22.5*%
G01*
%ADD10R,1.650000X1.650000*%
%ADD11C,1.650000*%
%ADD12C,1.473200*%
%ADD13P,2.089446X8X22.500000*%
%ADD14C,1.879600*%
%ADD15C,0.756400*%
%ADD16C,0.152400*%

G36*
X656609Y10170D02*
X656609Y10170D01*
X656669Y10170D01*
X656761Y10195D01*
X656793Y10200D01*
X656807Y10208D01*
X656831Y10214D01*
X658414Y10842D01*
X663920Y10758D01*
X663961Y10765D01*
X664003Y10762D01*
X664157Y10793D01*
X664164Y10794D01*
X664165Y10795D01*
X664167Y10796D01*
X667117Y11754D01*
X667149Y11771D01*
X667184Y11779D01*
X667330Y11862D01*
X670944Y14488D01*
X670969Y14513D01*
X670999Y14532D01*
X671112Y14656D01*
X673738Y18270D01*
X673754Y18302D01*
X673777Y18330D01*
X673846Y18483D01*
X675226Y22731D01*
X675227Y22737D01*
X675230Y22742D01*
X675261Y22907D01*
X675437Y25140D01*
X675435Y25162D01*
X675439Y25200D01*
X675439Y495300D01*
X675436Y495322D01*
X675437Y495360D01*
X675357Y496373D01*
X675356Y496378D01*
X675356Y496384D01*
X675322Y496548D01*
X675310Y496586D01*
X675300Y496605D01*
X675299Y496612D01*
X675298Y496613D01*
X675289Y496642D01*
X674789Y497850D01*
X674789Y498068D01*
X674783Y498104D01*
X674786Y498139D01*
X674752Y498304D01*
X674696Y498476D01*
X674680Y498508D01*
X674671Y498543D01*
X674588Y498688D01*
X673397Y500328D01*
X673371Y500353D01*
X673352Y500384D01*
X673228Y500497D01*
X671588Y501688D01*
X671556Y501704D01*
X671529Y501727D01*
X671376Y501796D01*
X671344Y501806D01*
X671314Y501811D01*
X671287Y501823D01*
X671120Y501844D01*
X665885Y501923D01*
X664604Y502477D01*
X664535Y502494D01*
X664469Y502521D01*
X664397Y502529D01*
X664366Y502537D01*
X664343Y502535D01*
X664302Y502539D01*
X17400Y502539D01*
X17378Y502536D01*
X17340Y502537D01*
X16327Y502457D01*
X16321Y502456D01*
X16316Y502456D01*
X16151Y502422D01*
X14224Y501796D01*
X14192Y501780D01*
X14157Y501771D01*
X14012Y501688D01*
X12372Y500497D01*
X12347Y500471D01*
X12316Y500452D01*
X12203Y500328D01*
X11012Y498688D01*
X10996Y498656D01*
X10973Y498629D01*
X10904Y498476D01*
X10848Y498304D01*
X10843Y498268D01*
X10829Y498235D01*
X10811Y498068D01*
X10811Y497850D01*
X10311Y496642D01*
X10306Y496621D01*
X10290Y496586D01*
X10278Y496548D01*
X10277Y496543D01*
X10274Y496538D01*
X10243Y496373D01*
X10163Y495360D01*
X10165Y495338D01*
X10161Y495300D01*
X10161Y25400D01*
X10164Y25382D01*
X10162Y25350D01*
X10286Y23460D01*
X10292Y23437D01*
X10311Y23313D01*
X11289Y19662D01*
X11295Y19648D01*
X11297Y19633D01*
X11365Y19479D01*
X13255Y16206D01*
X13265Y16194D01*
X13271Y16179D01*
X13376Y16048D01*
X16048Y13376D01*
X16061Y13366D01*
X16071Y13354D01*
X16206Y13255D01*
X19479Y11365D01*
X19494Y11359D01*
X19506Y11350D01*
X19662Y11289D01*
X23313Y10311D01*
X23337Y10308D01*
X23460Y10286D01*
X25350Y10162D01*
X25369Y10164D01*
X25400Y10161D01*
X656550Y10161D01*
X656609Y10170D01*
G37*
%LPC*%
G36*
X366102Y45493D02*
X366102Y45493D01*
X362993Y48602D01*
X362993Y52998D01*
X366102Y56107D01*
X370498Y56107D01*
X373295Y53310D01*
X373369Y53257D01*
X373439Y53197D01*
X373469Y53185D01*
X373495Y53166D01*
X373582Y53139D01*
X373667Y53105D01*
X373708Y53101D01*
X373730Y53094D01*
X373762Y53095D01*
X373833Y53087D01*
X608337Y53087D01*
X608428Y53101D01*
X608518Y53109D01*
X608548Y53121D01*
X608580Y53126D01*
X608661Y53169D01*
X608745Y53205D01*
X608777Y53231D01*
X608798Y53242D01*
X608820Y53265D01*
X608876Y53310D01*
X657890Y102324D01*
X657943Y102398D01*
X658003Y102468D01*
X658015Y102498D01*
X658034Y102524D01*
X658061Y102611D01*
X658095Y102696D01*
X658099Y102737D01*
X658106Y102759D01*
X658105Y102791D01*
X658113Y102863D01*
X658113Y379737D01*
X658099Y379828D01*
X658091Y379918D01*
X658079Y379948D01*
X658074Y379980D01*
X658031Y380061D01*
X657995Y380145D01*
X657969Y380177D01*
X657958Y380198D01*
X657935Y380220D01*
X657890Y380276D01*
X634276Y403890D01*
X634202Y403943D01*
X634132Y404003D01*
X634102Y404015D01*
X634076Y404034D01*
X633989Y404061D01*
X633904Y404095D01*
X633863Y404099D01*
X633841Y404106D01*
X633809Y404105D01*
X633737Y404113D01*
X462733Y404113D01*
X462643Y404099D01*
X462552Y404091D01*
X462523Y404079D01*
X462491Y404074D01*
X462410Y404031D01*
X462326Y403995D01*
X462294Y403969D01*
X462273Y403958D01*
X462251Y403935D01*
X462195Y403890D01*
X459398Y401093D01*
X455002Y401093D01*
X451893Y404202D01*
X451893Y408598D01*
X455002Y411707D01*
X459398Y411707D01*
X462195Y408910D01*
X462269Y408857D01*
X462339Y408797D01*
X462369Y408785D01*
X462395Y408766D01*
X462482Y408739D01*
X462567Y408705D01*
X462608Y408701D01*
X462630Y408694D01*
X462662Y408695D01*
X462733Y408687D01*
X635947Y408687D01*
X662687Y381947D01*
X662687Y100653D01*
X610547Y48513D01*
X373833Y48513D01*
X373743Y48499D01*
X373652Y48491D01*
X373623Y48479D01*
X373591Y48474D01*
X373510Y48431D01*
X373426Y48395D01*
X373394Y48369D01*
X373373Y48358D01*
X373351Y48335D01*
X373295Y48290D01*
X370498Y45493D01*
X366102Y45493D01*
G37*
%LPD*%
%LPC*%
G36*
X213702Y337593D02*
X213702Y337593D01*
X210593Y340702D01*
X210593Y345098D01*
X213390Y347895D01*
X213443Y347969D01*
X213503Y348039D01*
X213515Y348069D01*
X213534Y348095D01*
X213561Y348182D01*
X213595Y348267D01*
X213599Y348308D01*
X213606Y348330D01*
X213605Y348362D01*
X213613Y348433D01*
X213613Y441452D01*
X213610Y441472D01*
X213612Y441491D01*
X213590Y441593D01*
X213574Y441695D01*
X213564Y441712D01*
X213560Y441732D01*
X213507Y441821D01*
X213458Y441912D01*
X213444Y441926D01*
X213434Y441943D01*
X213355Y442010D01*
X213280Y442082D01*
X213262Y442090D01*
X213247Y442103D01*
X213151Y442142D01*
X213057Y442185D01*
X213037Y442187D01*
X213019Y442195D01*
X212852Y442213D01*
X138753Y442213D01*
X137413Y443553D01*
X137413Y473257D01*
X137399Y473347D01*
X137391Y473438D01*
X137379Y473467D01*
X137374Y473499D01*
X137331Y473580D01*
X137295Y473664D01*
X137269Y473696D01*
X137258Y473717D01*
X137235Y473739D01*
X137190Y473795D01*
X135663Y475322D01*
X135663Y479718D01*
X138772Y482827D01*
X143168Y482827D01*
X146277Y479718D01*
X146277Y475322D01*
X143168Y472213D01*
X142748Y472213D01*
X142728Y472210D01*
X142709Y472212D01*
X142607Y472190D01*
X142505Y472174D01*
X142488Y472164D01*
X142468Y472160D01*
X142379Y472107D01*
X142288Y472058D01*
X142274Y472044D01*
X142257Y472034D01*
X142190Y471955D01*
X142118Y471880D01*
X142110Y471862D01*
X142097Y471847D01*
X142058Y471751D01*
X142015Y471657D01*
X142013Y471637D01*
X142005Y471619D01*
X141987Y471452D01*
X141987Y459939D01*
X141998Y459869D01*
X142000Y459797D01*
X142018Y459748D01*
X142026Y459697D01*
X142060Y459633D01*
X142085Y459566D01*
X142117Y459525D01*
X142142Y459479D01*
X142194Y459430D01*
X142238Y459374D01*
X142282Y459346D01*
X142320Y459310D01*
X142385Y459280D01*
X142445Y459241D01*
X142496Y459228D01*
X142543Y459206D01*
X142614Y459198D01*
X142684Y459181D01*
X142736Y459185D01*
X142787Y459179D01*
X142858Y459194D01*
X142929Y459200D01*
X142977Y459220D01*
X143028Y459231D01*
X143089Y459268D01*
X143155Y459296D01*
X143211Y459341D01*
X143239Y459358D01*
X143254Y459375D01*
X143286Y459401D01*
X146392Y462507D01*
X150788Y462507D01*
X153585Y459710D01*
X153659Y459657D01*
X153729Y459597D01*
X153759Y459585D01*
X153785Y459566D01*
X153872Y459539D01*
X153957Y459505D01*
X153998Y459501D01*
X154020Y459494D01*
X154052Y459495D01*
X154123Y459487D01*
X229547Y459487D01*
X230887Y458147D01*
X230887Y368753D01*
X230901Y368663D01*
X230909Y368572D01*
X230921Y368543D01*
X230926Y368511D01*
X230969Y368430D01*
X231005Y368346D01*
X231031Y368314D01*
X231042Y368293D01*
X231065Y368271D01*
X231110Y368215D01*
X233907Y365418D01*
X233907Y361022D01*
X230798Y357913D01*
X226402Y357913D01*
X223293Y361022D01*
X223293Y365418D01*
X226090Y368215D01*
X226143Y368289D01*
X226203Y368359D01*
X226215Y368389D01*
X226234Y368415D01*
X226261Y368502D01*
X226295Y368587D01*
X226299Y368628D01*
X226306Y368650D01*
X226305Y368682D01*
X226313Y368753D01*
X226313Y454152D01*
X226310Y454172D01*
X226312Y454191D01*
X226290Y454293D01*
X226274Y454395D01*
X226264Y454412D01*
X226260Y454432D01*
X226207Y454521D01*
X226158Y454612D01*
X226144Y454626D01*
X226134Y454643D01*
X226055Y454710D01*
X225980Y454782D01*
X225962Y454790D01*
X225947Y454803D01*
X225851Y454842D01*
X225757Y454885D01*
X225737Y454887D01*
X225719Y454895D01*
X225552Y454913D01*
X154123Y454913D01*
X154033Y454899D01*
X153942Y454891D01*
X153913Y454879D01*
X153881Y454874D01*
X153800Y454831D01*
X153716Y454795D01*
X153684Y454769D01*
X153663Y454758D01*
X153641Y454735D01*
X153585Y454690D01*
X150788Y451893D01*
X146392Y451893D01*
X143286Y454999D01*
X143228Y455041D01*
X143176Y455090D01*
X143129Y455112D01*
X143087Y455142D01*
X143018Y455164D01*
X142953Y455194D01*
X142901Y455199D01*
X142851Y455215D01*
X142780Y455213D01*
X142709Y455221D01*
X142658Y455210D01*
X142606Y455208D01*
X142538Y455184D01*
X142468Y455169D01*
X142423Y455142D01*
X142375Y455124D01*
X142319Y455079D01*
X142257Y455042D01*
X142223Y455003D01*
X142183Y454970D01*
X142144Y454910D01*
X142097Y454855D01*
X142078Y454807D01*
X142050Y454763D01*
X142032Y454694D01*
X142005Y454627D01*
X141997Y454556D01*
X141989Y454525D01*
X141991Y454502D01*
X141987Y454461D01*
X141987Y447548D01*
X141990Y447528D01*
X141988Y447509D01*
X142010Y447407D01*
X142026Y447305D01*
X142036Y447288D01*
X142040Y447268D01*
X142093Y447179D01*
X142142Y447088D01*
X142156Y447074D01*
X142166Y447057D01*
X142245Y446990D01*
X142320Y446918D01*
X142338Y446910D01*
X142353Y446897D01*
X142449Y446858D01*
X142543Y446815D01*
X142563Y446813D01*
X142581Y446805D01*
X142748Y446787D01*
X216847Y446787D01*
X218187Y445447D01*
X218187Y348433D01*
X218201Y348343D01*
X218209Y348252D01*
X218221Y348223D01*
X218226Y348191D01*
X218269Y348110D01*
X218305Y348026D01*
X218331Y347994D01*
X218342Y347973D01*
X218365Y347951D01*
X218410Y347895D01*
X221207Y345098D01*
X221207Y340702D01*
X218098Y337593D01*
X213702Y337593D01*
G37*
%LPD*%
%LPC*%
G36*
X525888Y325439D02*
X525888Y325439D01*
X519488Y327154D01*
X513751Y330466D01*
X509066Y335151D01*
X505754Y340888D01*
X504039Y347288D01*
X504039Y353912D01*
X505754Y360312D01*
X509066Y366049D01*
X513751Y370734D01*
X519488Y374046D01*
X525888Y375761D01*
X532512Y375761D01*
X538912Y374046D01*
X544649Y370734D01*
X549334Y366049D01*
X552646Y360312D01*
X554361Y353912D01*
X554361Y347288D01*
X552646Y340888D01*
X549334Y335151D01*
X544649Y330466D01*
X538912Y327154D01*
X532512Y325439D01*
X525888Y325439D01*
G37*
%LPD*%
%LPC*%
G36*
X23202Y413793D02*
X23202Y413793D01*
X20093Y416902D01*
X20093Y421298D01*
X23202Y424407D01*
X27598Y424407D01*
X30395Y421610D01*
X30469Y421557D01*
X30539Y421497D01*
X30569Y421485D01*
X30595Y421466D01*
X30682Y421439D01*
X30767Y421405D01*
X30808Y421401D01*
X30830Y421394D01*
X30862Y421395D01*
X30933Y421387D01*
X45267Y421387D01*
X45357Y421401D01*
X45448Y421409D01*
X45477Y421421D01*
X45509Y421426D01*
X45590Y421469D01*
X45674Y421505D01*
X45706Y421531D01*
X45727Y421542D01*
X45749Y421565D01*
X45805Y421610D01*
X48290Y424095D01*
X48343Y424169D01*
X48403Y424239D01*
X48415Y424269D01*
X48434Y424295D01*
X48461Y424382D01*
X48495Y424467D01*
X48499Y424508D01*
X48506Y424530D01*
X48505Y424562D01*
X48513Y424633D01*
X48513Y445447D01*
X60990Y457924D01*
X61043Y457998D01*
X61103Y458068D01*
X61115Y458098D01*
X61134Y458124D01*
X61161Y458211D01*
X61195Y458296D01*
X61199Y458337D01*
X61206Y458359D01*
X61205Y458391D01*
X61213Y458463D01*
X61213Y477067D01*
X61199Y477157D01*
X61191Y477248D01*
X61179Y477277D01*
X61174Y477309D01*
X61131Y477390D01*
X61095Y477474D01*
X61069Y477506D01*
X61058Y477527D01*
X61035Y477549D01*
X60990Y477605D01*
X58193Y480402D01*
X58193Y484798D01*
X60990Y487595D01*
X61043Y487669D01*
X61103Y487739D01*
X61115Y487769D01*
X61134Y487795D01*
X61161Y487882D01*
X61195Y487967D01*
X61199Y488008D01*
X61206Y488030D01*
X61205Y488062D01*
X61213Y488133D01*
X61213Y496247D01*
X62553Y497587D01*
X216847Y497587D01*
X221997Y492437D01*
X221997Y474163D01*
X222011Y474073D01*
X222019Y473982D01*
X222031Y473953D01*
X222036Y473921D01*
X222079Y473840D01*
X222115Y473756D01*
X222141Y473724D01*
X222152Y473703D01*
X222175Y473681D01*
X222220Y473625D01*
X224705Y471140D01*
X224779Y471087D01*
X224849Y471027D01*
X224879Y471015D01*
X224905Y470996D01*
X224992Y470969D01*
X225077Y470935D01*
X225118Y470931D01*
X225140Y470924D01*
X225172Y470925D01*
X225243Y470917D01*
X230817Y470917D01*
X239004Y462730D01*
X239078Y462677D01*
X239148Y462617D01*
X239178Y462605D01*
X239204Y462586D01*
X239291Y462559D01*
X239376Y462525D01*
X239417Y462521D01*
X239439Y462514D01*
X239471Y462515D01*
X239543Y462507D01*
X243498Y462507D01*
X246607Y459398D01*
X246607Y455002D01*
X243498Y451893D01*
X239102Y451893D01*
X235993Y455002D01*
X235993Y458957D01*
X235979Y459048D01*
X235971Y459138D01*
X235959Y459168D01*
X235954Y459200D01*
X235911Y459281D01*
X235875Y459365D01*
X235849Y459397D01*
X235838Y459418D01*
X235815Y459440D01*
X235770Y459496D01*
X229146Y466120D01*
X229072Y466173D01*
X229002Y466233D01*
X228972Y466245D01*
X228946Y466264D01*
X228859Y466291D01*
X228774Y466325D01*
X228733Y466329D01*
X228711Y466336D01*
X228679Y466335D01*
X228607Y466343D01*
X225243Y466343D01*
X225153Y466329D01*
X225062Y466321D01*
X225033Y466309D01*
X225001Y466304D01*
X224920Y466261D01*
X224836Y466225D01*
X224804Y466199D01*
X224783Y466188D01*
X224761Y466165D01*
X224705Y466120D01*
X221908Y463323D01*
X217512Y463323D01*
X214403Y466432D01*
X214403Y470828D01*
X217200Y473625D01*
X217253Y473699D01*
X217313Y473769D01*
X217325Y473799D01*
X217344Y473825D01*
X217371Y473912D01*
X217405Y473997D01*
X217409Y474038D01*
X217416Y474060D01*
X217415Y474092D01*
X217423Y474163D01*
X217423Y490227D01*
X217409Y490318D01*
X217401Y490408D01*
X217389Y490438D01*
X217384Y490470D01*
X217341Y490551D01*
X217305Y490635D01*
X217279Y490667D01*
X217268Y490688D01*
X217245Y490710D01*
X217200Y490766D01*
X215176Y492790D01*
X215102Y492843D01*
X215032Y492903D01*
X215002Y492915D01*
X214976Y492934D01*
X214889Y492961D01*
X214804Y492995D01*
X214763Y492999D01*
X214741Y493006D01*
X214709Y493005D01*
X214637Y493013D01*
X66548Y493013D01*
X66528Y493010D01*
X66509Y493012D01*
X66407Y492990D01*
X66305Y492974D01*
X66288Y492964D01*
X66268Y492960D01*
X66179Y492907D01*
X66088Y492858D01*
X66074Y492844D01*
X66057Y492834D01*
X65990Y492755D01*
X65918Y492680D01*
X65910Y492662D01*
X65897Y492647D01*
X65858Y492551D01*
X65815Y492457D01*
X65813Y492437D01*
X65805Y492419D01*
X65787Y492252D01*
X65787Y488133D01*
X65801Y488043D01*
X65809Y487952D01*
X65821Y487923D01*
X65826Y487891D01*
X65869Y487810D01*
X65905Y487726D01*
X65931Y487694D01*
X65942Y487673D01*
X65965Y487651D01*
X66010Y487595D01*
X68807Y484798D01*
X68807Y480402D01*
X66010Y477605D01*
X65957Y477531D01*
X65897Y477461D01*
X65885Y477431D01*
X65866Y477405D01*
X65839Y477318D01*
X65805Y477233D01*
X65801Y477192D01*
X65794Y477170D01*
X65795Y477138D01*
X65787Y477067D01*
X65787Y456253D01*
X53310Y443776D01*
X53257Y443702D01*
X53197Y443632D01*
X53185Y443602D01*
X53166Y443576D01*
X53139Y443489D01*
X53105Y443404D01*
X53101Y443363D01*
X53094Y443341D01*
X53095Y443309D01*
X53087Y443237D01*
X53087Y424633D01*
X53101Y424543D01*
X53109Y424452D01*
X53121Y424423D01*
X53126Y424391D01*
X53169Y424310D01*
X53205Y424226D01*
X53231Y424194D01*
X53242Y424173D01*
X53265Y424151D01*
X53310Y424095D01*
X56107Y421298D01*
X56107Y416902D01*
X52998Y413793D01*
X48602Y413793D01*
X45805Y416590D01*
X45731Y416643D01*
X45661Y416703D01*
X45631Y416715D01*
X45605Y416734D01*
X45518Y416761D01*
X45433Y416795D01*
X45392Y416799D01*
X45370Y416806D01*
X45338Y416805D01*
X45267Y416813D01*
X30933Y416813D01*
X30843Y416799D01*
X30752Y416791D01*
X30723Y416779D01*
X30691Y416774D01*
X30610Y416731D01*
X30526Y416695D01*
X30494Y416669D01*
X30473Y416658D01*
X30451Y416635D01*
X30395Y416590D01*
X27598Y413793D01*
X23202Y413793D01*
G37*
%LPD*%
%LPC*%
G36*
X366102Y32793D02*
X366102Y32793D01*
X362993Y35902D01*
X362993Y40298D01*
X366102Y43407D01*
X370498Y43407D01*
X373295Y40610D01*
X373369Y40557D01*
X373439Y40497D01*
X373469Y40485D01*
X373495Y40466D01*
X373582Y40439D01*
X373667Y40405D01*
X373708Y40401D01*
X373730Y40394D01*
X373762Y40395D01*
X373833Y40387D01*
X616767Y40387D01*
X616857Y40401D01*
X616948Y40409D01*
X616977Y40421D01*
X617009Y40426D01*
X617090Y40469D01*
X617174Y40505D01*
X617206Y40531D01*
X617227Y40542D01*
X617249Y40565D01*
X617305Y40610D01*
X620102Y43407D01*
X624498Y43407D01*
X627607Y40298D01*
X627607Y35902D01*
X624498Y32793D01*
X620102Y32793D01*
X617305Y35590D01*
X617231Y35643D01*
X617161Y35703D01*
X617131Y35715D01*
X617105Y35734D01*
X617018Y35761D01*
X616933Y35795D01*
X616892Y35799D01*
X616870Y35806D01*
X616838Y35805D01*
X616767Y35813D01*
X373833Y35813D01*
X373743Y35799D01*
X373652Y35791D01*
X373623Y35779D01*
X373591Y35774D01*
X373510Y35731D01*
X373426Y35695D01*
X373394Y35669D01*
X373373Y35658D01*
X373351Y35635D01*
X373295Y35590D01*
X370498Y32793D01*
X366102Y32793D01*
G37*
%LPD*%
%LPC*%
G36*
X493102Y147093D02*
X493102Y147093D01*
X490305Y149890D01*
X490231Y149943D01*
X490161Y150003D01*
X490131Y150015D01*
X490105Y150034D01*
X490018Y150061D01*
X489933Y150095D01*
X489892Y150099D01*
X489870Y150106D01*
X489838Y150105D01*
X489767Y150113D01*
X443553Y150113D01*
X416813Y176853D01*
X416813Y299267D01*
X416799Y299357D01*
X416791Y299448D01*
X416779Y299477D01*
X416774Y299509D01*
X416731Y299590D01*
X416695Y299674D01*
X416669Y299706D01*
X416658Y299727D01*
X416635Y299749D01*
X416590Y299805D01*
X413793Y302602D01*
X413793Y306998D01*
X416902Y310107D01*
X421298Y310107D01*
X424407Y306998D01*
X424407Y302602D01*
X421610Y299805D01*
X421557Y299731D01*
X421497Y299661D01*
X421485Y299631D01*
X421466Y299605D01*
X421439Y299518D01*
X421405Y299433D01*
X421401Y299392D01*
X421394Y299370D01*
X421395Y299338D01*
X421387Y299267D01*
X421387Y179063D01*
X421401Y178972D01*
X421409Y178882D01*
X421421Y178852D01*
X421426Y178820D01*
X421469Y178739D01*
X421505Y178655D01*
X421531Y178623D01*
X421542Y178602D01*
X421565Y178580D01*
X421610Y178524D01*
X445224Y154910D01*
X445298Y154857D01*
X445368Y154797D01*
X445398Y154785D01*
X445424Y154766D01*
X445511Y154739D01*
X445596Y154705D01*
X445637Y154701D01*
X445659Y154694D01*
X445691Y154695D01*
X445763Y154687D01*
X489767Y154687D01*
X489857Y154701D01*
X489948Y154709D01*
X489977Y154721D01*
X490009Y154726D01*
X490090Y154769D01*
X490174Y154805D01*
X490206Y154831D01*
X490227Y154842D01*
X490249Y154865D01*
X490305Y154910D01*
X493102Y157707D01*
X497498Y157707D01*
X500607Y154598D01*
X500607Y150202D01*
X497498Y147093D01*
X493102Y147093D01*
G37*
%LPD*%
%LPC*%
G36*
X328002Y108993D02*
X328002Y108993D01*
X324893Y112102D01*
X324893Y116498D01*
X328002Y119607D01*
X332398Y119607D01*
X335195Y116810D01*
X335269Y116757D01*
X335339Y116697D01*
X335369Y116685D01*
X335395Y116666D01*
X335482Y116639D01*
X335567Y116605D01*
X335608Y116601D01*
X335630Y116594D01*
X335662Y116595D01*
X335733Y116587D01*
X527867Y116587D01*
X527957Y116601D01*
X528048Y116609D01*
X528077Y116621D01*
X528109Y116626D01*
X528190Y116669D01*
X528274Y116705D01*
X528306Y116731D01*
X528327Y116742D01*
X528349Y116765D01*
X528405Y116810D01*
X531202Y119607D01*
X535598Y119607D01*
X538707Y116498D01*
X538707Y112102D01*
X535598Y108993D01*
X531202Y108993D01*
X528405Y111790D01*
X528331Y111843D01*
X528261Y111903D01*
X528231Y111915D01*
X528205Y111934D01*
X528118Y111961D01*
X528033Y111995D01*
X527992Y111999D01*
X527970Y112006D01*
X527938Y112005D01*
X527867Y112013D01*
X335733Y112013D01*
X335643Y111999D01*
X335552Y111991D01*
X335523Y111979D01*
X335491Y111974D01*
X335410Y111931D01*
X335326Y111895D01*
X335294Y111869D01*
X335273Y111858D01*
X335251Y111835D01*
X335195Y111790D01*
X332398Y108993D01*
X328002Y108993D01*
G37*
%LPD*%
%LPC*%
G36*
X404202Y388393D02*
X404202Y388393D01*
X401093Y391502D01*
X401093Y395898D01*
X404202Y399007D01*
X408598Y399007D01*
X411395Y396210D01*
X411469Y396157D01*
X411539Y396097D01*
X411569Y396085D01*
X411595Y396066D01*
X411682Y396039D01*
X411767Y396005D01*
X411808Y396001D01*
X411830Y395994D01*
X411862Y395995D01*
X411933Y395987D01*
X540567Y395987D01*
X540657Y396001D01*
X540748Y396009D01*
X540777Y396021D01*
X540809Y396026D01*
X540890Y396069D01*
X540974Y396105D01*
X541006Y396131D01*
X541027Y396142D01*
X541049Y396165D01*
X541105Y396210D01*
X543902Y399007D01*
X548298Y399007D01*
X551407Y395898D01*
X551407Y391502D01*
X548298Y388393D01*
X543902Y388393D01*
X541105Y391190D01*
X541031Y391243D01*
X540961Y391303D01*
X540931Y391315D01*
X540905Y391334D01*
X540818Y391361D01*
X540733Y391395D01*
X540692Y391399D01*
X540670Y391406D01*
X540638Y391405D01*
X540567Y391413D01*
X411933Y391413D01*
X411843Y391399D01*
X411752Y391391D01*
X411723Y391379D01*
X411691Y391374D01*
X411610Y391331D01*
X411526Y391295D01*
X411494Y391269D01*
X411473Y391258D01*
X411451Y391235D01*
X411395Y391190D01*
X408598Y388393D01*
X404202Y388393D01*
G37*
%LPD*%
%LPC*%
G36*
X488502Y132643D02*
X488502Y132643D01*
X485705Y135440D01*
X485631Y135493D01*
X485561Y135553D01*
X485531Y135565D01*
X485505Y135584D01*
X485418Y135611D01*
X485333Y135645D01*
X485292Y135649D01*
X485270Y135656D01*
X485238Y135655D01*
X485167Y135663D01*
X397483Y135663D01*
X397393Y135649D01*
X397302Y135641D01*
X397273Y135629D01*
X397241Y135624D01*
X397160Y135581D01*
X397076Y135545D01*
X397044Y135519D01*
X397023Y135508D01*
X397001Y135485D01*
X396945Y135440D01*
X395898Y134393D01*
X391502Y134393D01*
X388393Y137502D01*
X388393Y141898D01*
X391502Y145007D01*
X395898Y145007D01*
X399007Y141898D01*
X399007Y140998D01*
X399010Y140978D01*
X399008Y140959D01*
X399030Y140857D01*
X399046Y140755D01*
X399056Y140738D01*
X399060Y140718D01*
X399113Y140629D01*
X399162Y140538D01*
X399176Y140524D01*
X399186Y140507D01*
X399265Y140440D01*
X399340Y140368D01*
X399358Y140360D01*
X399373Y140347D01*
X399469Y140308D01*
X399563Y140265D01*
X399583Y140263D01*
X399601Y140255D01*
X399768Y140237D01*
X485167Y140237D01*
X485257Y140251D01*
X485348Y140259D01*
X485377Y140271D01*
X485409Y140276D01*
X485490Y140319D01*
X485574Y140355D01*
X485606Y140381D01*
X485627Y140392D01*
X485649Y140415D01*
X485705Y140460D01*
X488502Y143257D01*
X492898Y143257D01*
X496007Y140148D01*
X496007Y135752D01*
X492898Y132643D01*
X488502Y132643D01*
G37*
%LPD*%
%LPC*%
G36*
X569302Y312193D02*
X569302Y312193D01*
X566193Y315302D01*
X566193Y319698D01*
X569302Y322807D01*
X573257Y322807D01*
X573348Y322821D01*
X573438Y322829D01*
X573468Y322841D01*
X573500Y322846D01*
X573581Y322889D01*
X573665Y322925D01*
X573697Y322951D01*
X573718Y322962D01*
X573740Y322985D01*
X573796Y323030D01*
X581690Y330924D01*
X581743Y330998D01*
X581803Y331068D01*
X581815Y331098D01*
X581834Y331124D01*
X581861Y331211D01*
X581895Y331296D01*
X581899Y331337D01*
X581906Y331359D01*
X581905Y331391D01*
X581913Y331463D01*
X581913Y375467D01*
X581899Y375557D01*
X581891Y375648D01*
X581879Y375677D01*
X581874Y375709D01*
X581831Y375790D01*
X581795Y375874D01*
X581769Y375906D01*
X581758Y375927D01*
X581735Y375949D01*
X581690Y376005D01*
X578893Y378802D01*
X578893Y383198D01*
X582002Y386307D01*
X586398Y386307D01*
X589507Y383198D01*
X589507Y378802D01*
X586710Y376005D01*
X586657Y375931D01*
X586597Y375861D01*
X586585Y375831D01*
X586566Y375805D01*
X586539Y375718D01*
X586505Y375633D01*
X586501Y375592D01*
X586494Y375570D01*
X586495Y375538D01*
X586487Y375467D01*
X586487Y329253D01*
X577030Y319796D01*
X576977Y319722D01*
X576917Y319652D01*
X576905Y319622D01*
X576886Y319596D01*
X576859Y319509D01*
X576825Y319424D01*
X576821Y319383D01*
X576814Y319361D01*
X576815Y319329D01*
X576807Y319257D01*
X576807Y315302D01*
X573698Y312193D01*
X569302Y312193D01*
G37*
%LPD*%
%LPC*%
G36*
X630370Y166623D02*
X630370Y166623D01*
X623823Y173170D01*
X623823Y182430D01*
X630370Y188977D01*
X639630Y188977D01*
X646177Y182430D01*
X646177Y173170D01*
X639630Y166623D01*
X630370Y166623D01*
G37*
%LPD*%
%LPC*%
G36*
X67318Y15625D02*
X67318Y15625D01*
X66425Y16518D01*
X66425Y34282D01*
X67318Y35175D01*
X85082Y35175D01*
X85975Y34282D01*
X85975Y16518D01*
X85082Y15625D01*
X67318Y15625D01*
G37*
%LPD*%
%LPC*%
G36*
X105418Y15625D02*
X105418Y15625D01*
X104525Y16518D01*
X104525Y34282D01*
X105418Y35175D01*
X123182Y35175D01*
X124075Y34282D01*
X124075Y16518D01*
X123182Y15625D01*
X105418Y15625D01*
G37*
%LPD*%
%LPC*%
G36*
X35927Y90677D02*
X35927Y90677D01*
X31913Y92340D01*
X28840Y95413D01*
X27177Y99427D01*
X27177Y103773D01*
X28840Y107787D01*
X31913Y110860D01*
X35927Y112523D01*
X40273Y112523D01*
X44287Y110860D01*
X47360Y107787D01*
X49023Y103773D01*
X49023Y99427D01*
X47360Y95413D01*
X44287Y92340D01*
X40273Y90677D01*
X35927Y90677D01*
G37*
%LPD*%
%LPC*%
G36*
X35927Y116077D02*
X35927Y116077D01*
X31913Y117740D01*
X28840Y120813D01*
X27177Y124827D01*
X27177Y129173D01*
X28840Y133187D01*
X31913Y136260D01*
X35927Y137923D01*
X40273Y137923D01*
X44287Y136260D01*
X47360Y133187D01*
X49023Y129173D01*
X49023Y124827D01*
X47360Y120813D01*
X44287Y117740D01*
X40273Y116077D01*
X35927Y116077D01*
G37*
%LPD*%
%LPC*%
G36*
X112102Y235993D02*
X112102Y235993D01*
X108993Y239102D01*
X108993Y243498D01*
X111790Y246295D01*
X111843Y246369D01*
X111903Y246439D01*
X111915Y246469D01*
X111934Y246495D01*
X111961Y246582D01*
X111995Y246667D01*
X111999Y246708D01*
X112006Y246730D01*
X112005Y246762D01*
X112013Y246833D01*
X112013Y273867D01*
X111999Y273957D01*
X111991Y274048D01*
X111979Y274077D01*
X111974Y274109D01*
X111931Y274190D01*
X111895Y274274D01*
X111869Y274306D01*
X111858Y274327D01*
X111835Y274349D01*
X111790Y274405D01*
X108993Y277202D01*
X108993Y281598D01*
X112102Y284707D01*
X116498Y284707D01*
X119607Y281598D01*
X119607Y277202D01*
X116810Y274405D01*
X116757Y274331D01*
X116697Y274261D01*
X116685Y274231D01*
X116666Y274205D01*
X116639Y274118D01*
X116605Y274033D01*
X116601Y273992D01*
X116594Y273970D01*
X116595Y273938D01*
X116587Y273867D01*
X116587Y246833D01*
X116601Y246743D01*
X116609Y246652D01*
X116621Y246623D01*
X116626Y246591D01*
X116669Y246510D01*
X116705Y246426D01*
X116731Y246394D01*
X116742Y246373D01*
X116765Y246351D01*
X116810Y246295D01*
X119607Y243498D01*
X119607Y239102D01*
X116498Y235993D01*
X112102Y235993D01*
G37*
%LPD*%
%LPC*%
G36*
X137502Y235993D02*
X137502Y235993D01*
X134393Y239102D01*
X134393Y243498D01*
X137190Y246295D01*
X137243Y246369D01*
X137303Y246439D01*
X137315Y246469D01*
X137334Y246495D01*
X137361Y246582D01*
X137395Y246667D01*
X137399Y246708D01*
X137406Y246730D01*
X137405Y246762D01*
X137413Y246833D01*
X137413Y273867D01*
X137399Y273957D01*
X137391Y274048D01*
X137379Y274077D01*
X137374Y274109D01*
X137331Y274190D01*
X137295Y274274D01*
X137269Y274306D01*
X137258Y274327D01*
X137235Y274349D01*
X137190Y274405D01*
X134393Y277202D01*
X134393Y281598D01*
X137502Y284707D01*
X141898Y284707D01*
X145007Y281598D01*
X145007Y277202D01*
X142210Y274405D01*
X142157Y274331D01*
X142097Y274261D01*
X142085Y274231D01*
X142066Y274205D01*
X142039Y274118D01*
X142005Y274033D01*
X142001Y273992D01*
X141994Y273970D01*
X141995Y273938D01*
X141987Y273867D01*
X141987Y246833D01*
X142001Y246743D01*
X142009Y246652D01*
X142021Y246623D01*
X142026Y246591D01*
X142069Y246510D01*
X142105Y246426D01*
X142131Y246394D01*
X142142Y246373D01*
X142165Y246351D01*
X142210Y246295D01*
X145007Y243498D01*
X145007Y239102D01*
X141898Y235993D01*
X137502Y235993D01*
G37*
%LPD*%
%LPC*%
G36*
X112356Y66425D02*
X112356Y66425D01*
X108763Y67913D01*
X106013Y70663D01*
X104525Y74256D01*
X104525Y78144D01*
X106013Y81737D01*
X108763Y84487D01*
X112356Y85975D01*
X116244Y85975D01*
X119837Y84487D01*
X122587Y81737D01*
X124075Y78144D01*
X124075Y74256D01*
X122587Y70663D01*
X119837Y67913D01*
X116244Y66425D01*
X112356Y66425D01*
G37*
%LPD*%
%LPC*%
G36*
X74256Y66425D02*
X74256Y66425D01*
X70663Y67913D01*
X67913Y70663D01*
X66425Y74256D01*
X66425Y78144D01*
X67913Y81737D01*
X70663Y84487D01*
X74256Y85975D01*
X78144Y85975D01*
X81737Y84487D01*
X84487Y81737D01*
X85975Y78144D01*
X85975Y74256D01*
X84487Y70663D01*
X81737Y67913D01*
X78144Y66425D01*
X74256Y66425D01*
G37*
%LPD*%
%LPC*%
G36*
X112356Y41025D02*
X112356Y41025D01*
X108763Y42513D01*
X106013Y45263D01*
X104525Y48856D01*
X104525Y52744D01*
X106013Y56337D01*
X108763Y59087D01*
X112356Y60575D01*
X116244Y60575D01*
X119837Y59087D01*
X122587Y56337D01*
X124075Y52744D01*
X124075Y48856D01*
X122587Y45263D01*
X119837Y42513D01*
X116244Y41025D01*
X112356Y41025D01*
G37*
%LPD*%
%LPC*%
G36*
X74256Y41025D02*
X74256Y41025D01*
X70663Y42513D01*
X67913Y45263D01*
X66425Y48856D01*
X66425Y52744D01*
X67913Y56337D01*
X70663Y59087D01*
X74256Y60575D01*
X78144Y60575D01*
X81737Y59087D01*
X84487Y56337D01*
X85975Y52744D01*
X85975Y48856D01*
X84487Y45263D01*
X81737Y42513D01*
X78144Y41025D01*
X74256Y41025D01*
G37*
%LPD*%
%LPC*%
G36*
X137932Y308609D02*
X137932Y308609D01*
X134664Y309963D01*
X132163Y312464D01*
X130809Y315732D01*
X130809Y319268D01*
X132163Y322536D01*
X134664Y325037D01*
X137932Y326391D01*
X141468Y326391D01*
X144736Y325037D01*
X147237Y322536D01*
X148591Y319268D01*
X148591Y315732D01*
X147237Y312464D01*
X144736Y309963D01*
X141468Y308609D01*
X137932Y308609D01*
G37*
%LPD*%
%LPC*%
G36*
X112532Y308609D02*
X112532Y308609D01*
X109264Y309963D01*
X106763Y312464D01*
X105409Y315732D01*
X105409Y319268D01*
X106763Y322536D01*
X109264Y325037D01*
X112532Y326391D01*
X116068Y326391D01*
X119336Y325037D01*
X121837Y322536D01*
X123191Y319268D01*
X123191Y315732D01*
X121837Y312464D01*
X119336Y309963D01*
X116068Y308609D01*
X112532Y308609D01*
G37*
%LPD*%
%LPC*%
G36*
X61732Y308609D02*
X61732Y308609D01*
X58464Y309963D01*
X55963Y312464D01*
X54609Y315732D01*
X54609Y319268D01*
X55963Y322536D01*
X58464Y325037D01*
X61732Y326391D01*
X65268Y326391D01*
X68536Y325037D01*
X71037Y322536D01*
X72391Y319268D01*
X72391Y315732D01*
X71037Y312464D01*
X68536Y309963D01*
X65268Y308609D01*
X61732Y308609D01*
G37*
%LPD*%
%LPC*%
G36*
X36332Y308609D02*
X36332Y308609D01*
X33064Y309963D01*
X30563Y312464D01*
X29209Y315732D01*
X29209Y319268D01*
X30563Y322536D01*
X33064Y325037D01*
X36332Y326391D01*
X39868Y326391D01*
X43136Y325037D01*
X45637Y322536D01*
X46991Y319268D01*
X46991Y315732D01*
X45637Y312464D01*
X43136Y309963D01*
X39868Y308609D01*
X36332Y308609D01*
G37*
%LPD*%
%LPC*%
G36*
X366532Y308609D02*
X366532Y308609D01*
X363264Y309963D01*
X360763Y312464D01*
X359409Y315732D01*
X359409Y319268D01*
X360763Y322536D01*
X363264Y325037D01*
X366532Y326391D01*
X370068Y326391D01*
X373336Y325037D01*
X375837Y322536D01*
X377191Y319268D01*
X377191Y315732D01*
X375837Y312464D01*
X373336Y309963D01*
X370068Y308609D01*
X366532Y308609D01*
G37*
%LPD*%
%LPC*%
G36*
X112532Y156209D02*
X112532Y156209D01*
X109264Y157563D01*
X106763Y160064D01*
X105409Y163332D01*
X105409Y166868D01*
X106763Y170136D01*
X109264Y172637D01*
X112532Y173991D01*
X116068Y173991D01*
X119336Y172637D01*
X121837Y170136D01*
X123191Y166868D01*
X123191Y163332D01*
X121837Y160064D01*
X119336Y157563D01*
X116068Y156209D01*
X112532Y156209D01*
G37*
%LPD*%
%LPC*%
G36*
X366532Y283209D02*
X366532Y283209D01*
X363264Y284563D01*
X360763Y287064D01*
X359409Y290332D01*
X359409Y293868D01*
X360763Y297136D01*
X363264Y299637D01*
X366532Y300991D01*
X370068Y300991D01*
X373336Y299637D01*
X375837Y297136D01*
X377191Y293868D01*
X377191Y290332D01*
X375837Y287064D01*
X373336Y284563D01*
X370068Y283209D01*
X366532Y283209D01*
G37*
%LPD*%
%LPC*%
G36*
X366532Y257809D02*
X366532Y257809D01*
X363264Y259163D01*
X360763Y261664D01*
X359409Y264932D01*
X359409Y268468D01*
X360763Y271736D01*
X363264Y274237D01*
X366532Y275591D01*
X370068Y275591D01*
X373336Y274237D01*
X375837Y271736D01*
X377191Y268468D01*
X377191Y264932D01*
X375837Y261664D01*
X373336Y259163D01*
X370068Y257809D01*
X366532Y257809D01*
G37*
%LPD*%
%LPC*%
G36*
X366532Y232409D02*
X366532Y232409D01*
X363264Y233763D01*
X360763Y236264D01*
X359409Y239532D01*
X359409Y243068D01*
X360763Y246336D01*
X363264Y248837D01*
X366532Y250191D01*
X370068Y250191D01*
X373336Y248837D01*
X375837Y246336D01*
X377191Y243068D01*
X377191Y239532D01*
X375837Y236264D01*
X373336Y233763D01*
X370068Y232409D01*
X366532Y232409D01*
G37*
%LPD*%
%LPC*%
G36*
X214132Y308609D02*
X214132Y308609D01*
X210864Y309963D01*
X208363Y312464D01*
X207009Y315732D01*
X207009Y319268D01*
X208363Y322536D01*
X210864Y325037D01*
X214132Y326391D01*
X217668Y326391D01*
X220936Y325037D01*
X223437Y322536D01*
X224791Y319268D01*
X224791Y315732D01*
X223437Y312464D01*
X220936Y309963D01*
X217668Y308609D01*
X214132Y308609D01*
G37*
%LPD*%
%LPC*%
G36*
X366532Y181609D02*
X366532Y181609D01*
X363264Y182963D01*
X360763Y185464D01*
X359409Y188732D01*
X359409Y192268D01*
X360763Y195536D01*
X363264Y198037D01*
X366532Y199391D01*
X370068Y199391D01*
X373336Y198037D01*
X375837Y195536D01*
X377191Y192268D01*
X377191Y188732D01*
X375837Y185464D01*
X373336Y182963D01*
X370068Y181609D01*
X366532Y181609D01*
G37*
%LPD*%
%LPC*%
G36*
X87132Y156209D02*
X87132Y156209D01*
X83864Y157563D01*
X81363Y160064D01*
X80009Y163332D01*
X80009Y166868D01*
X81363Y170136D01*
X83864Y172637D01*
X87132Y173991D01*
X90668Y173991D01*
X93936Y172637D01*
X96437Y170136D01*
X97791Y166868D01*
X97791Y163332D01*
X96437Y160064D01*
X93936Y157563D01*
X90668Y156209D01*
X87132Y156209D01*
G37*
%LPD*%
%LPC*%
G36*
X61732Y156209D02*
X61732Y156209D01*
X58464Y157563D01*
X55963Y160064D01*
X54609Y163332D01*
X54609Y166868D01*
X55963Y170136D01*
X58464Y172637D01*
X61732Y173991D01*
X65268Y173991D01*
X68536Y172637D01*
X71037Y170136D01*
X72391Y166868D01*
X72391Y163332D01*
X71037Y160064D01*
X68536Y157563D01*
X65268Y156209D01*
X61732Y156209D01*
G37*
%LPD*%
%LPC*%
G36*
X36332Y156209D02*
X36332Y156209D01*
X33064Y157563D01*
X30563Y160064D01*
X29209Y163332D01*
X29209Y166868D01*
X30563Y170136D01*
X33064Y172637D01*
X36332Y173991D01*
X39868Y173991D01*
X43136Y172637D01*
X45637Y170136D01*
X46991Y166868D01*
X46991Y163332D01*
X45637Y160064D01*
X43136Y157563D01*
X39868Y156209D01*
X36332Y156209D01*
G37*
%LPD*%
%LPC*%
G36*
X366532Y156209D02*
X366532Y156209D01*
X363264Y157563D01*
X360763Y160064D01*
X359409Y163332D01*
X359409Y166868D01*
X360763Y170136D01*
X363264Y172637D01*
X366532Y173991D01*
X370068Y173991D01*
X373336Y172637D01*
X375837Y170136D01*
X377191Y166868D01*
X377191Y163332D01*
X375837Y160064D01*
X373336Y157563D01*
X370068Y156209D01*
X366532Y156209D01*
G37*
%LPD*%
%LPC*%
G36*
X341132Y156209D02*
X341132Y156209D01*
X337864Y157563D01*
X335363Y160064D01*
X334009Y163332D01*
X334009Y166868D01*
X335363Y170136D01*
X337864Y172637D01*
X341132Y173991D01*
X344668Y173991D01*
X347936Y172637D01*
X350437Y170136D01*
X351791Y166868D01*
X351791Y163332D01*
X350437Y160064D01*
X347936Y157563D01*
X344668Y156209D01*
X341132Y156209D01*
G37*
%LPD*%
%LPC*%
G36*
X315732Y156209D02*
X315732Y156209D01*
X312464Y157563D01*
X309963Y160064D01*
X308609Y163332D01*
X308609Y166868D01*
X309963Y170136D01*
X312464Y172637D01*
X315732Y173991D01*
X319268Y173991D01*
X322536Y172637D01*
X325037Y170136D01*
X326391Y166868D01*
X326391Y163332D01*
X325037Y160064D01*
X322536Y157563D01*
X319268Y156209D01*
X315732Y156209D01*
G37*
%LPD*%
%LPC*%
G36*
X290332Y156209D02*
X290332Y156209D01*
X287064Y157563D01*
X284563Y160064D01*
X283209Y163332D01*
X283209Y166868D01*
X284563Y170136D01*
X287064Y172637D01*
X290332Y173991D01*
X293868Y173991D01*
X297136Y172637D01*
X299637Y170136D01*
X300991Y166868D01*
X300991Y163332D01*
X299637Y160064D01*
X297136Y157563D01*
X293868Y156209D01*
X290332Y156209D01*
G37*
%LPD*%
%LPC*%
G36*
X264932Y156209D02*
X264932Y156209D01*
X261664Y157563D01*
X259163Y160064D01*
X257809Y163332D01*
X257809Y166868D01*
X259163Y170136D01*
X261664Y172637D01*
X264932Y173991D01*
X268468Y173991D01*
X271736Y172637D01*
X274237Y170136D01*
X275591Y166868D01*
X275591Y163332D01*
X274237Y160064D01*
X271736Y157563D01*
X268468Y156209D01*
X264932Y156209D01*
G37*
%LPD*%
%LPC*%
G36*
X239532Y156209D02*
X239532Y156209D01*
X236264Y157563D01*
X233763Y160064D01*
X232409Y163332D01*
X232409Y166868D01*
X233763Y170136D01*
X236264Y172637D01*
X239532Y173991D01*
X243068Y173991D01*
X246336Y172637D01*
X248837Y170136D01*
X250191Y166868D01*
X250191Y163332D01*
X248837Y160064D01*
X246336Y157563D01*
X243068Y156209D01*
X239532Y156209D01*
G37*
%LPD*%
%LPC*%
G36*
X188732Y156209D02*
X188732Y156209D01*
X185464Y157563D01*
X182963Y160064D01*
X181609Y163332D01*
X181609Y166868D01*
X182963Y170136D01*
X185464Y172637D01*
X188732Y173991D01*
X192268Y173991D01*
X195536Y172637D01*
X198037Y170136D01*
X199391Y166868D01*
X199391Y163332D01*
X198037Y160064D01*
X195536Y157563D01*
X192268Y156209D01*
X188732Y156209D01*
G37*
%LPD*%
%LPC*%
G36*
X163332Y156209D02*
X163332Y156209D01*
X160064Y157563D01*
X157563Y160064D01*
X156209Y163332D01*
X156209Y166868D01*
X157563Y170136D01*
X160064Y172637D01*
X163332Y173991D01*
X166868Y173991D01*
X170136Y172637D01*
X172637Y170136D01*
X173991Y166868D01*
X173991Y163332D01*
X172637Y160064D01*
X170136Y157563D01*
X166868Y156209D01*
X163332Y156209D01*
G37*
%LPD*%
%LPC*%
G36*
X137932Y156209D02*
X137932Y156209D01*
X134664Y157563D01*
X132163Y160064D01*
X130809Y163332D01*
X130809Y166868D01*
X132163Y170136D01*
X134664Y172637D01*
X137932Y173991D01*
X141468Y173991D01*
X144736Y172637D01*
X147237Y170136D01*
X148591Y166868D01*
X148591Y163332D01*
X147237Y160064D01*
X144736Y157563D01*
X141468Y156209D01*
X137932Y156209D01*
G37*
%LPD*%
%LPC*%
G36*
X341132Y308609D02*
X341132Y308609D01*
X337864Y309963D01*
X335363Y312464D01*
X334009Y315732D01*
X334009Y319268D01*
X335363Y322536D01*
X337864Y325037D01*
X341132Y326391D01*
X344668Y326391D01*
X347936Y325037D01*
X350437Y322536D01*
X351791Y319268D01*
X351791Y315732D01*
X350437Y312464D01*
X347936Y309963D01*
X344668Y308609D01*
X341132Y308609D01*
G37*
%LPD*%
%LPC*%
G36*
X315732Y308609D02*
X315732Y308609D01*
X312464Y309963D01*
X309963Y312464D01*
X308609Y315732D01*
X308609Y319268D01*
X309963Y322536D01*
X312464Y325037D01*
X315732Y326391D01*
X319268Y326391D01*
X322536Y325037D01*
X325037Y322536D01*
X326391Y319268D01*
X326391Y315732D01*
X325037Y312464D01*
X322536Y309963D01*
X319268Y308609D01*
X315732Y308609D01*
G37*
%LPD*%
%LPC*%
G36*
X290332Y308609D02*
X290332Y308609D01*
X287064Y309963D01*
X284563Y312464D01*
X283209Y315732D01*
X283209Y319268D01*
X284563Y322536D01*
X287064Y325037D01*
X290332Y326391D01*
X293868Y326391D01*
X297136Y325037D01*
X299637Y322536D01*
X300991Y319268D01*
X300991Y315732D01*
X299637Y312464D01*
X297136Y309963D01*
X293868Y308609D01*
X290332Y308609D01*
G37*
%LPD*%
%LPC*%
G36*
X264932Y308609D02*
X264932Y308609D01*
X261664Y309963D01*
X259163Y312464D01*
X257809Y315732D01*
X257809Y319268D01*
X259163Y322536D01*
X261664Y325037D01*
X264932Y326391D01*
X268468Y326391D01*
X271736Y325037D01*
X274237Y322536D01*
X275591Y319268D01*
X275591Y315732D01*
X274237Y312464D01*
X271736Y309963D01*
X268468Y308609D01*
X264932Y308609D01*
G37*
%LPD*%
%LPC*%
G36*
X239532Y308609D02*
X239532Y308609D01*
X236264Y309963D01*
X233763Y312464D01*
X232409Y315732D01*
X232409Y319268D01*
X233763Y322536D01*
X236264Y325037D01*
X239532Y326391D01*
X243068Y326391D01*
X246336Y325037D01*
X248837Y322536D01*
X250191Y319268D01*
X250191Y315732D01*
X248837Y312464D01*
X246336Y309963D01*
X243068Y308609D01*
X239532Y308609D01*
G37*
%LPD*%
%LPC*%
G36*
X188732Y308609D02*
X188732Y308609D01*
X185464Y309963D01*
X182963Y312464D01*
X181609Y315732D01*
X181609Y319268D01*
X182963Y322536D01*
X185464Y325037D01*
X188732Y326391D01*
X192268Y326391D01*
X195536Y325037D01*
X198037Y322536D01*
X199391Y319268D01*
X199391Y315732D01*
X198037Y312464D01*
X195536Y309963D01*
X192268Y308609D01*
X188732Y308609D01*
G37*
%LPD*%
%LPC*%
G36*
X163332Y308609D02*
X163332Y308609D01*
X160064Y309963D01*
X157563Y312464D01*
X156209Y315732D01*
X156209Y319268D01*
X157563Y322536D01*
X160064Y325037D01*
X163332Y326391D01*
X166868Y326391D01*
X170136Y325037D01*
X172637Y322536D01*
X173991Y319268D01*
X173991Y315732D01*
X172637Y312464D01*
X170136Y309963D01*
X166868Y308609D01*
X163332Y308609D01*
G37*
%LPD*%
%LPC*%
G36*
X214132Y156209D02*
X214132Y156209D01*
X210864Y157563D01*
X208363Y160064D01*
X207009Y163332D01*
X207009Y166868D01*
X208363Y170136D01*
X210864Y172637D01*
X214132Y173991D01*
X217668Y173991D01*
X220936Y172637D01*
X223437Y170136D01*
X224791Y166868D01*
X224791Y163332D01*
X223437Y160064D01*
X220936Y157563D01*
X217668Y156209D01*
X214132Y156209D01*
G37*
%LPD*%
%LPC*%
G36*
X369823Y217423D02*
X369823Y217423D01*
X369823Y225689D01*
X370620Y225563D01*
X372103Y225081D01*
X373492Y224373D01*
X374754Y223456D01*
X375856Y222354D01*
X376773Y221092D01*
X377481Y219703D01*
X377963Y218220D01*
X378089Y217423D01*
X369823Y217423D01*
G37*
%LPD*%
%LPC*%
G36*
X90423Y319023D02*
X90423Y319023D01*
X90423Y327289D01*
X91220Y327163D01*
X92703Y326681D01*
X94092Y325973D01*
X95354Y325056D01*
X96456Y323954D01*
X97373Y322692D01*
X98081Y321303D01*
X98563Y319820D01*
X98689Y319023D01*
X90423Y319023D01*
G37*
%LPD*%
%LPC*%
G36*
X79111Y319023D02*
X79111Y319023D01*
X79237Y319820D01*
X79719Y321303D01*
X80427Y322692D01*
X81344Y323954D01*
X82446Y325056D01*
X83708Y325973D01*
X85097Y326681D01*
X86580Y327163D01*
X87377Y327289D01*
X87377Y319023D01*
X79111Y319023D01*
G37*
%LPD*%
%LPC*%
G36*
X369823Y214377D02*
X369823Y214377D01*
X378089Y214377D01*
X377963Y213580D01*
X377481Y212097D01*
X376773Y210708D01*
X375856Y209446D01*
X374754Y208344D01*
X373492Y207427D01*
X372103Y206719D01*
X370620Y206237D01*
X369823Y206111D01*
X369823Y214377D01*
G37*
%LPD*%
%LPC*%
G36*
X358511Y217423D02*
X358511Y217423D01*
X358637Y218220D01*
X359119Y219703D01*
X359827Y221092D01*
X360744Y222354D01*
X361846Y223456D01*
X363108Y224373D01*
X364497Y225081D01*
X365980Y225563D01*
X366777Y225689D01*
X366777Y217423D01*
X358511Y217423D01*
G37*
%LPD*%
%LPC*%
G36*
X90423Y315977D02*
X90423Y315977D01*
X98689Y315977D01*
X98563Y315180D01*
X98081Y313697D01*
X97373Y312308D01*
X96456Y311046D01*
X95354Y309944D01*
X94092Y309027D01*
X92703Y308319D01*
X91220Y307837D01*
X90423Y307711D01*
X90423Y315977D01*
G37*
%LPD*%
%LPC*%
G36*
X365980Y206237D02*
X365980Y206237D01*
X364497Y206719D01*
X363108Y207427D01*
X361846Y208344D01*
X360744Y209446D01*
X359827Y210708D01*
X359119Y212097D01*
X358637Y213580D01*
X358511Y214377D01*
X366777Y214377D01*
X366777Y206111D01*
X365980Y206237D01*
G37*
%LPD*%
%LPC*%
G36*
X86580Y307837D02*
X86580Y307837D01*
X85097Y308319D01*
X83708Y309027D01*
X82446Y309944D01*
X81344Y311046D01*
X80427Y312308D01*
X79719Y313697D01*
X79237Y315180D01*
X79111Y315977D01*
X87377Y315977D01*
X87377Y307711D01*
X86580Y307837D01*
G37*
%LPD*%
%LPC*%
G36*
X368299Y215899D02*
X368299Y215899D01*
X368299Y215901D01*
X368301Y215901D01*
X368301Y215899D01*
X368299Y215899D01*
G37*
%LPD*%
%LPC*%
G36*
X88899Y317499D02*
X88899Y317499D01*
X88899Y317501D01*
X88901Y317501D01*
X88901Y317499D01*
X88899Y317499D01*
G37*
%LPD*%
D10*
X114300Y25400D03*
D11*
X114300Y50800D03*
X114300Y76200D03*
D10*
X76200Y25400D03*
D11*
X76200Y50800D03*
X76200Y76200D03*
D12*
X38100Y165100D03*
X63500Y165100D03*
X88900Y165100D03*
X114300Y165100D03*
X139700Y165100D03*
X165100Y165100D03*
X190500Y165100D03*
X215900Y165100D03*
X241300Y165100D03*
X266700Y165100D03*
X292100Y165100D03*
X317500Y165100D03*
X342900Y165100D03*
X368300Y165100D03*
X368300Y190500D03*
X368300Y215900D03*
X368300Y241300D03*
X368300Y266700D03*
X368300Y292100D03*
X368300Y317500D03*
X342900Y317500D03*
X317500Y317500D03*
X292100Y317500D03*
X266700Y317500D03*
X241300Y317500D03*
X215900Y317500D03*
X190500Y317500D03*
X165100Y317500D03*
X139700Y317500D03*
X114300Y317500D03*
X88900Y317500D03*
X63500Y317500D03*
X38100Y317500D03*
D13*
X635000Y177800D03*
D14*
X38100Y127000D03*
X38100Y101600D03*
D15*
X25400Y419100D03*
D16*
X50800Y419100D01*
D15*
X50800Y419100D03*
D16*
X50800Y444500D01*
X63500Y457200D01*
X63500Y482600D01*
D15*
X63500Y482600D03*
X219710Y468630D03*
D16*
X229870Y468630D01*
X241300Y457200D01*
D15*
X241300Y457200D03*
D16*
X63500Y482600D02*
X63500Y495300D01*
X215900Y495300D01*
X219710Y491490D01*
X219710Y468630D01*
D15*
X584200Y381000D03*
D16*
X584200Y330200D01*
X571500Y317500D01*
D15*
X571500Y317500D03*
X406400Y393700D03*
D16*
X546100Y393700D01*
D15*
X546100Y393700D03*
X172720Y388620D03*
X114300Y431800D03*
X647700Y431800D03*
X203200Y228600D03*
X152400Y127000D03*
D16*
X152400Y190500D01*
X190500Y228600D01*
X203200Y228600D01*
D15*
X609600Y393700D03*
D16*
X609600Y266700D01*
X596900Y254000D01*
X571500Y254000D01*
D15*
X571500Y254000D03*
X355600Y393700D03*
D16*
X355600Y406400D01*
X172720Y388620D02*
X129540Y431800D01*
X114300Y431800D01*
D15*
X148590Y457200D03*
D16*
X228600Y457200D01*
X228600Y363220D01*
D15*
X228600Y363220D03*
X140970Y477520D03*
D16*
X139700Y476250D01*
X139700Y444500D01*
X215900Y444500D01*
X215900Y342900D01*
D15*
X215900Y342900D03*
X139700Y279400D03*
D16*
X139700Y241300D01*
D15*
X139700Y241300D03*
X114300Y279400D03*
D16*
X114300Y241300D01*
D15*
X114300Y241300D03*
X368300Y38100D03*
D16*
X622300Y38100D01*
D15*
X622300Y38100D03*
X368300Y50800D03*
D16*
X609600Y50800D01*
X660400Y101600D01*
X660400Y381000D01*
X635000Y406400D01*
D15*
X457200Y406400D03*
D16*
X635000Y406400D01*
D15*
X495300Y152400D03*
D16*
X444500Y152400D01*
X419100Y177800D02*
X419100Y304800D01*
D15*
X419100Y304800D03*
D16*
X419100Y177800D02*
X444500Y152400D01*
D15*
X393700Y139700D03*
X490700Y137950D03*
D16*
X395450Y137950D01*
X393700Y139700D01*
X330200Y114300D02*
X533400Y114300D01*
D15*
X330200Y114300D03*
X533400Y114300D03*
M02*
