G04 EAGLE Gerber RS-274X export*
G75*
%MOMM*%
%FSLAX34Y34*%
%LPD*%
%IN*%
%IPPOS*%
%AMOC8*
5,1,8,0,0,1.08239X$1,22.5*%
G01*
%ADD10C,0.254000*%


D10*
X0Y25400D02*
X97Y23186D01*
X386Y20989D01*
X865Y18826D01*
X1532Y16713D01*
X2380Y14666D01*
X3403Y12700D01*
X4594Y10831D01*
X5942Y9073D01*
X7440Y7440D01*
X9073Y5942D01*
X10831Y4594D01*
X12700Y3403D01*
X14666Y2380D01*
X16713Y1532D01*
X18826Y865D01*
X20989Y386D01*
X23186Y97D01*
X25400Y0D01*
X660400Y0D01*
X662596Y96D01*
X664776Y383D01*
X666922Y859D01*
X669019Y1520D01*
X671050Y2361D01*
X673000Y3376D01*
X674854Y4557D01*
X676598Y5896D01*
X678219Y7381D01*
X679704Y9002D01*
X681043Y10746D01*
X682224Y12600D01*
X683239Y14550D01*
X684080Y16581D01*
X684741Y18678D01*
X685217Y20824D01*
X685504Y23004D01*
X685600Y25200D01*
X685600Y495300D01*
X685534Y496817D01*
X685336Y498321D01*
X685007Y499803D01*
X684551Y501251D01*
X683970Y502654D01*
X683269Y504000D01*
X682453Y505280D01*
X681529Y506485D01*
X680504Y507604D01*
X679385Y508629D01*
X678180Y509553D01*
X676900Y510369D01*
X675554Y511070D01*
X674151Y511651D01*
X672703Y512107D01*
X671221Y512436D01*
X669717Y512634D01*
X668200Y512700D01*
X17400Y512700D01*
X15884Y512634D01*
X14379Y512436D01*
X12897Y512107D01*
X11449Y511651D01*
X10046Y511070D01*
X8700Y510369D01*
X7420Y509553D01*
X6216Y508629D01*
X5096Y507604D01*
X4071Y506485D01*
X3147Y505280D01*
X2331Y504000D01*
X1630Y502654D01*
X1049Y501251D01*
X593Y499803D01*
X264Y498321D01*
X66Y496817D01*
X0Y495300D01*
X0Y25400D01*
X528664Y335600D02*
X527596Y335676D01*
X526535Y335829D01*
X525488Y336057D01*
X524460Y336359D01*
X523456Y336733D01*
X522481Y337178D01*
X521541Y337692D01*
X520640Y338271D01*
X519782Y338913D01*
X518972Y339615D01*
X518215Y340372D01*
X517513Y341182D01*
X516871Y342040D01*
X516292Y342941D01*
X515778Y343881D01*
X515333Y344856D01*
X514959Y345860D01*
X514657Y346888D01*
X514429Y347935D01*
X514276Y348996D01*
X514200Y350064D01*
X514200Y351136D01*
X514276Y352204D01*
X514429Y353265D01*
X514657Y354312D01*
X514959Y355340D01*
X515333Y356344D01*
X515778Y357319D01*
X516292Y358259D01*
X516871Y359160D01*
X517513Y360018D01*
X518215Y360828D01*
X518972Y361585D01*
X519782Y362287D01*
X520640Y362929D01*
X521541Y363508D01*
X522481Y364022D01*
X523456Y364467D01*
X524460Y364841D01*
X525488Y365143D01*
X526535Y365371D01*
X527596Y365524D01*
X528664Y365600D01*
X529736Y365600D01*
X530804Y365524D01*
X531865Y365371D01*
X532912Y365143D01*
X533940Y364841D01*
X534944Y364467D01*
X535919Y364022D01*
X536859Y363508D01*
X537760Y362929D01*
X538618Y362287D01*
X539428Y361585D01*
X540185Y360828D01*
X540887Y360018D01*
X541529Y359160D01*
X542108Y358259D01*
X542622Y357319D01*
X543067Y356344D01*
X543441Y355340D01*
X543743Y354312D01*
X543971Y353265D01*
X544124Y352204D01*
X544200Y351136D01*
X544200Y350064D01*
X544124Y348996D01*
X543971Y347935D01*
X543743Y346888D01*
X543441Y345860D01*
X543067Y344856D01*
X542622Y343881D01*
X542108Y342941D01*
X541529Y342040D01*
X540887Y341182D01*
X540185Y340372D01*
X539428Y339615D01*
X538618Y338913D01*
X537760Y338271D01*
X536859Y337692D01*
X535919Y337178D01*
X534944Y336733D01*
X533940Y336359D01*
X532912Y336057D01*
X531865Y335829D01*
X530804Y335676D01*
X529736Y335600D01*
X528664Y335600D01*
M02*
