G04 EAGLE Gerber RS-274X export*
G75*
%MOMM*%
%FSLAX34Y34*%
%LPD*%
%INSilkscreen Top*%
%IPPOS*%
%AMOC8*
5,1,8,0,0,1.08239X$1,22.5*%
G01*
%ADD10C,0.076200*%
%ADD11C,0.120000*%
%ADD12R,1.000000X0.250000*%
%ADD13C,0.127000*%
%ADD14C,0.200000*%
%ADD15C,0.101600*%
%ADD16C,0.203200*%
%ADD17C,0.025400*%
%ADD18C,0.812800*%
%ADD19C,0.152400*%
%ADD20R,0.250000X1.000000*%


D10*
X21886Y72771D02*
X21964Y72773D01*
X22042Y72778D01*
X22119Y72788D01*
X22196Y72801D01*
X22272Y72817D01*
X22347Y72837D01*
X22421Y72861D01*
X22494Y72888D01*
X22566Y72919D01*
X22636Y72953D01*
X22705Y72990D01*
X22771Y73031D01*
X22836Y73075D01*
X22898Y73121D01*
X22958Y73171D01*
X23016Y73223D01*
X23071Y73278D01*
X23123Y73336D01*
X23173Y73396D01*
X23219Y73458D01*
X23263Y73523D01*
X23304Y73590D01*
X23341Y73658D01*
X23375Y73728D01*
X23406Y73800D01*
X23433Y73873D01*
X23457Y73947D01*
X23477Y74022D01*
X23493Y74098D01*
X23506Y74175D01*
X23516Y74252D01*
X23521Y74330D01*
X23523Y74408D01*
X21886Y72771D02*
X21772Y72773D01*
X21659Y72778D01*
X21545Y72788D01*
X21432Y72801D01*
X21320Y72818D01*
X21208Y72838D01*
X21097Y72862D01*
X20986Y72890D01*
X20877Y72921D01*
X20769Y72956D01*
X20662Y72995D01*
X20556Y73037D01*
X20452Y73082D01*
X20349Y73131D01*
X20248Y73184D01*
X20149Y73239D01*
X20051Y73298D01*
X19956Y73360D01*
X19863Y73425D01*
X19771Y73493D01*
X19683Y73564D01*
X19596Y73638D01*
X19512Y73715D01*
X19431Y73794D01*
X19635Y78500D02*
X19637Y78578D01*
X19642Y78656D01*
X19652Y78733D01*
X19665Y78810D01*
X19681Y78886D01*
X19701Y78961D01*
X19725Y79035D01*
X19752Y79108D01*
X19783Y79180D01*
X19817Y79250D01*
X19854Y79319D01*
X19895Y79385D01*
X19939Y79450D01*
X19985Y79512D01*
X20035Y79572D01*
X20087Y79630D01*
X20142Y79685D01*
X20200Y79737D01*
X20260Y79787D01*
X20322Y79833D01*
X20387Y79877D01*
X20454Y79918D01*
X20522Y79955D01*
X20592Y79989D01*
X20664Y80020D01*
X20737Y80047D01*
X20811Y80071D01*
X20886Y80091D01*
X20962Y80107D01*
X21039Y80120D01*
X21116Y80130D01*
X21194Y80135D01*
X21272Y80137D01*
X21382Y80135D01*
X21491Y80129D01*
X21601Y80119D01*
X21709Y80106D01*
X21818Y80088D01*
X21925Y80067D01*
X22032Y80041D01*
X22138Y80012D01*
X22243Y79980D01*
X22346Y79943D01*
X22448Y79903D01*
X22549Y79859D01*
X22648Y79811D01*
X22745Y79761D01*
X22840Y79706D01*
X22933Y79648D01*
X23024Y79587D01*
X23113Y79523D01*
X20454Y77067D02*
X20387Y77109D01*
X20322Y77153D01*
X20260Y77201D01*
X20200Y77251D01*
X20142Y77304D01*
X20087Y77360D01*
X20035Y77419D01*
X19985Y77479D01*
X19938Y77543D01*
X19895Y77608D01*
X19854Y77675D01*
X19817Y77744D01*
X19783Y77815D01*
X19752Y77887D01*
X19725Y77961D01*
X19701Y78035D01*
X19681Y78111D01*
X19665Y78188D01*
X19652Y78265D01*
X19642Y78343D01*
X19637Y78422D01*
X19635Y78500D01*
X22705Y75840D02*
X22771Y75798D01*
X22836Y75754D01*
X22898Y75707D01*
X22958Y75656D01*
X23016Y75603D01*
X23071Y75547D01*
X23124Y75489D01*
X23173Y75428D01*
X23220Y75365D01*
X23263Y75300D01*
X23304Y75233D01*
X23341Y75164D01*
X23375Y75093D01*
X23406Y75021D01*
X23433Y74947D01*
X23457Y74872D01*
X23477Y74797D01*
X23493Y74720D01*
X23506Y74643D01*
X23516Y74565D01*
X23521Y74486D01*
X23523Y74408D01*
X22705Y75840D02*
X20454Y77068D01*
X26762Y72771D02*
X30036Y72771D01*
X26762Y72771D02*
X26762Y80137D01*
X30036Y80137D01*
X29217Y76863D02*
X26762Y76863D01*
X33137Y80137D02*
X33137Y72771D01*
X33137Y80137D02*
X35183Y80137D01*
X35272Y80135D01*
X35361Y80129D01*
X35450Y80119D01*
X35538Y80106D01*
X35626Y80089D01*
X35713Y80067D01*
X35798Y80042D01*
X35883Y80014D01*
X35966Y79981D01*
X36048Y79945D01*
X36128Y79906D01*
X36206Y79863D01*
X36282Y79817D01*
X36357Y79767D01*
X36429Y79714D01*
X36498Y79658D01*
X36565Y79599D01*
X36630Y79538D01*
X36691Y79473D01*
X36750Y79406D01*
X36806Y79337D01*
X36859Y79265D01*
X36909Y79190D01*
X36955Y79114D01*
X36998Y79036D01*
X37037Y78956D01*
X37073Y78874D01*
X37106Y78791D01*
X37134Y78706D01*
X37159Y78621D01*
X37181Y78534D01*
X37198Y78446D01*
X37211Y78358D01*
X37221Y78269D01*
X37227Y78180D01*
X37229Y78091D01*
X37227Y78002D01*
X37221Y77913D01*
X37211Y77824D01*
X37198Y77736D01*
X37181Y77648D01*
X37159Y77561D01*
X37134Y77476D01*
X37106Y77391D01*
X37073Y77308D01*
X37037Y77226D01*
X36998Y77146D01*
X36955Y77068D01*
X36909Y76992D01*
X36859Y76917D01*
X36806Y76845D01*
X36750Y76776D01*
X36691Y76709D01*
X36630Y76644D01*
X36565Y76583D01*
X36498Y76524D01*
X36429Y76468D01*
X36357Y76415D01*
X36282Y76365D01*
X36206Y76319D01*
X36128Y76276D01*
X36048Y76237D01*
X35966Y76201D01*
X35883Y76168D01*
X35798Y76140D01*
X35713Y76115D01*
X35626Y76093D01*
X35538Y76076D01*
X35450Y76063D01*
X35361Y76053D01*
X35272Y76047D01*
X35183Y76045D01*
X33137Y76045D01*
X35593Y76045D02*
X37229Y72771D01*
X42447Y72771D02*
X39992Y80137D01*
X44903Y80137D02*
X42447Y72771D01*
X47716Y74817D02*
X47716Y78091D01*
X47718Y78180D01*
X47724Y78269D01*
X47734Y78358D01*
X47747Y78446D01*
X47764Y78534D01*
X47786Y78621D01*
X47811Y78706D01*
X47839Y78791D01*
X47872Y78874D01*
X47908Y78956D01*
X47947Y79036D01*
X47990Y79114D01*
X48036Y79190D01*
X48086Y79265D01*
X48139Y79337D01*
X48195Y79406D01*
X48254Y79473D01*
X48315Y79538D01*
X48380Y79599D01*
X48447Y79658D01*
X48516Y79714D01*
X48588Y79767D01*
X48663Y79817D01*
X48739Y79863D01*
X48817Y79906D01*
X48897Y79945D01*
X48979Y79981D01*
X49062Y80014D01*
X49147Y80042D01*
X49232Y80067D01*
X49319Y80089D01*
X49407Y80106D01*
X49495Y80119D01*
X49584Y80129D01*
X49673Y80135D01*
X49762Y80137D01*
X49851Y80135D01*
X49940Y80129D01*
X50029Y80119D01*
X50117Y80106D01*
X50205Y80089D01*
X50292Y80067D01*
X50377Y80042D01*
X50462Y80014D01*
X50545Y79981D01*
X50627Y79945D01*
X50707Y79906D01*
X50785Y79863D01*
X50861Y79817D01*
X50936Y79767D01*
X51008Y79714D01*
X51077Y79658D01*
X51144Y79599D01*
X51209Y79538D01*
X51270Y79473D01*
X51329Y79406D01*
X51385Y79337D01*
X51438Y79265D01*
X51488Y79190D01*
X51534Y79114D01*
X51577Y79036D01*
X51616Y78956D01*
X51652Y78874D01*
X51685Y78791D01*
X51713Y78706D01*
X51738Y78621D01*
X51760Y78534D01*
X51777Y78446D01*
X51790Y78358D01*
X51800Y78269D01*
X51806Y78180D01*
X51808Y78091D01*
X51809Y78091D02*
X51809Y74817D01*
X51808Y74817D02*
X51806Y74728D01*
X51800Y74639D01*
X51790Y74550D01*
X51777Y74462D01*
X51760Y74374D01*
X51738Y74287D01*
X51713Y74202D01*
X51685Y74117D01*
X51652Y74034D01*
X51616Y73952D01*
X51577Y73872D01*
X51534Y73794D01*
X51488Y73718D01*
X51438Y73643D01*
X51385Y73571D01*
X51329Y73502D01*
X51270Y73435D01*
X51209Y73370D01*
X51144Y73309D01*
X51077Y73250D01*
X51008Y73194D01*
X50936Y73141D01*
X50861Y73091D01*
X50785Y73045D01*
X50707Y73002D01*
X50627Y72963D01*
X50545Y72927D01*
X50462Y72894D01*
X50377Y72866D01*
X50292Y72841D01*
X50205Y72819D01*
X50117Y72802D01*
X50029Y72789D01*
X49940Y72779D01*
X49851Y72773D01*
X49762Y72771D01*
X49673Y72773D01*
X49584Y72779D01*
X49495Y72789D01*
X49407Y72802D01*
X49319Y72819D01*
X49232Y72841D01*
X49147Y72866D01*
X49062Y72894D01*
X48979Y72927D01*
X48897Y72963D01*
X48817Y73002D01*
X48739Y73045D01*
X48663Y73091D01*
X48588Y73141D01*
X48516Y73194D01*
X48447Y73250D01*
X48380Y73309D01*
X48315Y73370D01*
X48254Y73435D01*
X48195Y73502D01*
X48139Y73571D01*
X48086Y73643D01*
X48036Y73718D01*
X47990Y73794D01*
X47947Y73872D01*
X47908Y73952D01*
X47872Y74034D01*
X47839Y74117D01*
X47811Y74202D01*
X47786Y74287D01*
X47764Y74374D01*
X47747Y74462D01*
X47734Y74550D01*
X47724Y74639D01*
X47718Y74728D01*
X47716Y74817D01*
X62936Y130203D02*
X64163Y130203D01*
X64163Y126111D01*
X61708Y126111D01*
X61630Y126113D01*
X61552Y126118D01*
X61475Y126128D01*
X61398Y126141D01*
X61322Y126157D01*
X61247Y126177D01*
X61173Y126201D01*
X61100Y126228D01*
X61028Y126259D01*
X60958Y126293D01*
X60890Y126330D01*
X60823Y126371D01*
X60758Y126415D01*
X60696Y126461D01*
X60636Y126511D01*
X60578Y126563D01*
X60523Y126618D01*
X60471Y126676D01*
X60421Y126736D01*
X60375Y126798D01*
X60331Y126863D01*
X60290Y126930D01*
X60253Y126998D01*
X60219Y127068D01*
X60188Y127140D01*
X60161Y127213D01*
X60137Y127287D01*
X60117Y127362D01*
X60101Y127438D01*
X60088Y127515D01*
X60078Y127592D01*
X60073Y127670D01*
X60071Y127748D01*
X60071Y131840D01*
X60073Y131920D01*
X60079Y132000D01*
X60089Y132080D01*
X60102Y132159D01*
X60120Y132238D01*
X60141Y132315D01*
X60167Y132391D01*
X60196Y132466D01*
X60228Y132540D01*
X60264Y132612D01*
X60304Y132682D01*
X60347Y132749D01*
X60393Y132815D01*
X60443Y132878D01*
X60495Y132939D01*
X60550Y132998D01*
X60609Y133053D01*
X60669Y133105D01*
X60733Y133155D01*
X60799Y133201D01*
X60866Y133244D01*
X60936Y133284D01*
X61008Y133320D01*
X61082Y133352D01*
X61156Y133381D01*
X61233Y133407D01*
X61310Y133428D01*
X61389Y133446D01*
X61468Y133459D01*
X61548Y133469D01*
X61628Y133475D01*
X61708Y133477D01*
X64163Y133477D01*
X67874Y133477D02*
X67874Y126111D01*
X71966Y126111D02*
X67874Y133477D01*
X71966Y133477D02*
X71966Y126111D01*
X75677Y126111D02*
X75677Y133477D01*
X77723Y133477D01*
X77812Y133475D01*
X77901Y133469D01*
X77990Y133459D01*
X78078Y133446D01*
X78166Y133429D01*
X78253Y133407D01*
X78338Y133382D01*
X78423Y133354D01*
X78506Y133321D01*
X78588Y133285D01*
X78668Y133246D01*
X78746Y133203D01*
X78822Y133157D01*
X78897Y133107D01*
X78969Y133054D01*
X79038Y132998D01*
X79105Y132939D01*
X79170Y132878D01*
X79231Y132813D01*
X79290Y132746D01*
X79346Y132677D01*
X79399Y132605D01*
X79449Y132530D01*
X79495Y132454D01*
X79538Y132376D01*
X79577Y132296D01*
X79613Y132214D01*
X79646Y132131D01*
X79674Y132046D01*
X79699Y131961D01*
X79721Y131874D01*
X79738Y131786D01*
X79751Y131698D01*
X79761Y131609D01*
X79767Y131520D01*
X79769Y131431D01*
X79769Y128157D01*
X79767Y128068D01*
X79761Y127979D01*
X79751Y127890D01*
X79738Y127802D01*
X79721Y127714D01*
X79699Y127627D01*
X79674Y127542D01*
X79646Y127457D01*
X79613Y127374D01*
X79577Y127292D01*
X79538Y127212D01*
X79495Y127134D01*
X79449Y127058D01*
X79399Y126983D01*
X79346Y126911D01*
X79290Y126842D01*
X79231Y126775D01*
X79170Y126710D01*
X79105Y126649D01*
X79038Y126590D01*
X78969Y126534D01*
X78897Y126481D01*
X78822Y126431D01*
X78746Y126385D01*
X78668Y126342D01*
X78588Y126303D01*
X78506Y126267D01*
X78423Y126234D01*
X78338Y126206D01*
X78253Y126181D01*
X78166Y126159D01*
X78078Y126142D01*
X77990Y126129D01*
X77901Y126119D01*
X77812Y126113D01*
X77723Y126111D01*
X75677Y126111D01*
D11*
X147900Y102850D02*
X147900Y100350D01*
X156900Y100350D02*
X156900Y102850D01*
D12*
X152400Y100350D03*
D10*
X144399Y89281D02*
X137033Y89281D01*
X137033Y91327D01*
X137035Y91416D01*
X137041Y91505D01*
X137051Y91594D01*
X137064Y91682D01*
X137081Y91770D01*
X137103Y91857D01*
X137128Y91942D01*
X137156Y92027D01*
X137189Y92110D01*
X137225Y92192D01*
X137264Y92272D01*
X137307Y92350D01*
X137353Y92426D01*
X137403Y92501D01*
X137456Y92573D01*
X137512Y92642D01*
X137571Y92709D01*
X137632Y92774D01*
X137697Y92835D01*
X137764Y92894D01*
X137833Y92950D01*
X137905Y93003D01*
X137980Y93053D01*
X138056Y93099D01*
X138134Y93142D01*
X138214Y93181D01*
X138296Y93217D01*
X138379Y93250D01*
X138464Y93278D01*
X138549Y93303D01*
X138636Y93325D01*
X138724Y93342D01*
X138812Y93355D01*
X138901Y93365D01*
X138990Y93371D01*
X139079Y93373D01*
X139168Y93371D01*
X139257Y93365D01*
X139346Y93355D01*
X139434Y93342D01*
X139522Y93325D01*
X139609Y93303D01*
X139694Y93278D01*
X139779Y93250D01*
X139862Y93217D01*
X139944Y93181D01*
X140024Y93142D01*
X140102Y93099D01*
X140178Y93053D01*
X140253Y93003D01*
X140325Y92950D01*
X140394Y92894D01*
X140461Y92835D01*
X140526Y92774D01*
X140587Y92709D01*
X140646Y92642D01*
X140702Y92573D01*
X140755Y92501D01*
X140805Y92426D01*
X140851Y92350D01*
X140894Y92272D01*
X140933Y92192D01*
X140969Y92110D01*
X141002Y92027D01*
X141030Y91942D01*
X141055Y91857D01*
X141077Y91770D01*
X141094Y91682D01*
X141107Y91594D01*
X141117Y91505D01*
X141123Y91416D01*
X141125Y91327D01*
X141125Y89281D01*
X137033Y95982D02*
X144399Y97619D01*
X139488Y99256D01*
X144399Y100893D01*
X137033Y102530D01*
X137033Y105796D02*
X144399Y105796D01*
X137033Y105796D02*
X137033Y107842D01*
X137035Y107931D01*
X137041Y108020D01*
X137051Y108109D01*
X137064Y108197D01*
X137081Y108285D01*
X137103Y108372D01*
X137128Y108457D01*
X137156Y108542D01*
X137189Y108625D01*
X137225Y108707D01*
X137264Y108787D01*
X137307Y108865D01*
X137353Y108941D01*
X137403Y109016D01*
X137456Y109088D01*
X137512Y109157D01*
X137571Y109224D01*
X137632Y109289D01*
X137697Y109350D01*
X137764Y109409D01*
X137833Y109465D01*
X137905Y109518D01*
X137980Y109568D01*
X138056Y109614D01*
X138134Y109657D01*
X138214Y109696D01*
X138296Y109732D01*
X138379Y109765D01*
X138464Y109793D01*
X138549Y109818D01*
X138636Y109840D01*
X138724Y109857D01*
X138812Y109870D01*
X138901Y109880D01*
X138990Y109886D01*
X139079Y109888D01*
X139168Y109886D01*
X139257Y109880D01*
X139346Y109870D01*
X139434Y109857D01*
X139522Y109840D01*
X139609Y109818D01*
X139694Y109793D01*
X139779Y109765D01*
X139862Y109732D01*
X139944Y109696D01*
X140024Y109657D01*
X140102Y109614D01*
X140178Y109568D01*
X140253Y109518D01*
X140325Y109465D01*
X140394Y109409D01*
X140461Y109350D01*
X140526Y109289D01*
X140587Y109224D01*
X140646Y109157D01*
X140702Y109088D01*
X140755Y109016D01*
X140805Y108941D01*
X140851Y108865D01*
X140894Y108787D01*
X140933Y108707D01*
X140969Y108625D01*
X141002Y108542D01*
X141030Y108457D01*
X141055Y108372D01*
X141077Y108285D01*
X141094Y108197D01*
X141107Y108109D01*
X141117Y108020D01*
X141123Y107931D01*
X141125Y107842D01*
X141125Y105796D01*
X141125Y108251D02*
X144399Y109888D01*
X145217Y112737D02*
X145217Y116011D01*
X144399Y119171D02*
X137033Y119171D01*
X144399Y119171D02*
X144399Y122445D01*
X144399Y125511D02*
X144399Y128785D01*
X144399Y125511D02*
X137033Y125511D01*
X137033Y128785D01*
X140307Y127966D02*
X140307Y125511D01*
X137033Y131835D02*
X144399Y131835D01*
X137033Y131835D02*
X137033Y133881D01*
X137035Y133970D01*
X137041Y134059D01*
X137051Y134148D01*
X137064Y134236D01*
X137081Y134324D01*
X137103Y134411D01*
X137128Y134496D01*
X137156Y134581D01*
X137189Y134664D01*
X137225Y134746D01*
X137264Y134826D01*
X137307Y134904D01*
X137353Y134980D01*
X137403Y135055D01*
X137456Y135127D01*
X137512Y135196D01*
X137571Y135263D01*
X137632Y135328D01*
X137697Y135389D01*
X137764Y135448D01*
X137833Y135504D01*
X137905Y135557D01*
X137980Y135607D01*
X138056Y135653D01*
X138134Y135696D01*
X138214Y135735D01*
X138296Y135771D01*
X138379Y135804D01*
X138464Y135832D01*
X138549Y135857D01*
X138636Y135879D01*
X138724Y135896D01*
X138812Y135909D01*
X138901Y135919D01*
X138990Y135925D01*
X139079Y135927D01*
X142353Y135927D01*
X142442Y135925D01*
X142531Y135919D01*
X142620Y135909D01*
X142708Y135896D01*
X142796Y135879D01*
X142883Y135857D01*
X142968Y135832D01*
X143053Y135804D01*
X143136Y135771D01*
X143218Y135735D01*
X143298Y135696D01*
X143376Y135653D01*
X143452Y135607D01*
X143527Y135557D01*
X143599Y135504D01*
X143668Y135448D01*
X143735Y135389D01*
X143800Y135328D01*
X143861Y135263D01*
X143920Y135196D01*
X143976Y135127D01*
X144029Y135055D01*
X144079Y134980D01*
X144125Y134904D01*
X144168Y134826D01*
X144207Y134746D01*
X144243Y134664D01*
X144276Y134581D01*
X144304Y134496D01*
X144329Y134411D01*
X144351Y134324D01*
X144368Y134236D01*
X144381Y134148D01*
X144391Y134059D01*
X144397Y133970D01*
X144399Y133881D01*
X144399Y131835D01*
D11*
X186000Y102850D02*
X186000Y100350D01*
X195000Y100350D02*
X195000Y102850D01*
D12*
X190500Y100350D03*
D10*
X182499Y89281D02*
X175133Y89281D01*
X175133Y91327D01*
X175135Y91416D01*
X175141Y91505D01*
X175151Y91594D01*
X175164Y91682D01*
X175181Y91770D01*
X175203Y91857D01*
X175228Y91942D01*
X175256Y92027D01*
X175289Y92110D01*
X175325Y92192D01*
X175364Y92272D01*
X175407Y92350D01*
X175453Y92426D01*
X175503Y92501D01*
X175556Y92573D01*
X175612Y92642D01*
X175671Y92709D01*
X175732Y92774D01*
X175797Y92835D01*
X175864Y92894D01*
X175933Y92950D01*
X176005Y93003D01*
X176080Y93053D01*
X176156Y93099D01*
X176234Y93142D01*
X176314Y93181D01*
X176396Y93217D01*
X176479Y93250D01*
X176564Y93278D01*
X176649Y93303D01*
X176736Y93325D01*
X176824Y93342D01*
X176912Y93355D01*
X177001Y93365D01*
X177090Y93371D01*
X177179Y93373D01*
X180453Y93373D01*
X180542Y93371D01*
X180631Y93365D01*
X180720Y93355D01*
X180808Y93342D01*
X180896Y93325D01*
X180983Y93303D01*
X181068Y93278D01*
X181153Y93250D01*
X181236Y93217D01*
X181318Y93181D01*
X181398Y93142D01*
X181476Y93099D01*
X181552Y93053D01*
X181627Y93003D01*
X181699Y92950D01*
X181768Y92894D01*
X181835Y92835D01*
X181900Y92774D01*
X181961Y92709D01*
X182020Y92642D01*
X182076Y92573D01*
X182129Y92501D01*
X182179Y92426D01*
X182225Y92350D01*
X182268Y92272D01*
X182307Y92192D01*
X182343Y92110D01*
X182376Y92027D01*
X182404Y91942D01*
X182429Y91857D01*
X182451Y91770D01*
X182468Y91682D01*
X182481Y91594D01*
X182491Y91505D01*
X182497Y91416D01*
X182499Y91327D01*
X182499Y89281D01*
X175133Y99091D02*
X175135Y99176D01*
X175141Y99261D01*
X175151Y99345D01*
X175164Y99429D01*
X175182Y99513D01*
X175203Y99595D01*
X175228Y99676D01*
X175257Y99756D01*
X175290Y99835D01*
X175326Y99912D01*
X175366Y99987D01*
X175409Y100061D01*
X175455Y100132D01*
X175505Y100201D01*
X175558Y100268D01*
X175614Y100332D01*
X175673Y100393D01*
X175734Y100452D01*
X175798Y100508D01*
X175865Y100561D01*
X175934Y100611D01*
X176005Y100657D01*
X176079Y100700D01*
X176154Y100740D01*
X176231Y100776D01*
X176310Y100809D01*
X176390Y100838D01*
X176471Y100863D01*
X176553Y100884D01*
X176637Y100902D01*
X176721Y100915D01*
X176805Y100925D01*
X176890Y100931D01*
X176975Y100933D01*
X175133Y99091D02*
X175135Y98995D01*
X175141Y98899D01*
X175151Y98804D01*
X175164Y98709D01*
X175182Y98614D01*
X175203Y98521D01*
X175228Y98428D01*
X175257Y98337D01*
X175289Y98246D01*
X175325Y98157D01*
X175365Y98070D01*
X175408Y97984D01*
X175454Y97900D01*
X175504Y97818D01*
X175558Y97738D01*
X175614Y97661D01*
X175674Y97586D01*
X175736Y97513D01*
X175802Y97443D01*
X175870Y97375D01*
X175941Y97310D01*
X176014Y97249D01*
X176090Y97190D01*
X176169Y97134D01*
X176249Y97082D01*
X176332Y97033D01*
X176416Y96987D01*
X176502Y96945D01*
X176590Y96907D01*
X176679Y96872D01*
X176770Y96840D01*
X178407Y100318D02*
X178348Y100378D01*
X178286Y100435D01*
X178222Y100490D01*
X178155Y100541D01*
X178086Y100590D01*
X178016Y100636D01*
X177943Y100679D01*
X177869Y100719D01*
X177793Y100755D01*
X177715Y100788D01*
X177636Y100818D01*
X177556Y100845D01*
X177475Y100868D01*
X177393Y100887D01*
X177311Y100903D01*
X177227Y100916D01*
X177143Y100925D01*
X177059Y100930D01*
X176975Y100932D01*
X178407Y100318D02*
X182499Y96840D01*
X182499Y100932D01*
D11*
X224100Y100350D02*
X224100Y102850D01*
X233100Y102850D02*
X233100Y100350D01*
D12*
X228600Y100350D03*
D10*
X220599Y89281D02*
X213233Y89281D01*
X213233Y91327D01*
X213235Y91416D01*
X213241Y91505D01*
X213251Y91594D01*
X213264Y91682D01*
X213281Y91770D01*
X213303Y91857D01*
X213328Y91942D01*
X213356Y92027D01*
X213389Y92110D01*
X213425Y92192D01*
X213464Y92272D01*
X213507Y92350D01*
X213553Y92426D01*
X213603Y92501D01*
X213656Y92573D01*
X213712Y92642D01*
X213771Y92709D01*
X213832Y92774D01*
X213897Y92835D01*
X213964Y92894D01*
X214033Y92950D01*
X214105Y93003D01*
X214180Y93053D01*
X214256Y93099D01*
X214334Y93142D01*
X214414Y93181D01*
X214496Y93217D01*
X214579Y93250D01*
X214664Y93278D01*
X214749Y93303D01*
X214836Y93325D01*
X214924Y93342D01*
X215012Y93355D01*
X215101Y93365D01*
X215190Y93371D01*
X215279Y93373D01*
X218553Y93373D01*
X218642Y93371D01*
X218731Y93365D01*
X218820Y93355D01*
X218908Y93342D01*
X218996Y93325D01*
X219083Y93303D01*
X219168Y93278D01*
X219253Y93250D01*
X219336Y93217D01*
X219418Y93181D01*
X219498Y93142D01*
X219576Y93099D01*
X219652Y93053D01*
X219727Y93003D01*
X219799Y92950D01*
X219868Y92894D01*
X219935Y92835D01*
X220000Y92774D01*
X220061Y92709D01*
X220120Y92642D01*
X220176Y92573D01*
X220229Y92501D01*
X220279Y92426D01*
X220325Y92350D01*
X220368Y92272D01*
X220407Y92192D01*
X220443Y92110D01*
X220476Y92027D01*
X220504Y91942D01*
X220529Y91857D01*
X220551Y91770D01*
X220568Y91682D01*
X220581Y91594D01*
X220591Y91505D01*
X220597Y91416D01*
X220599Y91327D01*
X220599Y89281D01*
X220599Y96840D02*
X220599Y98886D01*
X220597Y98975D01*
X220591Y99064D01*
X220581Y99153D01*
X220568Y99241D01*
X220551Y99329D01*
X220529Y99416D01*
X220504Y99501D01*
X220476Y99586D01*
X220443Y99669D01*
X220407Y99751D01*
X220368Y99831D01*
X220325Y99909D01*
X220279Y99985D01*
X220229Y100060D01*
X220176Y100132D01*
X220120Y100201D01*
X220061Y100268D01*
X220000Y100333D01*
X219935Y100394D01*
X219868Y100453D01*
X219799Y100509D01*
X219727Y100562D01*
X219652Y100612D01*
X219576Y100658D01*
X219498Y100701D01*
X219418Y100740D01*
X219336Y100776D01*
X219253Y100809D01*
X219168Y100837D01*
X219083Y100862D01*
X218996Y100884D01*
X218908Y100901D01*
X218820Y100914D01*
X218731Y100924D01*
X218642Y100930D01*
X218553Y100932D01*
X218464Y100930D01*
X218375Y100924D01*
X218286Y100914D01*
X218198Y100901D01*
X218110Y100884D01*
X218023Y100862D01*
X217938Y100837D01*
X217853Y100809D01*
X217770Y100776D01*
X217688Y100740D01*
X217608Y100701D01*
X217530Y100658D01*
X217454Y100612D01*
X217379Y100562D01*
X217307Y100509D01*
X217238Y100453D01*
X217171Y100394D01*
X217106Y100333D01*
X217045Y100268D01*
X216986Y100201D01*
X216930Y100132D01*
X216877Y100060D01*
X216827Y99985D01*
X216781Y99909D01*
X216738Y99831D01*
X216699Y99751D01*
X216663Y99669D01*
X216630Y99586D01*
X216602Y99501D01*
X216577Y99416D01*
X216555Y99329D01*
X216538Y99241D01*
X216525Y99153D01*
X216515Y99064D01*
X216509Y98975D01*
X216507Y98886D01*
X213233Y99295D02*
X213233Y96840D01*
X213233Y99295D02*
X213235Y99374D01*
X213241Y99453D01*
X213250Y99532D01*
X213263Y99610D01*
X213281Y99687D01*
X213301Y99763D01*
X213326Y99838D01*
X213354Y99912D01*
X213385Y99985D01*
X213421Y100056D01*
X213459Y100125D01*
X213501Y100192D01*
X213546Y100257D01*
X213594Y100320D01*
X213645Y100381D01*
X213699Y100438D01*
X213755Y100494D01*
X213814Y100546D01*
X213876Y100596D01*
X213940Y100642D01*
X214006Y100686D01*
X214074Y100726D01*
X214144Y100762D01*
X214216Y100796D01*
X214290Y100826D01*
X214364Y100852D01*
X214440Y100875D01*
X214517Y100893D01*
X214594Y100909D01*
X214673Y100920D01*
X214751Y100928D01*
X214830Y100932D01*
X214910Y100932D01*
X214989Y100928D01*
X215067Y100920D01*
X215146Y100909D01*
X215223Y100893D01*
X215300Y100875D01*
X215376Y100852D01*
X215450Y100826D01*
X215524Y100796D01*
X215596Y100762D01*
X215666Y100726D01*
X215734Y100686D01*
X215800Y100642D01*
X215864Y100596D01*
X215926Y100546D01*
X215985Y100494D01*
X216041Y100438D01*
X216095Y100381D01*
X216146Y100320D01*
X216194Y100257D01*
X216239Y100192D01*
X216281Y100125D01*
X216319Y100056D01*
X216355Y99985D01*
X216386Y99912D01*
X216414Y99838D01*
X216439Y99763D01*
X216459Y99687D01*
X216477Y99610D01*
X216490Y99532D01*
X216499Y99453D01*
X216505Y99374D01*
X216507Y99295D01*
X216507Y97658D01*
D13*
X127000Y12700D02*
X101600Y12700D01*
X127000Y12700D02*
X127000Y88900D01*
X101600Y88900D01*
X101600Y12700D01*
D14*
X133300Y25800D02*
X133302Y25863D01*
X133308Y25925D01*
X133318Y25987D01*
X133331Y26049D01*
X133349Y26109D01*
X133370Y26168D01*
X133395Y26226D01*
X133424Y26282D01*
X133456Y26336D01*
X133491Y26388D01*
X133529Y26437D01*
X133571Y26485D01*
X133615Y26529D01*
X133663Y26571D01*
X133712Y26609D01*
X133764Y26644D01*
X133818Y26676D01*
X133874Y26705D01*
X133932Y26730D01*
X133991Y26751D01*
X134051Y26769D01*
X134113Y26782D01*
X134175Y26792D01*
X134237Y26798D01*
X134300Y26800D01*
X134363Y26798D01*
X134425Y26792D01*
X134487Y26782D01*
X134549Y26769D01*
X134609Y26751D01*
X134668Y26730D01*
X134726Y26705D01*
X134782Y26676D01*
X134836Y26644D01*
X134888Y26609D01*
X134937Y26571D01*
X134985Y26529D01*
X135029Y26485D01*
X135071Y26437D01*
X135109Y26388D01*
X135144Y26336D01*
X135176Y26282D01*
X135205Y26226D01*
X135230Y26168D01*
X135251Y26109D01*
X135269Y26049D01*
X135282Y25987D01*
X135292Y25925D01*
X135298Y25863D01*
X135300Y25800D01*
X135298Y25737D01*
X135292Y25675D01*
X135282Y25613D01*
X135269Y25551D01*
X135251Y25491D01*
X135230Y25432D01*
X135205Y25374D01*
X135176Y25318D01*
X135144Y25264D01*
X135109Y25212D01*
X135071Y25163D01*
X135029Y25115D01*
X134985Y25071D01*
X134937Y25029D01*
X134888Y24991D01*
X134836Y24956D01*
X134782Y24924D01*
X134726Y24895D01*
X134668Y24870D01*
X134609Y24849D01*
X134549Y24831D01*
X134487Y24818D01*
X134425Y24808D01*
X134363Y24802D01*
X134300Y24800D01*
X134237Y24802D01*
X134175Y24808D01*
X134113Y24818D01*
X134051Y24831D01*
X133991Y24849D01*
X133932Y24870D01*
X133874Y24895D01*
X133818Y24924D01*
X133764Y24956D01*
X133712Y24991D01*
X133663Y25029D01*
X133615Y25071D01*
X133571Y25115D01*
X133529Y25163D01*
X133491Y25212D01*
X133456Y25264D01*
X133424Y25318D01*
X133395Y25374D01*
X133370Y25432D01*
X133349Y25491D01*
X133331Y25551D01*
X133318Y25613D01*
X133308Y25675D01*
X133302Y25737D01*
X133300Y25800D01*
D15*
X106003Y99624D02*
X106003Y108712D01*
X106002Y99624D02*
X106000Y99525D01*
X105994Y99425D01*
X105985Y99326D01*
X105972Y99228D01*
X105955Y99130D01*
X105934Y99032D01*
X105909Y98936D01*
X105881Y98841D01*
X105849Y98747D01*
X105814Y98654D01*
X105775Y98562D01*
X105732Y98472D01*
X105687Y98384D01*
X105637Y98297D01*
X105585Y98213D01*
X105529Y98130D01*
X105471Y98050D01*
X105409Y97972D01*
X105344Y97897D01*
X105276Y97824D01*
X105206Y97754D01*
X105133Y97686D01*
X105058Y97621D01*
X104980Y97559D01*
X104900Y97501D01*
X104817Y97445D01*
X104733Y97393D01*
X104646Y97343D01*
X104558Y97298D01*
X104468Y97255D01*
X104376Y97216D01*
X104283Y97181D01*
X104189Y97149D01*
X104094Y97121D01*
X103998Y97096D01*
X103900Y97075D01*
X103802Y97058D01*
X103704Y97045D01*
X103605Y97036D01*
X103505Y97030D01*
X103406Y97028D01*
X102108Y97028D01*
X111276Y106116D02*
X114522Y108712D01*
X114522Y97028D01*
X117767Y97028D02*
X111276Y97028D01*
D13*
X88900Y12700D02*
X63500Y12700D01*
X88900Y12700D02*
X88900Y88900D01*
X63500Y88900D01*
X63500Y12700D01*
D14*
X95200Y25800D02*
X95202Y25863D01*
X95208Y25925D01*
X95218Y25987D01*
X95231Y26049D01*
X95249Y26109D01*
X95270Y26168D01*
X95295Y26226D01*
X95324Y26282D01*
X95356Y26336D01*
X95391Y26388D01*
X95429Y26437D01*
X95471Y26485D01*
X95515Y26529D01*
X95563Y26571D01*
X95612Y26609D01*
X95664Y26644D01*
X95718Y26676D01*
X95774Y26705D01*
X95832Y26730D01*
X95891Y26751D01*
X95951Y26769D01*
X96013Y26782D01*
X96075Y26792D01*
X96137Y26798D01*
X96200Y26800D01*
X96263Y26798D01*
X96325Y26792D01*
X96387Y26782D01*
X96449Y26769D01*
X96509Y26751D01*
X96568Y26730D01*
X96626Y26705D01*
X96682Y26676D01*
X96736Y26644D01*
X96788Y26609D01*
X96837Y26571D01*
X96885Y26529D01*
X96929Y26485D01*
X96971Y26437D01*
X97009Y26388D01*
X97044Y26336D01*
X97076Y26282D01*
X97105Y26226D01*
X97130Y26168D01*
X97151Y26109D01*
X97169Y26049D01*
X97182Y25987D01*
X97192Y25925D01*
X97198Y25863D01*
X97200Y25800D01*
X97198Y25737D01*
X97192Y25675D01*
X97182Y25613D01*
X97169Y25551D01*
X97151Y25491D01*
X97130Y25432D01*
X97105Y25374D01*
X97076Y25318D01*
X97044Y25264D01*
X97009Y25212D01*
X96971Y25163D01*
X96929Y25115D01*
X96885Y25071D01*
X96837Y25029D01*
X96788Y24991D01*
X96736Y24956D01*
X96682Y24924D01*
X96626Y24895D01*
X96568Y24870D01*
X96509Y24849D01*
X96449Y24831D01*
X96387Y24818D01*
X96325Y24808D01*
X96263Y24802D01*
X96200Y24800D01*
X96137Y24802D01*
X96075Y24808D01*
X96013Y24818D01*
X95951Y24831D01*
X95891Y24849D01*
X95832Y24870D01*
X95774Y24895D01*
X95718Y24924D01*
X95664Y24956D01*
X95612Y24991D01*
X95563Y25029D01*
X95515Y25071D01*
X95471Y25115D01*
X95429Y25163D01*
X95391Y25212D01*
X95356Y25264D01*
X95324Y25318D01*
X95295Y25374D01*
X95270Y25432D01*
X95249Y25491D01*
X95231Y25551D01*
X95218Y25613D01*
X95208Y25675D01*
X95202Y25737D01*
X95200Y25800D01*
D15*
X67903Y99624D02*
X67903Y108712D01*
X67902Y99624D02*
X67900Y99525D01*
X67894Y99425D01*
X67885Y99326D01*
X67872Y99228D01*
X67855Y99130D01*
X67834Y99032D01*
X67809Y98936D01*
X67781Y98841D01*
X67749Y98747D01*
X67714Y98654D01*
X67675Y98562D01*
X67632Y98472D01*
X67587Y98384D01*
X67537Y98297D01*
X67485Y98213D01*
X67429Y98130D01*
X67371Y98050D01*
X67309Y97972D01*
X67244Y97897D01*
X67176Y97824D01*
X67106Y97754D01*
X67033Y97686D01*
X66958Y97621D01*
X66880Y97559D01*
X66800Y97501D01*
X66717Y97445D01*
X66633Y97393D01*
X66546Y97343D01*
X66458Y97298D01*
X66368Y97255D01*
X66276Y97216D01*
X66183Y97181D01*
X66089Y97149D01*
X65994Y97121D01*
X65898Y97096D01*
X65800Y97075D01*
X65702Y97058D01*
X65604Y97045D01*
X65505Y97036D01*
X65405Y97030D01*
X65306Y97028D01*
X64008Y97028D01*
X76746Y108712D02*
X76853Y108710D01*
X76959Y108704D01*
X77065Y108694D01*
X77171Y108681D01*
X77277Y108663D01*
X77381Y108642D01*
X77485Y108617D01*
X77588Y108588D01*
X77689Y108556D01*
X77789Y108519D01*
X77888Y108479D01*
X77986Y108436D01*
X78082Y108389D01*
X78176Y108338D01*
X78268Y108284D01*
X78358Y108227D01*
X78446Y108167D01*
X78531Y108103D01*
X78614Y108036D01*
X78695Y107966D01*
X78773Y107894D01*
X78849Y107818D01*
X78921Y107740D01*
X78991Y107659D01*
X79058Y107576D01*
X79122Y107491D01*
X79182Y107403D01*
X79239Y107313D01*
X79293Y107221D01*
X79344Y107127D01*
X79391Y107031D01*
X79434Y106933D01*
X79474Y106834D01*
X79511Y106734D01*
X79543Y106633D01*
X79572Y106530D01*
X79597Y106426D01*
X79618Y106322D01*
X79636Y106216D01*
X79649Y106110D01*
X79659Y106004D01*
X79665Y105898D01*
X79667Y105791D01*
X76746Y108712D02*
X76625Y108710D01*
X76504Y108704D01*
X76384Y108694D01*
X76263Y108681D01*
X76144Y108663D01*
X76024Y108642D01*
X75906Y108617D01*
X75789Y108588D01*
X75672Y108555D01*
X75557Y108519D01*
X75443Y108478D01*
X75330Y108435D01*
X75218Y108387D01*
X75109Y108336D01*
X75001Y108281D01*
X74894Y108223D01*
X74790Y108162D01*
X74688Y108097D01*
X74588Y108029D01*
X74490Y107958D01*
X74394Y107884D01*
X74301Y107807D01*
X74211Y107726D01*
X74123Y107643D01*
X74038Y107557D01*
X73955Y107468D01*
X73876Y107377D01*
X73799Y107283D01*
X73726Y107187D01*
X73656Y107089D01*
X73589Y106988D01*
X73525Y106885D01*
X73465Y106780D01*
X73408Y106673D01*
X73354Y106565D01*
X73304Y106455D01*
X73258Y106343D01*
X73215Y106230D01*
X73176Y106115D01*
X78694Y103519D02*
X78773Y103596D01*
X78849Y103677D01*
X78922Y103760D01*
X78992Y103845D01*
X79059Y103933D01*
X79123Y104023D01*
X79183Y104115D01*
X79240Y104210D01*
X79294Y104306D01*
X79345Y104404D01*
X79392Y104504D01*
X79436Y104606D01*
X79476Y104709D01*
X79512Y104813D01*
X79544Y104919D01*
X79573Y105025D01*
X79598Y105133D01*
X79620Y105241D01*
X79637Y105351D01*
X79651Y105460D01*
X79660Y105570D01*
X79666Y105681D01*
X79668Y105791D01*
X78694Y103519D02*
X73176Y97028D01*
X79667Y97028D01*
D16*
X38100Y228600D02*
X38100Y254000D01*
X25400Y254000D01*
X25400Y330200D01*
X381000Y330200D01*
X381000Y152400D01*
X25400Y152400D01*
X25400Y228600D01*
X38100Y228600D01*
D10*
X54483Y232791D02*
X59803Y232791D01*
X59892Y232793D01*
X59981Y232799D01*
X60070Y232809D01*
X60158Y232822D01*
X60246Y232839D01*
X60333Y232861D01*
X60418Y232886D01*
X60503Y232914D01*
X60586Y232947D01*
X60668Y232983D01*
X60748Y233022D01*
X60826Y233065D01*
X60902Y233111D01*
X60977Y233161D01*
X61049Y233214D01*
X61118Y233270D01*
X61185Y233329D01*
X61250Y233390D01*
X61311Y233455D01*
X61370Y233522D01*
X61426Y233591D01*
X61479Y233663D01*
X61529Y233738D01*
X61575Y233814D01*
X61618Y233892D01*
X61657Y233972D01*
X61693Y234054D01*
X61726Y234137D01*
X61754Y234222D01*
X61779Y234307D01*
X61801Y234394D01*
X61818Y234482D01*
X61831Y234570D01*
X61841Y234659D01*
X61847Y234748D01*
X61849Y234837D01*
X61847Y234926D01*
X61841Y235015D01*
X61831Y235104D01*
X61818Y235192D01*
X61801Y235280D01*
X61779Y235367D01*
X61754Y235452D01*
X61726Y235537D01*
X61693Y235620D01*
X61657Y235702D01*
X61618Y235782D01*
X61575Y235860D01*
X61529Y235936D01*
X61479Y236011D01*
X61426Y236083D01*
X61370Y236152D01*
X61311Y236219D01*
X61250Y236284D01*
X61185Y236345D01*
X61118Y236404D01*
X61049Y236460D01*
X60977Y236513D01*
X60902Y236563D01*
X60826Y236609D01*
X60748Y236652D01*
X60668Y236691D01*
X60586Y236727D01*
X60503Y236760D01*
X60418Y236788D01*
X60333Y236813D01*
X60246Y236835D01*
X60158Y236852D01*
X60070Y236865D01*
X59981Y236875D01*
X59892Y236881D01*
X59803Y236883D01*
X54483Y236883D01*
X54483Y241908D02*
X61849Y241908D01*
X58166Y241908D02*
X57552Y240885D01*
X57515Y240827D01*
X57475Y240772D01*
X57431Y240718D01*
X57385Y240667D01*
X57336Y240619D01*
X57284Y240574D01*
X57230Y240531D01*
X57174Y240492D01*
X57115Y240456D01*
X57055Y240423D01*
X56992Y240394D01*
X56929Y240368D01*
X56864Y240346D01*
X56797Y240328D01*
X56730Y240313D01*
X56662Y240302D01*
X56594Y240295D01*
X56525Y240292D01*
X56456Y240293D01*
X56388Y240298D01*
X56319Y240306D01*
X56252Y240318D01*
X56185Y240334D01*
X56119Y240354D01*
X56054Y240378D01*
X55991Y240405D01*
X55929Y240435D01*
X55870Y240470D01*
X55812Y240507D01*
X55756Y240547D01*
X55703Y240591D01*
X55653Y240637D01*
X55605Y240687D01*
X55559Y240739D01*
X55517Y240793D01*
X55478Y240850D01*
X55443Y240908D01*
X55410Y240969D01*
X55381Y241032D01*
X55356Y241095D01*
X55334Y241161D01*
X55316Y241227D01*
X55302Y241294D01*
X55284Y241404D01*
X55269Y241515D01*
X55259Y241625D01*
X55252Y241737D01*
X55249Y241848D01*
X55250Y241959D01*
X55255Y242070D01*
X55263Y242181D01*
X55276Y242292D01*
X55292Y242402D01*
X55312Y242512D01*
X55335Y242620D01*
X55363Y242728D01*
X55394Y242835D01*
X55429Y242941D01*
X55467Y243045D01*
X55509Y243149D01*
X55554Y243250D01*
X55603Y243350D01*
X55655Y243449D01*
X55711Y243545D01*
X58166Y241908D02*
X58780Y242932D01*
X58817Y242990D01*
X58857Y243045D01*
X58901Y243099D01*
X58947Y243150D01*
X58996Y243198D01*
X59048Y243243D01*
X59102Y243286D01*
X59158Y243325D01*
X59217Y243361D01*
X59277Y243394D01*
X59340Y243423D01*
X59403Y243449D01*
X59469Y243471D01*
X59535Y243489D01*
X59602Y243504D01*
X59670Y243515D01*
X59738Y243522D01*
X59807Y243525D01*
X59876Y243524D01*
X59944Y243519D01*
X60013Y243511D01*
X60080Y243499D01*
X60147Y243483D01*
X60213Y243463D01*
X60278Y243439D01*
X60341Y243412D01*
X60403Y243382D01*
X60462Y243347D01*
X60520Y243310D01*
X60576Y243270D01*
X60629Y243226D01*
X60679Y243180D01*
X60727Y243130D01*
X60773Y243078D01*
X60815Y243024D01*
X60854Y242967D01*
X60889Y242909D01*
X60922Y242848D01*
X60951Y242785D01*
X60976Y242722D01*
X60998Y242656D01*
X61016Y242590D01*
X61030Y242523D01*
X61048Y242413D01*
X61063Y242302D01*
X61073Y242192D01*
X61080Y242081D01*
X61083Y241969D01*
X61082Y241858D01*
X61077Y241747D01*
X61069Y241636D01*
X61056Y241525D01*
X61040Y241415D01*
X61020Y241305D01*
X60997Y241197D01*
X60969Y241089D01*
X60938Y240982D01*
X60903Y240876D01*
X60865Y240772D01*
X60823Y240668D01*
X60778Y240567D01*
X60729Y240467D01*
X60677Y240368D01*
X60621Y240272D01*
X56120Y246690D02*
X54483Y248736D01*
X61849Y248736D01*
X61849Y246690D02*
X61849Y250782D01*
D13*
X29600Y459600D02*
X27800Y459600D01*
X27800Y463600D01*
X27800Y476200D02*
X27800Y480200D01*
X29600Y480200D01*
X46600Y480200D02*
X48400Y480200D01*
X48400Y476200D01*
X48400Y459600D02*
X46600Y459600D01*
X48400Y459600D02*
X48400Y463600D01*
D14*
X22100Y472900D02*
X22102Y472963D01*
X22108Y473025D01*
X22118Y473087D01*
X22131Y473149D01*
X22149Y473209D01*
X22170Y473268D01*
X22195Y473326D01*
X22224Y473382D01*
X22256Y473436D01*
X22291Y473488D01*
X22329Y473537D01*
X22371Y473585D01*
X22415Y473629D01*
X22463Y473671D01*
X22512Y473709D01*
X22564Y473744D01*
X22618Y473776D01*
X22674Y473805D01*
X22732Y473830D01*
X22791Y473851D01*
X22851Y473869D01*
X22913Y473882D01*
X22975Y473892D01*
X23037Y473898D01*
X23100Y473900D01*
X23163Y473898D01*
X23225Y473892D01*
X23287Y473882D01*
X23349Y473869D01*
X23409Y473851D01*
X23468Y473830D01*
X23526Y473805D01*
X23582Y473776D01*
X23636Y473744D01*
X23688Y473709D01*
X23737Y473671D01*
X23785Y473629D01*
X23829Y473585D01*
X23871Y473537D01*
X23909Y473488D01*
X23944Y473436D01*
X23976Y473382D01*
X24005Y473326D01*
X24030Y473268D01*
X24051Y473209D01*
X24069Y473149D01*
X24082Y473087D01*
X24092Y473025D01*
X24098Y472963D01*
X24100Y472900D01*
X24098Y472837D01*
X24092Y472775D01*
X24082Y472713D01*
X24069Y472651D01*
X24051Y472591D01*
X24030Y472532D01*
X24005Y472474D01*
X23976Y472418D01*
X23944Y472364D01*
X23909Y472312D01*
X23871Y472263D01*
X23829Y472215D01*
X23785Y472171D01*
X23737Y472129D01*
X23688Y472091D01*
X23636Y472056D01*
X23582Y472024D01*
X23526Y471995D01*
X23468Y471970D01*
X23409Y471949D01*
X23349Y471931D01*
X23287Y471918D01*
X23225Y471908D01*
X23163Y471902D01*
X23100Y471900D01*
X23037Y471902D01*
X22975Y471908D01*
X22913Y471918D01*
X22851Y471931D01*
X22791Y471949D01*
X22732Y471970D01*
X22674Y471995D01*
X22618Y472024D01*
X22564Y472056D01*
X22512Y472091D01*
X22463Y472129D01*
X22415Y472171D01*
X22371Y472215D01*
X22329Y472263D01*
X22291Y472312D01*
X22256Y472364D01*
X22224Y472418D01*
X22195Y472474D01*
X22170Y472532D01*
X22149Y472591D01*
X22131Y472651D01*
X22118Y472713D01*
X22108Y472775D01*
X22102Y472837D01*
X22100Y472900D01*
D17*
X25209Y485106D02*
X25209Y487862D01*
X25209Y485106D02*
X25211Y485042D01*
X25217Y484978D01*
X25226Y484915D01*
X25240Y484852D01*
X25257Y484791D01*
X25278Y484730D01*
X25302Y484671D01*
X25330Y484613D01*
X25362Y484558D01*
X25397Y484504D01*
X25435Y484452D01*
X25476Y484403D01*
X25519Y484356D01*
X25566Y484313D01*
X25615Y484272D01*
X25667Y484234D01*
X25721Y484199D01*
X25776Y484167D01*
X25834Y484139D01*
X25893Y484115D01*
X25954Y484094D01*
X26015Y484077D01*
X26078Y484063D01*
X26141Y484054D01*
X26205Y484048D01*
X26269Y484046D01*
X26333Y484048D01*
X26397Y484054D01*
X26460Y484063D01*
X26523Y484077D01*
X26584Y484094D01*
X26645Y484115D01*
X26704Y484139D01*
X26762Y484167D01*
X26817Y484199D01*
X26871Y484234D01*
X26923Y484272D01*
X26972Y484313D01*
X27019Y484356D01*
X27062Y484403D01*
X27103Y484452D01*
X27141Y484504D01*
X27176Y484558D01*
X27208Y484613D01*
X27236Y484671D01*
X27260Y484730D01*
X27281Y484791D01*
X27298Y484852D01*
X27312Y484915D01*
X27321Y484978D01*
X27327Y485042D01*
X27329Y485106D01*
X27329Y487862D01*
X28994Y487014D02*
X30054Y487862D01*
X30054Y484046D01*
X28994Y484046D02*
X31114Y484046D01*
D14*
X166770Y476820D02*
X166772Y476883D01*
X166778Y476945D01*
X166788Y477007D01*
X166801Y477069D01*
X166819Y477129D01*
X166840Y477188D01*
X166865Y477246D01*
X166894Y477302D01*
X166926Y477356D01*
X166961Y477408D01*
X166999Y477457D01*
X167041Y477505D01*
X167085Y477549D01*
X167133Y477591D01*
X167182Y477629D01*
X167234Y477664D01*
X167288Y477696D01*
X167344Y477725D01*
X167402Y477750D01*
X167461Y477771D01*
X167521Y477789D01*
X167583Y477802D01*
X167645Y477812D01*
X167707Y477818D01*
X167770Y477820D01*
X167833Y477818D01*
X167895Y477812D01*
X167957Y477802D01*
X168019Y477789D01*
X168079Y477771D01*
X168138Y477750D01*
X168196Y477725D01*
X168252Y477696D01*
X168306Y477664D01*
X168358Y477629D01*
X168407Y477591D01*
X168455Y477549D01*
X168499Y477505D01*
X168541Y477457D01*
X168579Y477408D01*
X168614Y477356D01*
X168646Y477302D01*
X168675Y477246D01*
X168700Y477188D01*
X168721Y477129D01*
X168739Y477069D01*
X168752Y477007D01*
X168762Y476945D01*
X168768Y476883D01*
X168770Y476820D01*
X168768Y476757D01*
X168762Y476695D01*
X168752Y476633D01*
X168739Y476571D01*
X168721Y476511D01*
X168700Y476452D01*
X168675Y476394D01*
X168646Y476338D01*
X168614Y476284D01*
X168579Y476232D01*
X168541Y476183D01*
X168499Y476135D01*
X168455Y476091D01*
X168407Y476049D01*
X168358Y476011D01*
X168306Y475976D01*
X168252Y475944D01*
X168196Y475915D01*
X168138Y475890D01*
X168079Y475869D01*
X168019Y475851D01*
X167957Y475838D01*
X167895Y475828D01*
X167833Y475822D01*
X167770Y475820D01*
X167707Y475822D01*
X167645Y475828D01*
X167583Y475838D01*
X167521Y475851D01*
X167461Y475869D01*
X167402Y475890D01*
X167344Y475915D01*
X167288Y475944D01*
X167234Y475976D01*
X167182Y476011D01*
X167133Y476049D01*
X167085Y476091D01*
X167041Y476135D01*
X166999Y476183D01*
X166961Y476232D01*
X166926Y476284D01*
X166894Y476338D01*
X166865Y476394D01*
X166840Y476452D01*
X166819Y476511D01*
X166801Y476571D01*
X166788Y476633D01*
X166778Y476695D01*
X166772Y476757D01*
X166770Y476820D01*
D13*
X173170Y474220D02*
X173170Y480620D01*
X210370Y480620D02*
X210370Y474220D01*
X173170Y455420D02*
X173170Y449020D01*
X210370Y449020D02*
X210370Y455420D01*
D17*
X171865Y485038D02*
X171865Y487794D01*
X171865Y485038D02*
X171867Y484974D01*
X171873Y484910D01*
X171882Y484847D01*
X171896Y484784D01*
X171913Y484723D01*
X171934Y484662D01*
X171958Y484603D01*
X171986Y484545D01*
X172018Y484490D01*
X172053Y484436D01*
X172091Y484384D01*
X172132Y484335D01*
X172175Y484288D01*
X172222Y484245D01*
X172271Y484204D01*
X172323Y484166D01*
X172377Y484131D01*
X172432Y484099D01*
X172490Y484071D01*
X172549Y484047D01*
X172610Y484026D01*
X172671Y484009D01*
X172734Y483995D01*
X172797Y483986D01*
X172861Y483980D01*
X172925Y483978D01*
X172989Y483980D01*
X173053Y483986D01*
X173116Y483995D01*
X173179Y484009D01*
X173240Y484026D01*
X173301Y484047D01*
X173360Y484071D01*
X173418Y484099D01*
X173473Y484131D01*
X173527Y484166D01*
X173579Y484204D01*
X173628Y484245D01*
X173675Y484288D01*
X173718Y484335D01*
X173759Y484384D01*
X173797Y484436D01*
X173832Y484490D01*
X173864Y484545D01*
X173892Y484603D01*
X173916Y484662D01*
X173937Y484723D01*
X173954Y484784D01*
X173968Y484847D01*
X173977Y484910D01*
X173983Y484974D01*
X173985Y485038D01*
X173985Y487794D01*
X176817Y487794D02*
X176877Y487792D01*
X176937Y487786D01*
X176996Y487777D01*
X177054Y487764D01*
X177112Y487747D01*
X177168Y487727D01*
X177223Y487703D01*
X177277Y487676D01*
X177328Y487645D01*
X177378Y487612D01*
X177425Y487575D01*
X177470Y487535D01*
X177512Y487493D01*
X177552Y487448D01*
X177589Y487401D01*
X177622Y487351D01*
X177653Y487300D01*
X177680Y487246D01*
X177704Y487191D01*
X177724Y487135D01*
X177741Y487077D01*
X177754Y487019D01*
X177763Y486960D01*
X177769Y486900D01*
X177771Y486840D01*
X176817Y487794D02*
X176750Y487792D01*
X176683Y487787D01*
X176617Y487778D01*
X176551Y487765D01*
X176486Y487748D01*
X176422Y487729D01*
X176359Y487705D01*
X176298Y487679D01*
X176238Y487649D01*
X176180Y487615D01*
X176123Y487579D01*
X176069Y487539D01*
X176017Y487497D01*
X175968Y487452D01*
X175920Y487404D01*
X175876Y487354D01*
X175835Y487301D01*
X175796Y487247D01*
X175760Y487190D01*
X175728Y487131D01*
X175699Y487071D01*
X175673Y487009D01*
X175651Y486946D01*
X177453Y486098D02*
X177495Y486140D01*
X177534Y486184D01*
X177570Y486231D01*
X177604Y486280D01*
X177635Y486330D01*
X177663Y486382D01*
X177688Y486436D01*
X177710Y486491D01*
X177728Y486548D01*
X177744Y486605D01*
X177756Y486663D01*
X177764Y486722D01*
X177769Y486781D01*
X177771Y486840D01*
X177453Y486098D02*
X175650Y483978D01*
X177771Y483978D01*
D13*
X600700Y435600D02*
X600700Y275600D01*
X440700Y275600D02*
X440700Y435600D01*
X460700Y275600D02*
X580700Y275600D01*
X445700Y275600D02*
X440700Y275600D01*
X595700Y275600D02*
X600700Y275600D01*
D18*
X601538Y446600D02*
X601540Y446712D01*
X601546Y446824D01*
X601556Y446936D01*
X601570Y447047D01*
X601588Y447158D01*
X601609Y447268D01*
X601635Y447378D01*
X601665Y447486D01*
X601698Y447593D01*
X601735Y447699D01*
X601776Y447804D01*
X601821Y447907D01*
X601869Y448008D01*
X601921Y448108D01*
X601976Y448205D01*
X602034Y448301D01*
X602096Y448394D01*
X602162Y448486D01*
X602230Y448575D01*
X602302Y448661D01*
X602377Y448745D01*
X602454Y448826D01*
X602535Y448904D01*
X602618Y448980D01*
X602704Y449052D01*
X602792Y449121D01*
X602883Y449187D01*
X602975Y449250D01*
X603071Y449310D01*
X603168Y449366D01*
X603267Y449419D01*
X603368Y449468D01*
X603471Y449513D01*
X603575Y449555D01*
X603680Y449593D01*
X603787Y449627D01*
X603895Y449658D01*
X604004Y449684D01*
X604114Y449707D01*
X604225Y449726D01*
X604336Y449741D01*
X604448Y449752D01*
X604560Y449759D01*
X604672Y449762D01*
X604784Y449761D01*
X604896Y449756D01*
X605008Y449747D01*
X605120Y449734D01*
X605231Y449717D01*
X605341Y449696D01*
X605450Y449672D01*
X605559Y449643D01*
X605666Y449611D01*
X605773Y449574D01*
X605878Y449535D01*
X605981Y449491D01*
X606083Y449444D01*
X606183Y449393D01*
X606281Y449338D01*
X606377Y449281D01*
X606471Y449219D01*
X606563Y449155D01*
X606653Y449087D01*
X606740Y449016D01*
X606824Y448942D01*
X606906Y448865D01*
X606985Y448786D01*
X607061Y448703D01*
X607134Y448618D01*
X607204Y448530D01*
X607271Y448440D01*
X607335Y448348D01*
X607395Y448253D01*
X607452Y448157D01*
X607506Y448058D01*
X607556Y447957D01*
X607602Y447855D01*
X607645Y447751D01*
X607684Y447646D01*
X607719Y447540D01*
X607751Y447432D01*
X607778Y447323D01*
X607802Y447213D01*
X607822Y447103D01*
X607838Y446992D01*
X607850Y446880D01*
X607858Y446768D01*
X607862Y446656D01*
X607862Y446544D01*
X607858Y446432D01*
X607850Y446320D01*
X607838Y446208D01*
X607822Y446097D01*
X607802Y445987D01*
X607778Y445877D01*
X607751Y445768D01*
X607719Y445660D01*
X607684Y445554D01*
X607645Y445449D01*
X607602Y445345D01*
X607556Y445243D01*
X607506Y445142D01*
X607452Y445043D01*
X607395Y444947D01*
X607335Y444852D01*
X607271Y444760D01*
X607204Y444670D01*
X607134Y444582D01*
X607061Y444497D01*
X606985Y444414D01*
X606906Y444335D01*
X606824Y444258D01*
X606740Y444184D01*
X606653Y444113D01*
X606563Y444045D01*
X606471Y443981D01*
X606377Y443919D01*
X606281Y443862D01*
X606183Y443807D01*
X606083Y443756D01*
X605981Y443709D01*
X605878Y443665D01*
X605773Y443626D01*
X605666Y443589D01*
X605559Y443557D01*
X605450Y443528D01*
X605341Y443504D01*
X605231Y443483D01*
X605120Y443466D01*
X605008Y443453D01*
X604896Y443444D01*
X604784Y443439D01*
X604672Y443438D01*
X604560Y443441D01*
X604448Y443448D01*
X604336Y443459D01*
X604225Y443474D01*
X604114Y443493D01*
X604004Y443516D01*
X603895Y443542D01*
X603787Y443573D01*
X603680Y443607D01*
X603575Y443645D01*
X603471Y443687D01*
X603368Y443732D01*
X603267Y443781D01*
X603168Y443834D01*
X603071Y443890D01*
X602975Y443950D01*
X602883Y444013D01*
X602792Y444079D01*
X602704Y444148D01*
X602618Y444220D01*
X602535Y444296D01*
X602454Y444374D01*
X602377Y444455D01*
X602302Y444539D01*
X602230Y444625D01*
X602162Y444714D01*
X602096Y444806D01*
X602034Y444899D01*
X601976Y444995D01*
X601921Y445092D01*
X601869Y445192D01*
X601821Y445293D01*
X601776Y445396D01*
X601735Y445501D01*
X601698Y445607D01*
X601665Y445714D01*
X601635Y445822D01*
X601609Y445932D01*
X601588Y446042D01*
X601570Y446153D01*
X601556Y446264D01*
X601546Y446376D01*
X601540Y446488D01*
X601538Y446600D01*
D19*
X606462Y423610D02*
X611232Y423610D01*
X611232Y423611D02*
X611317Y423613D01*
X611401Y423619D01*
X611485Y423629D01*
X611569Y423642D01*
X611652Y423660D01*
X611734Y423681D01*
X611815Y423706D01*
X611895Y423735D01*
X611973Y423767D01*
X612049Y423803D01*
X612124Y423843D01*
X612197Y423886D01*
X612268Y423932D01*
X612337Y423981D01*
X612404Y424034D01*
X612468Y424090D01*
X612529Y424148D01*
X612587Y424209D01*
X612643Y424273D01*
X612696Y424340D01*
X612745Y424409D01*
X612791Y424480D01*
X612834Y424553D01*
X612874Y424628D01*
X612910Y424704D01*
X612942Y424782D01*
X612971Y424862D01*
X612996Y424943D01*
X613017Y425025D01*
X613035Y425108D01*
X613048Y425192D01*
X613058Y425276D01*
X613064Y425360D01*
X613066Y425445D01*
X613064Y425530D01*
X613058Y425614D01*
X613048Y425698D01*
X613035Y425782D01*
X613017Y425865D01*
X612996Y425947D01*
X612971Y426028D01*
X612942Y426108D01*
X612910Y426186D01*
X612874Y426262D01*
X612834Y426337D01*
X612791Y426410D01*
X612745Y426481D01*
X612696Y426550D01*
X612643Y426617D01*
X612587Y426681D01*
X612529Y426742D01*
X612468Y426800D01*
X612404Y426856D01*
X612337Y426909D01*
X612268Y426958D01*
X612197Y427004D01*
X612124Y427047D01*
X612049Y427087D01*
X611973Y427123D01*
X611895Y427155D01*
X611815Y427184D01*
X611734Y427209D01*
X611652Y427230D01*
X611569Y427248D01*
X611485Y427261D01*
X611401Y427271D01*
X611317Y427277D01*
X611232Y427279D01*
X606462Y427279D01*
X606462Y432637D02*
X611598Y431169D01*
X611598Y434838D01*
X610131Y433737D02*
X613066Y433737D01*
D14*
X449200Y12800D02*
X449202Y12863D01*
X449208Y12925D01*
X449218Y12987D01*
X449231Y13049D01*
X449249Y13109D01*
X449270Y13168D01*
X449295Y13226D01*
X449324Y13282D01*
X449356Y13336D01*
X449391Y13388D01*
X449429Y13437D01*
X449471Y13485D01*
X449515Y13529D01*
X449563Y13571D01*
X449612Y13609D01*
X449664Y13644D01*
X449718Y13676D01*
X449774Y13705D01*
X449832Y13730D01*
X449891Y13751D01*
X449951Y13769D01*
X450013Y13782D01*
X450075Y13792D01*
X450137Y13798D01*
X450200Y13800D01*
X450263Y13798D01*
X450325Y13792D01*
X450387Y13782D01*
X450449Y13769D01*
X450509Y13751D01*
X450568Y13730D01*
X450626Y13705D01*
X450682Y13676D01*
X450736Y13644D01*
X450788Y13609D01*
X450837Y13571D01*
X450885Y13529D01*
X450929Y13485D01*
X450971Y13437D01*
X451009Y13388D01*
X451044Y13336D01*
X451076Y13282D01*
X451105Y13226D01*
X451130Y13168D01*
X451151Y13109D01*
X451169Y13049D01*
X451182Y12987D01*
X451192Y12925D01*
X451198Y12863D01*
X451200Y12800D01*
X451198Y12737D01*
X451192Y12675D01*
X451182Y12613D01*
X451169Y12551D01*
X451151Y12491D01*
X451130Y12432D01*
X451105Y12374D01*
X451076Y12318D01*
X451044Y12264D01*
X451009Y12212D01*
X450971Y12163D01*
X450929Y12115D01*
X450885Y12071D01*
X450837Y12029D01*
X450788Y11991D01*
X450736Y11956D01*
X450682Y11924D01*
X450626Y11895D01*
X450568Y11870D01*
X450509Y11849D01*
X450449Y11831D01*
X450387Y11818D01*
X450325Y11808D01*
X450263Y11802D01*
X450200Y11800D01*
X450137Y11802D01*
X450075Y11808D01*
X450013Y11818D01*
X449951Y11831D01*
X449891Y11849D01*
X449832Y11870D01*
X449774Y11895D01*
X449718Y11924D01*
X449664Y11956D01*
X449612Y11991D01*
X449563Y12029D01*
X449515Y12071D01*
X449471Y12115D01*
X449429Y12163D01*
X449391Y12212D01*
X449356Y12264D01*
X449324Y12318D01*
X449295Y12374D01*
X449270Y12432D01*
X449249Y12491D01*
X449231Y12551D01*
X449218Y12613D01*
X449208Y12675D01*
X449202Y12737D01*
X449200Y12800D01*
D13*
X440700Y34300D02*
X440700Y194300D01*
X600700Y194300D02*
X600700Y34300D01*
D10*
X429220Y16623D02*
X423900Y16623D01*
X429220Y16623D02*
X429309Y16625D01*
X429398Y16631D01*
X429487Y16641D01*
X429575Y16654D01*
X429663Y16671D01*
X429750Y16693D01*
X429835Y16718D01*
X429920Y16746D01*
X430003Y16779D01*
X430085Y16815D01*
X430165Y16854D01*
X430243Y16897D01*
X430319Y16943D01*
X430394Y16993D01*
X430466Y17046D01*
X430535Y17102D01*
X430602Y17161D01*
X430667Y17222D01*
X430728Y17287D01*
X430787Y17354D01*
X430843Y17423D01*
X430896Y17495D01*
X430946Y17570D01*
X430992Y17646D01*
X431035Y17724D01*
X431074Y17804D01*
X431110Y17886D01*
X431143Y17969D01*
X431171Y18054D01*
X431196Y18139D01*
X431218Y18226D01*
X431235Y18314D01*
X431248Y18402D01*
X431258Y18491D01*
X431264Y18580D01*
X431266Y18669D01*
X431264Y18758D01*
X431258Y18847D01*
X431248Y18936D01*
X431235Y19024D01*
X431218Y19112D01*
X431196Y19199D01*
X431171Y19284D01*
X431143Y19369D01*
X431110Y19452D01*
X431074Y19534D01*
X431035Y19614D01*
X430992Y19692D01*
X430946Y19768D01*
X430896Y19843D01*
X430843Y19915D01*
X430787Y19984D01*
X430728Y20051D01*
X430667Y20116D01*
X430602Y20177D01*
X430535Y20236D01*
X430466Y20292D01*
X430394Y20345D01*
X430319Y20395D01*
X430243Y20441D01*
X430165Y20484D01*
X430085Y20523D01*
X430003Y20559D01*
X429920Y20592D01*
X429835Y20620D01*
X429750Y20645D01*
X429663Y20667D01*
X429575Y20684D01*
X429487Y20697D01*
X429398Y20707D01*
X429309Y20713D01*
X429220Y20715D01*
X423900Y20715D01*
X431266Y24182D02*
X431266Y26228D01*
X431264Y26317D01*
X431258Y26406D01*
X431248Y26495D01*
X431235Y26583D01*
X431218Y26671D01*
X431196Y26758D01*
X431171Y26843D01*
X431143Y26928D01*
X431110Y27011D01*
X431074Y27093D01*
X431035Y27173D01*
X430992Y27251D01*
X430946Y27327D01*
X430896Y27402D01*
X430843Y27474D01*
X430787Y27543D01*
X430728Y27610D01*
X430667Y27675D01*
X430602Y27736D01*
X430535Y27795D01*
X430466Y27851D01*
X430394Y27904D01*
X430319Y27954D01*
X430243Y28000D01*
X430165Y28043D01*
X430085Y28082D01*
X430003Y28118D01*
X429920Y28151D01*
X429835Y28179D01*
X429750Y28204D01*
X429663Y28226D01*
X429575Y28243D01*
X429487Y28256D01*
X429398Y28266D01*
X429309Y28272D01*
X429220Y28274D01*
X429131Y28272D01*
X429042Y28266D01*
X428953Y28256D01*
X428865Y28243D01*
X428777Y28226D01*
X428690Y28204D01*
X428605Y28179D01*
X428520Y28151D01*
X428437Y28118D01*
X428355Y28082D01*
X428275Y28043D01*
X428197Y28000D01*
X428121Y27954D01*
X428046Y27904D01*
X427974Y27851D01*
X427905Y27795D01*
X427838Y27736D01*
X427773Y27675D01*
X427712Y27610D01*
X427653Y27543D01*
X427597Y27474D01*
X427544Y27402D01*
X427494Y27327D01*
X427448Y27251D01*
X427405Y27173D01*
X427366Y27093D01*
X427330Y27011D01*
X427297Y26928D01*
X427269Y26843D01*
X427244Y26758D01*
X427222Y26671D01*
X427205Y26583D01*
X427192Y26495D01*
X427182Y26406D01*
X427176Y26317D01*
X427174Y26228D01*
X423900Y26637D02*
X423900Y24182D01*
X423900Y26637D02*
X423902Y26716D01*
X423908Y26795D01*
X423917Y26874D01*
X423930Y26952D01*
X423948Y27029D01*
X423968Y27105D01*
X423993Y27180D01*
X424021Y27254D01*
X424052Y27327D01*
X424088Y27398D01*
X424126Y27467D01*
X424168Y27534D01*
X424213Y27599D01*
X424261Y27662D01*
X424312Y27723D01*
X424366Y27780D01*
X424422Y27836D01*
X424481Y27888D01*
X424543Y27938D01*
X424607Y27984D01*
X424673Y28028D01*
X424741Y28068D01*
X424811Y28104D01*
X424883Y28138D01*
X424957Y28168D01*
X425031Y28194D01*
X425107Y28217D01*
X425184Y28235D01*
X425261Y28251D01*
X425340Y28262D01*
X425418Y28270D01*
X425497Y28274D01*
X425577Y28274D01*
X425656Y28270D01*
X425734Y28262D01*
X425813Y28251D01*
X425890Y28235D01*
X425967Y28217D01*
X426043Y28194D01*
X426117Y28168D01*
X426191Y28138D01*
X426263Y28104D01*
X426333Y28068D01*
X426401Y28028D01*
X426467Y27984D01*
X426531Y27938D01*
X426593Y27888D01*
X426652Y27836D01*
X426708Y27780D01*
X426762Y27723D01*
X426813Y27662D01*
X426861Y27599D01*
X426906Y27534D01*
X426948Y27467D01*
X426986Y27398D01*
X427022Y27327D01*
X427053Y27254D01*
X427081Y27180D01*
X427106Y27105D01*
X427126Y27029D01*
X427144Y26952D01*
X427157Y26874D01*
X427166Y26795D01*
X427172Y26716D01*
X427174Y26637D01*
X427174Y25001D01*
D11*
X570250Y465400D02*
X572750Y465400D01*
X572750Y474400D02*
X570250Y474400D01*
D20*
X572750Y469900D03*
D10*
X562217Y481203D02*
X562217Y488569D01*
X565490Y488569D01*
X565490Y485295D02*
X562217Y485295D01*
X568880Y488569D02*
X568880Y481203D01*
X568062Y481203D02*
X569698Y481203D01*
X569698Y488569D02*
X568062Y488569D01*
X572277Y481203D02*
X577187Y488569D01*
X572277Y488569D02*
X577187Y481203D01*
X579679Y480385D02*
X582953Y480385D01*
X586113Y481203D02*
X586113Y488569D01*
X586113Y481203D02*
X589387Y481203D01*
X592453Y481203D02*
X595726Y481203D01*
X592453Y481203D02*
X592453Y488569D01*
X595726Y488569D01*
X594908Y485295D02*
X592453Y485295D01*
X598777Y488569D02*
X598777Y481203D01*
X598777Y488569D02*
X600823Y488569D01*
X600912Y488567D01*
X601001Y488561D01*
X601090Y488551D01*
X601178Y488538D01*
X601266Y488521D01*
X601353Y488499D01*
X601438Y488474D01*
X601523Y488446D01*
X601606Y488413D01*
X601688Y488377D01*
X601768Y488338D01*
X601846Y488295D01*
X601922Y488249D01*
X601997Y488199D01*
X602069Y488146D01*
X602138Y488090D01*
X602205Y488031D01*
X602270Y487970D01*
X602331Y487905D01*
X602390Y487838D01*
X602446Y487769D01*
X602499Y487697D01*
X602549Y487622D01*
X602595Y487546D01*
X602638Y487468D01*
X602677Y487388D01*
X602713Y487306D01*
X602746Y487223D01*
X602774Y487138D01*
X602799Y487053D01*
X602821Y486966D01*
X602838Y486878D01*
X602851Y486790D01*
X602861Y486701D01*
X602867Y486612D01*
X602869Y486523D01*
X602869Y483249D01*
X602867Y483160D01*
X602861Y483071D01*
X602851Y482982D01*
X602838Y482894D01*
X602821Y482806D01*
X602799Y482719D01*
X602774Y482634D01*
X602746Y482549D01*
X602713Y482466D01*
X602677Y482384D01*
X602638Y482304D01*
X602595Y482226D01*
X602549Y482150D01*
X602499Y482075D01*
X602446Y482003D01*
X602390Y481934D01*
X602331Y481867D01*
X602270Y481802D01*
X602205Y481741D01*
X602138Y481682D01*
X602069Y481626D01*
X601997Y481573D01*
X601922Y481523D01*
X601846Y481477D01*
X601768Y481434D01*
X601688Y481395D01*
X601606Y481359D01*
X601523Y481326D01*
X601438Y481298D01*
X601353Y481273D01*
X601266Y481251D01*
X601178Y481234D01*
X601090Y481221D01*
X601001Y481211D01*
X600912Y481205D01*
X600823Y481203D01*
X598777Y481203D01*
D19*
X628650Y190500D02*
X641350Y190500D01*
X647700Y184150D01*
X647700Y171450D01*
X641350Y165100D01*
X622300Y171450D02*
X622300Y184150D01*
X628650Y190500D01*
X622300Y171450D02*
X628650Y165100D01*
X641350Y165100D01*
D10*
X623189Y200279D02*
X625644Y207645D01*
X628100Y200279D01*
X627486Y202121D02*
X623803Y202121D01*
X631157Y200279D02*
X631157Y207645D01*
X635249Y200279D01*
X635249Y207645D01*
X640275Y207645D02*
X640275Y200279D01*
X638229Y207645D02*
X642321Y207645D01*
X645056Y206008D02*
X647102Y207645D01*
X647102Y200279D01*
X645056Y200279D02*
X649148Y200279D01*
D16*
X50800Y133350D02*
X50800Y120650D01*
X44450Y114300D01*
X31750Y114300D02*
X25400Y120650D01*
X44450Y114300D02*
X50800Y107950D01*
X50800Y95250D01*
X44450Y88900D01*
X31750Y88900D02*
X25400Y95250D01*
X25400Y107950D01*
X31750Y114300D01*
X31750Y139700D02*
X44450Y139700D01*
X50800Y133350D01*
X31750Y139700D02*
X25400Y133350D01*
X25400Y120650D01*
X31750Y88900D02*
X44450Y88900D01*
D13*
X52705Y133436D02*
X56459Y133436D01*
X56524Y133434D01*
X56588Y133428D01*
X56652Y133418D01*
X56716Y133405D01*
X56778Y133387D01*
X56839Y133366D01*
X56899Y133342D01*
X56957Y133313D01*
X57014Y133281D01*
X57068Y133246D01*
X57120Y133208D01*
X57170Y133166D01*
X57217Y133122D01*
X57261Y133075D01*
X57303Y133025D01*
X57341Y132973D01*
X57376Y132919D01*
X57408Y132862D01*
X57437Y132804D01*
X57461Y132744D01*
X57482Y132683D01*
X57500Y132621D01*
X57513Y132557D01*
X57523Y132493D01*
X57529Y132429D01*
X57531Y132364D01*
X57531Y131827D01*
X57531Y136384D02*
X57531Y137724D01*
X57529Y137795D01*
X57523Y137867D01*
X57514Y137937D01*
X57501Y138007D01*
X57484Y138077D01*
X57463Y138145D01*
X57439Y138212D01*
X57411Y138278D01*
X57380Y138342D01*
X57345Y138405D01*
X57307Y138465D01*
X57266Y138524D01*
X57222Y138580D01*
X57175Y138634D01*
X57126Y138685D01*
X57073Y138733D01*
X57018Y138779D01*
X56961Y138821D01*
X56901Y138861D01*
X56840Y138897D01*
X56776Y138930D01*
X56711Y138959D01*
X56645Y138985D01*
X56577Y139008D01*
X56508Y139027D01*
X56438Y139042D01*
X56368Y139053D01*
X56297Y139061D01*
X56226Y139065D01*
X56154Y139065D01*
X56083Y139061D01*
X56012Y139053D01*
X55942Y139042D01*
X55872Y139027D01*
X55803Y139008D01*
X55735Y138985D01*
X55669Y138959D01*
X55604Y138930D01*
X55540Y138897D01*
X55479Y138861D01*
X55419Y138821D01*
X55362Y138779D01*
X55307Y138733D01*
X55254Y138685D01*
X55205Y138634D01*
X55158Y138580D01*
X55114Y138524D01*
X55073Y138465D01*
X55035Y138405D01*
X55000Y138342D01*
X54969Y138278D01*
X54941Y138212D01*
X54917Y138145D01*
X54896Y138077D01*
X54879Y138007D01*
X54866Y137937D01*
X54857Y137867D01*
X54851Y137795D01*
X54849Y137724D01*
X52705Y137993D02*
X52705Y136384D01*
X52705Y137993D02*
X52707Y138058D01*
X52713Y138122D01*
X52723Y138186D01*
X52736Y138250D01*
X52754Y138312D01*
X52775Y138373D01*
X52799Y138433D01*
X52828Y138491D01*
X52860Y138548D01*
X52895Y138602D01*
X52933Y138654D01*
X52975Y138704D01*
X53019Y138751D01*
X53066Y138795D01*
X53116Y138837D01*
X53168Y138875D01*
X53222Y138910D01*
X53279Y138942D01*
X53337Y138971D01*
X53397Y138995D01*
X53458Y139016D01*
X53520Y139034D01*
X53584Y139047D01*
X53648Y139057D01*
X53712Y139063D01*
X53777Y139065D01*
X53842Y139063D01*
X53906Y139057D01*
X53970Y139047D01*
X54034Y139034D01*
X54096Y139016D01*
X54157Y138995D01*
X54217Y138971D01*
X54275Y138942D01*
X54332Y138910D01*
X54386Y138875D01*
X54438Y138837D01*
X54488Y138795D01*
X54535Y138751D01*
X54579Y138704D01*
X54621Y138654D01*
X54659Y138602D01*
X54694Y138548D01*
X54726Y138491D01*
X54755Y138433D01*
X54779Y138373D01*
X54800Y138312D01*
X54818Y138250D01*
X54831Y138186D01*
X54841Y138122D01*
X54847Y138058D01*
X54849Y137993D01*
X54850Y137993D02*
X54850Y136920D01*
M02*
