G04 EAGLE Gerber RS-274X export*
G75*
%MOMM*%
%FSLAX34Y34*%
%LPD*%
%INSoldermask Bottom*%
%IPPOS*%
%AMOC8*
5,1,8,0,0,1.08239X$1,22.5*%
G01*
%ADD10C,3.003200*%
%ADD11C,1.727200*%
%ADD12C,1.676400*%
%ADD13C,4.267200*%
%ADD14C,2.082800*%
%ADD15C,1.879600*%
%ADD16P,2.969212X8X22.500000*%
%ADD17R,2.235200X2.235200*%
%ADD18C,2.235200*%
%ADD19C,0.959600*%


D10*
X52070Y562102D03*
X678180Y562102D03*
X52070Y50800D03*
D11*
X474980Y76200D02*
X490220Y76200D01*
X490220Y50800D02*
X474980Y50800D01*
X474980Y25400D02*
X490220Y25400D01*
X513080Y76200D02*
X528320Y76200D01*
X528320Y50800D02*
X513080Y50800D01*
X513080Y25400D02*
X528320Y25400D01*
X134620Y76200D02*
X119380Y76200D01*
X119380Y50800D02*
X134620Y50800D01*
X134620Y25400D02*
X119380Y25400D01*
D12*
X419100Y25400D03*
X419100Y50800D03*
X419100Y76200D03*
X419100Y101600D03*
X419100Y127000D03*
X419100Y152400D03*
X419100Y177800D03*
X419100Y203200D03*
X419100Y228600D03*
X419100Y254000D03*
X419100Y279400D03*
X419100Y304800D03*
X419100Y330200D03*
X419100Y355600D03*
X393700Y355600D03*
X368300Y355600D03*
X342900Y355600D03*
X317500Y355600D03*
X292100Y355600D03*
X266700Y355600D03*
X266700Y330200D03*
X266700Y304800D03*
X266700Y279400D03*
X266700Y254000D03*
X266700Y228600D03*
X266700Y203200D03*
X266700Y177800D03*
X266700Y152400D03*
X266700Y127000D03*
X266700Y101600D03*
X266700Y76200D03*
X266700Y50800D03*
X266700Y25400D03*
D13*
X50800Y129540D03*
X50800Y266700D03*
D14*
X177800Y120650D03*
X177800Y146050D03*
X177800Y171450D03*
X177800Y196850D03*
X177800Y222250D03*
X177800Y247650D03*
X177800Y273050D03*
D13*
X698500Y152400D03*
X495300Y152400D03*
D14*
X698500Y444500D03*
X673100Y444500D03*
X647700Y444500D03*
X622300Y444500D03*
X596900Y444500D03*
X571500Y444500D03*
X546100Y444500D03*
X520700Y444500D03*
X495300Y444500D03*
D13*
X60960Y467360D03*
X60960Y345440D03*
D15*
X106680Y482600D03*
X132080Y482600D03*
X157480Y482600D03*
X182880Y482600D03*
X182880Y330200D03*
X157480Y330200D03*
X132080Y330200D03*
X106680Y330200D03*
X106680Y431800D03*
X106680Y406400D03*
X106680Y381000D03*
D16*
X447040Y389890D03*
D11*
X172720Y76200D02*
X157480Y76200D01*
X157480Y50800D02*
X172720Y50800D01*
X172720Y25400D02*
X157480Y25400D01*
X551180Y76200D02*
X566420Y76200D01*
X566420Y50800D02*
X551180Y50800D01*
X551180Y25400D02*
X566420Y25400D01*
X210820Y76200D02*
X195580Y76200D01*
X195580Y50800D02*
X210820Y50800D01*
X210820Y25400D02*
X195580Y25400D01*
D17*
X635000Y50800D03*
D18*
X685000Y50800D03*
D19*
X293370Y565150D03*
X292100Y425450D03*
X392430Y444500D03*
X163830Y577850D03*
X508000Y596900D03*
X561340Y596900D03*
X622300Y596900D03*
X392430Y565150D03*
X392430Y505460D03*
X215900Y247650D03*
X215900Y203200D03*
X215900Y330200D03*
X229870Y273050D03*
X229870Y228600D03*
X157480Y307340D03*
X229870Y307340D03*
X447040Y425450D03*
X419100Y381000D03*
X317500Y381000D03*
X317500Y546100D03*
X228600Y355600D03*
X227330Y505460D03*
X304800Y330200D03*
X304800Y520700D03*
X355600Y482600D03*
X355600Y317500D03*
X330200Y464820D03*
X330200Y304800D03*
X368300Y88900D03*
X368300Y177800D03*
X520700Y114300D03*
X381000Y114300D03*
X381000Y152400D03*
X215900Y127000D03*
X215900Y101600D03*
X127000Y101600D03*
X213360Y547370D03*
X213360Y406400D03*
X406400Y406400D03*
X469900Y228600D03*
X469900Y469900D03*
X533400Y469900D03*
X533400Y203200D03*
X546100Y177800D03*
X723900Y495300D03*
X596900Y279400D03*
X571500Y304800D03*
X622300Y254000D03*
X457200Y254000D03*
X457200Y101600D03*
X377190Y280670D03*
X381000Y524510D03*
X558800Y127000D03*
X304800Y165100D03*
X304800Y88900D03*
M02*
