G04 EAGLE Gerber RS-274X export*
G75*
%MOMM*%
%FSLAX34Y34*%
%LPD*%
%INSolderpaste Top*%
%IPPOS*%
%AMOC8*
5,1,8,0,0,1.08239X$1,22.5*%
G01*
%ADD10C,0.031500*%
%ADD11C,0.019600*%
%ADD12R,1.000000X2.000000*%
%ADD13R,1.000000X1.100000*%
%ADD14R,1.400000X3.000000*%
%ADD15R,1.100000X1.000000*%

G36*
X566252Y465203D02*
X566252Y465203D01*
X566254Y465201D01*
X566598Y465228D01*
X566602Y465232D01*
X566606Y465229D01*
X566942Y465310D01*
X566945Y465315D01*
X566949Y465313D01*
X567268Y465445D01*
X567271Y465450D01*
X567275Y465448D01*
X567569Y465628D01*
X567571Y465633D01*
X567575Y465633D01*
X567838Y465857D01*
X567839Y465862D01*
X567844Y465862D01*
X568068Y466125D01*
X568068Y466131D01*
X568072Y466131D01*
X568252Y466425D01*
X568251Y466431D01*
X568256Y466432D01*
X568388Y466751D01*
X568386Y466757D01*
X568390Y466758D01*
X568471Y467094D01*
X568469Y467100D01*
X568472Y467102D01*
X568499Y467446D01*
X568497Y467449D01*
X568499Y467450D01*
X568472Y472694D01*
X568467Y472701D01*
X568471Y472706D01*
X568390Y473042D01*
X568385Y473045D01*
X568388Y473049D01*
X568256Y473368D01*
X568250Y473371D01*
X568252Y473375D01*
X568072Y473669D01*
X568067Y473671D01*
X568068Y473675D01*
X567844Y473938D01*
X567838Y473939D01*
X567838Y473944D01*
X567575Y474168D01*
X567569Y474168D01*
X567569Y474172D01*
X567275Y474352D01*
X567269Y474351D01*
X567268Y474356D01*
X566949Y474488D01*
X566943Y474486D01*
X566942Y474490D01*
X566606Y474571D01*
X566600Y474569D01*
X566598Y474572D01*
X566254Y474599D01*
X566251Y474598D01*
X566250Y474599D01*
X562050Y474599D01*
X562048Y474597D01*
X562046Y474599D01*
X561702Y474572D01*
X561698Y474568D01*
X561694Y474571D01*
X561358Y474490D01*
X561355Y474485D01*
X561351Y474488D01*
X561032Y474356D01*
X561029Y474350D01*
X561025Y474352D01*
X560731Y474172D01*
X560729Y474167D01*
X560725Y474168D01*
X560462Y473944D01*
X560461Y473938D01*
X560457Y473938D01*
X560233Y473675D01*
X560232Y473669D01*
X560228Y473669D01*
X560048Y473375D01*
X560049Y473369D01*
X560045Y473368D01*
X559913Y473049D01*
X559913Y473046D01*
X559911Y473045D01*
X559913Y473043D01*
X559910Y473042D01*
X559829Y472706D01*
X559831Y472702D01*
X559829Y472700D01*
X559830Y472699D01*
X559828Y472698D01*
X559801Y472354D01*
X559803Y472351D01*
X559801Y472350D01*
X559828Y467106D01*
X559833Y467099D01*
X559829Y467094D01*
X559910Y466758D01*
X559915Y466755D01*
X559913Y466751D01*
X560045Y466432D01*
X560050Y466429D01*
X560048Y466425D01*
X560228Y466131D01*
X560233Y466129D01*
X560233Y466125D01*
X560457Y465862D01*
X560462Y465861D01*
X560462Y465857D01*
X560725Y465633D01*
X560731Y465632D01*
X560731Y465628D01*
X561025Y465448D01*
X561031Y465449D01*
X561032Y465445D01*
X561351Y465313D01*
X561357Y465314D01*
X561358Y465310D01*
X561694Y465229D01*
X561700Y465231D01*
X561702Y465228D01*
X562046Y465201D01*
X562049Y465203D01*
X562050Y465201D01*
X566250Y465201D01*
X566252Y465203D01*
G37*
G36*
X580952Y465203D02*
X580952Y465203D01*
X580954Y465201D01*
X581298Y465228D01*
X581302Y465232D01*
X581306Y465229D01*
X581642Y465310D01*
X581645Y465315D01*
X581649Y465313D01*
X581968Y465445D01*
X581971Y465450D01*
X581975Y465448D01*
X582269Y465628D01*
X582271Y465633D01*
X582275Y465633D01*
X582538Y465857D01*
X582539Y465862D01*
X582544Y465862D01*
X582768Y466125D01*
X582768Y466131D01*
X582772Y466131D01*
X582952Y466425D01*
X582951Y466431D01*
X582956Y466432D01*
X583088Y466751D01*
X583086Y466757D01*
X583090Y466758D01*
X583171Y467094D01*
X583169Y467100D01*
X583172Y467102D01*
X583199Y467446D01*
X583197Y467449D01*
X583199Y467450D01*
X583172Y472694D01*
X583167Y472701D01*
X583171Y472706D01*
X583090Y473042D01*
X583085Y473045D01*
X583088Y473049D01*
X582956Y473368D01*
X582950Y473371D01*
X582952Y473375D01*
X582772Y473669D01*
X582767Y473671D01*
X582768Y473675D01*
X582544Y473938D01*
X582538Y473939D01*
X582538Y473944D01*
X582275Y474168D01*
X582269Y474168D01*
X582269Y474172D01*
X581975Y474352D01*
X581969Y474351D01*
X581968Y474356D01*
X581649Y474488D01*
X581643Y474486D01*
X581642Y474490D01*
X581306Y474571D01*
X581300Y474569D01*
X581298Y474572D01*
X580954Y474599D01*
X580951Y474598D01*
X580950Y474599D01*
X576750Y474599D01*
X576748Y474597D01*
X576746Y474599D01*
X576402Y474572D01*
X576398Y474568D01*
X576394Y474571D01*
X576058Y474490D01*
X576055Y474485D01*
X576051Y474488D01*
X575732Y474356D01*
X575729Y474350D01*
X575725Y474352D01*
X575431Y474172D01*
X575429Y474167D01*
X575425Y474168D01*
X575162Y473944D01*
X575161Y473938D01*
X575157Y473938D01*
X574933Y473675D01*
X574932Y473669D01*
X574928Y473669D01*
X574748Y473375D01*
X574749Y473369D01*
X574745Y473368D01*
X574613Y473049D01*
X574613Y473046D01*
X574611Y473045D01*
X574613Y473043D01*
X574610Y473042D01*
X574529Y472706D01*
X574531Y472702D01*
X574529Y472700D01*
X574530Y472699D01*
X574528Y472698D01*
X574501Y472354D01*
X574503Y472351D01*
X574501Y472350D01*
X574528Y467106D01*
X574533Y467099D01*
X574529Y467094D01*
X574610Y466758D01*
X574615Y466755D01*
X574613Y466751D01*
X574745Y466432D01*
X574750Y466429D01*
X574748Y466425D01*
X574928Y466131D01*
X574933Y466129D01*
X574933Y466125D01*
X575157Y465862D01*
X575162Y465861D01*
X575162Y465857D01*
X575425Y465633D01*
X575431Y465632D01*
X575431Y465628D01*
X575725Y465448D01*
X575731Y465449D01*
X575732Y465445D01*
X576051Y465313D01*
X576057Y465314D01*
X576058Y465310D01*
X576394Y465229D01*
X576400Y465231D01*
X576402Y465228D01*
X576746Y465201D01*
X576749Y465203D01*
X576750Y465201D01*
X580950Y465201D01*
X580952Y465203D01*
G37*
G36*
X193294Y104628D02*
X193294Y104628D01*
X193301Y104633D01*
X193306Y104629D01*
X193642Y104710D01*
X193645Y104715D01*
X193649Y104713D01*
X193968Y104845D01*
X193971Y104850D01*
X193975Y104848D01*
X194269Y105028D01*
X194271Y105033D01*
X194275Y105033D01*
X194538Y105257D01*
X194539Y105262D01*
X194544Y105262D01*
X194768Y105525D01*
X194768Y105531D01*
X194772Y105531D01*
X194952Y105825D01*
X194951Y105831D01*
X194956Y105832D01*
X195088Y106151D01*
X195086Y106157D01*
X195090Y106158D01*
X195171Y106494D01*
X195169Y106500D01*
X195172Y106502D01*
X195199Y106846D01*
X195198Y106849D01*
X195199Y106850D01*
X195199Y111050D01*
X195197Y111052D01*
X195199Y111054D01*
X195172Y111398D01*
X195168Y111402D01*
X195171Y111406D01*
X195090Y111742D01*
X195085Y111745D01*
X195088Y111749D01*
X194956Y112068D01*
X194950Y112071D01*
X194952Y112075D01*
X194772Y112369D01*
X194767Y112371D01*
X194768Y112375D01*
X194544Y112638D01*
X194538Y112639D01*
X194538Y112644D01*
X194275Y112868D01*
X194269Y112868D01*
X194269Y112872D01*
X193975Y113052D01*
X193969Y113051D01*
X193968Y113056D01*
X193649Y113188D01*
X193643Y113186D01*
X193642Y113190D01*
X193306Y113271D01*
X193301Y113269D01*
X193300Y113269D01*
X193298Y113272D01*
X192954Y113299D01*
X192951Y113297D01*
X192950Y113299D01*
X187706Y113272D01*
X187701Y113269D01*
X187697Y113269D01*
X187694Y113271D01*
X187358Y113190D01*
X187355Y113185D01*
X187351Y113188D01*
X187032Y113056D01*
X187029Y113050D01*
X187025Y113052D01*
X186731Y112872D01*
X186729Y112867D01*
X186725Y112868D01*
X186462Y112644D01*
X186461Y112638D01*
X186457Y112638D01*
X186233Y112375D01*
X186232Y112369D01*
X186228Y112369D01*
X186048Y112075D01*
X186049Y112069D01*
X186045Y112068D01*
X185913Y111749D01*
X185914Y111743D01*
X185910Y111742D01*
X185829Y111406D01*
X185831Y111400D01*
X185828Y111398D01*
X185801Y111054D01*
X185803Y111051D01*
X185801Y111050D01*
X185801Y106850D01*
X185803Y106848D01*
X185801Y106846D01*
X185828Y106502D01*
X185832Y106498D01*
X185829Y106494D01*
X185910Y106158D01*
X185915Y106155D01*
X185913Y106151D01*
X186045Y105832D01*
X186050Y105829D01*
X186048Y105825D01*
X186228Y105531D01*
X186233Y105529D01*
X186233Y105525D01*
X186457Y105262D01*
X186462Y105261D01*
X186462Y105257D01*
X186725Y105033D01*
X186731Y105032D01*
X186731Y105028D01*
X187025Y104848D01*
X187031Y104849D01*
X187032Y104845D01*
X187351Y104713D01*
X187357Y104714D01*
X187358Y104710D01*
X187694Y104629D01*
X187700Y104631D01*
X187702Y104628D01*
X188046Y104601D01*
X188049Y104603D01*
X188050Y104601D01*
X193294Y104628D01*
G37*
G36*
X231394Y104628D02*
X231394Y104628D01*
X231401Y104633D01*
X231406Y104629D01*
X231742Y104710D01*
X231745Y104715D01*
X231749Y104713D01*
X232068Y104845D01*
X232071Y104850D01*
X232075Y104848D01*
X232369Y105028D01*
X232371Y105033D01*
X232375Y105033D01*
X232638Y105257D01*
X232639Y105262D01*
X232644Y105262D01*
X232868Y105525D01*
X232868Y105531D01*
X232872Y105531D01*
X233052Y105825D01*
X233051Y105831D01*
X233056Y105832D01*
X233188Y106151D01*
X233186Y106157D01*
X233190Y106158D01*
X233271Y106494D01*
X233269Y106500D01*
X233272Y106502D01*
X233299Y106846D01*
X233298Y106849D01*
X233299Y106850D01*
X233299Y111050D01*
X233297Y111052D01*
X233299Y111054D01*
X233272Y111398D01*
X233268Y111402D01*
X233271Y111406D01*
X233190Y111742D01*
X233185Y111745D01*
X233188Y111749D01*
X233056Y112068D01*
X233050Y112071D01*
X233052Y112075D01*
X232872Y112369D01*
X232867Y112371D01*
X232868Y112375D01*
X232644Y112638D01*
X232638Y112639D01*
X232638Y112644D01*
X232375Y112868D01*
X232369Y112868D01*
X232369Y112872D01*
X232075Y113052D01*
X232069Y113051D01*
X232068Y113056D01*
X231749Y113188D01*
X231743Y113186D01*
X231742Y113190D01*
X231406Y113271D01*
X231401Y113269D01*
X231400Y113269D01*
X231398Y113272D01*
X231054Y113299D01*
X231051Y113297D01*
X231050Y113299D01*
X225806Y113272D01*
X225801Y113269D01*
X225797Y113269D01*
X225794Y113271D01*
X225458Y113190D01*
X225455Y113185D01*
X225451Y113188D01*
X225132Y113056D01*
X225129Y113050D01*
X225125Y113052D01*
X224831Y112872D01*
X224829Y112867D01*
X224825Y112868D01*
X224562Y112644D01*
X224561Y112638D01*
X224557Y112638D01*
X224333Y112375D01*
X224332Y112369D01*
X224328Y112369D01*
X224148Y112075D01*
X224149Y112069D01*
X224145Y112068D01*
X224013Y111749D01*
X224014Y111743D01*
X224010Y111742D01*
X223929Y111406D01*
X223931Y111400D01*
X223928Y111398D01*
X223901Y111054D01*
X223903Y111051D01*
X223901Y111050D01*
X223901Y106850D01*
X223903Y106848D01*
X223901Y106846D01*
X223928Y106502D01*
X223932Y106498D01*
X223929Y106494D01*
X224010Y106158D01*
X224015Y106155D01*
X224013Y106151D01*
X224145Y105832D01*
X224150Y105829D01*
X224148Y105825D01*
X224328Y105531D01*
X224333Y105529D01*
X224333Y105525D01*
X224557Y105262D01*
X224562Y105261D01*
X224562Y105257D01*
X224825Y105033D01*
X224831Y105032D01*
X224831Y105028D01*
X225125Y104848D01*
X225131Y104849D01*
X225132Y104845D01*
X225451Y104713D01*
X225457Y104714D01*
X225458Y104710D01*
X225794Y104629D01*
X225800Y104631D01*
X225802Y104628D01*
X226146Y104601D01*
X226149Y104603D01*
X226150Y104601D01*
X231394Y104628D01*
G37*
G36*
X155194Y104628D02*
X155194Y104628D01*
X155201Y104633D01*
X155206Y104629D01*
X155542Y104710D01*
X155545Y104715D01*
X155549Y104713D01*
X155868Y104845D01*
X155871Y104850D01*
X155875Y104848D01*
X156169Y105028D01*
X156171Y105033D01*
X156175Y105033D01*
X156438Y105257D01*
X156439Y105262D01*
X156444Y105262D01*
X156668Y105525D01*
X156668Y105531D01*
X156672Y105531D01*
X156852Y105825D01*
X156851Y105831D01*
X156856Y105832D01*
X156988Y106151D01*
X156986Y106157D01*
X156990Y106158D01*
X157071Y106494D01*
X157069Y106500D01*
X157072Y106502D01*
X157099Y106846D01*
X157098Y106849D01*
X157099Y106850D01*
X157099Y111050D01*
X157097Y111052D01*
X157099Y111054D01*
X157072Y111398D01*
X157068Y111402D01*
X157071Y111406D01*
X156990Y111742D01*
X156985Y111745D01*
X156988Y111749D01*
X156856Y112068D01*
X156850Y112071D01*
X156852Y112075D01*
X156672Y112369D01*
X156667Y112371D01*
X156668Y112375D01*
X156444Y112638D01*
X156438Y112639D01*
X156438Y112644D01*
X156175Y112868D01*
X156169Y112868D01*
X156169Y112872D01*
X155875Y113052D01*
X155869Y113051D01*
X155868Y113056D01*
X155549Y113188D01*
X155543Y113186D01*
X155542Y113190D01*
X155206Y113271D01*
X155201Y113269D01*
X155200Y113269D01*
X155198Y113272D01*
X154854Y113299D01*
X154851Y113297D01*
X154850Y113299D01*
X149606Y113272D01*
X149601Y113269D01*
X149597Y113269D01*
X149594Y113271D01*
X149258Y113190D01*
X149255Y113185D01*
X149251Y113188D01*
X148932Y113056D01*
X148929Y113050D01*
X148925Y113052D01*
X148631Y112872D01*
X148629Y112867D01*
X148625Y112868D01*
X148362Y112644D01*
X148361Y112638D01*
X148357Y112638D01*
X148133Y112375D01*
X148132Y112369D01*
X148128Y112369D01*
X147948Y112075D01*
X147949Y112069D01*
X147945Y112068D01*
X147813Y111749D01*
X147814Y111743D01*
X147810Y111742D01*
X147729Y111406D01*
X147731Y111400D01*
X147728Y111398D01*
X147701Y111054D01*
X147703Y111051D01*
X147701Y111050D01*
X147701Y106850D01*
X147703Y106848D01*
X147701Y106846D01*
X147728Y106502D01*
X147732Y106498D01*
X147729Y106494D01*
X147810Y106158D01*
X147815Y106155D01*
X147813Y106151D01*
X147945Y105832D01*
X147950Y105829D01*
X147948Y105825D01*
X148128Y105531D01*
X148133Y105529D01*
X148133Y105525D01*
X148357Y105262D01*
X148362Y105261D01*
X148362Y105257D01*
X148625Y105033D01*
X148631Y105032D01*
X148631Y105028D01*
X148925Y104848D01*
X148931Y104849D01*
X148932Y104845D01*
X149251Y104713D01*
X149257Y104714D01*
X149258Y104710D01*
X149594Y104629D01*
X149600Y104631D01*
X149602Y104628D01*
X149946Y104601D01*
X149949Y104603D01*
X149950Y104601D01*
X155194Y104628D01*
G37*
G36*
X231394Y89928D02*
X231394Y89928D01*
X231401Y89933D01*
X231406Y89929D01*
X231742Y90010D01*
X231745Y90015D01*
X231749Y90013D01*
X232068Y90145D01*
X232071Y90150D01*
X232075Y90148D01*
X232369Y90328D01*
X232371Y90333D01*
X232375Y90333D01*
X232638Y90557D01*
X232639Y90562D01*
X232644Y90562D01*
X232868Y90825D01*
X232868Y90831D01*
X232872Y90831D01*
X233052Y91125D01*
X233051Y91131D01*
X233056Y91132D01*
X233188Y91451D01*
X233186Y91457D01*
X233190Y91458D01*
X233271Y91794D01*
X233269Y91800D01*
X233272Y91802D01*
X233299Y92146D01*
X233298Y92149D01*
X233299Y92150D01*
X233299Y96350D01*
X233297Y96352D01*
X233299Y96354D01*
X233272Y96698D01*
X233268Y96702D01*
X233271Y96706D01*
X233190Y97042D01*
X233185Y97045D01*
X233188Y97049D01*
X233056Y97368D01*
X233050Y97371D01*
X233052Y97375D01*
X232872Y97669D01*
X232867Y97671D01*
X232868Y97675D01*
X232644Y97938D01*
X232638Y97939D01*
X232638Y97944D01*
X232375Y98168D01*
X232369Y98168D01*
X232369Y98172D01*
X232075Y98352D01*
X232069Y98351D01*
X232068Y98356D01*
X231749Y98488D01*
X231743Y98486D01*
X231742Y98490D01*
X231406Y98571D01*
X231401Y98569D01*
X231400Y98569D01*
X231398Y98572D01*
X231054Y98599D01*
X231051Y98597D01*
X231050Y98599D01*
X225806Y98572D01*
X225801Y98569D01*
X225797Y98569D01*
X225794Y98571D01*
X225458Y98490D01*
X225455Y98485D01*
X225451Y98488D01*
X225132Y98356D01*
X225129Y98350D01*
X225125Y98352D01*
X224831Y98172D01*
X224829Y98167D01*
X224825Y98168D01*
X224562Y97944D01*
X224561Y97938D01*
X224557Y97938D01*
X224333Y97675D01*
X224332Y97669D01*
X224328Y97669D01*
X224148Y97375D01*
X224149Y97369D01*
X224145Y97368D01*
X224013Y97049D01*
X224014Y97043D01*
X224010Y97042D01*
X223929Y96706D01*
X223931Y96700D01*
X223928Y96698D01*
X223901Y96354D01*
X223903Y96351D01*
X223901Y96350D01*
X223901Y92150D01*
X223903Y92148D01*
X223901Y92146D01*
X223928Y91802D01*
X223932Y91798D01*
X223929Y91794D01*
X224010Y91458D01*
X224015Y91455D01*
X224013Y91451D01*
X224145Y91132D01*
X224150Y91129D01*
X224148Y91125D01*
X224328Y90831D01*
X224333Y90829D01*
X224333Y90825D01*
X224557Y90562D01*
X224562Y90561D01*
X224562Y90557D01*
X224825Y90333D01*
X224831Y90332D01*
X224831Y90328D01*
X225125Y90148D01*
X225131Y90149D01*
X225132Y90145D01*
X225451Y90013D01*
X225457Y90014D01*
X225458Y90010D01*
X225794Y89929D01*
X225800Y89931D01*
X225802Y89928D01*
X226146Y89901D01*
X226149Y89903D01*
X226150Y89901D01*
X231394Y89928D01*
G37*
G36*
X193294Y89928D02*
X193294Y89928D01*
X193301Y89933D01*
X193306Y89929D01*
X193642Y90010D01*
X193645Y90015D01*
X193649Y90013D01*
X193968Y90145D01*
X193971Y90150D01*
X193975Y90148D01*
X194269Y90328D01*
X194271Y90333D01*
X194275Y90333D01*
X194538Y90557D01*
X194539Y90562D01*
X194544Y90562D01*
X194768Y90825D01*
X194768Y90831D01*
X194772Y90831D01*
X194952Y91125D01*
X194951Y91131D01*
X194956Y91132D01*
X195088Y91451D01*
X195086Y91457D01*
X195090Y91458D01*
X195171Y91794D01*
X195169Y91800D01*
X195172Y91802D01*
X195199Y92146D01*
X195198Y92149D01*
X195199Y92150D01*
X195199Y96350D01*
X195197Y96352D01*
X195199Y96354D01*
X195172Y96698D01*
X195168Y96702D01*
X195171Y96706D01*
X195090Y97042D01*
X195085Y97045D01*
X195088Y97049D01*
X194956Y97368D01*
X194950Y97371D01*
X194952Y97375D01*
X194772Y97669D01*
X194767Y97671D01*
X194768Y97675D01*
X194544Y97938D01*
X194538Y97939D01*
X194538Y97944D01*
X194275Y98168D01*
X194269Y98168D01*
X194269Y98172D01*
X193975Y98352D01*
X193969Y98351D01*
X193968Y98356D01*
X193649Y98488D01*
X193643Y98486D01*
X193642Y98490D01*
X193306Y98571D01*
X193301Y98569D01*
X193300Y98569D01*
X193298Y98572D01*
X192954Y98599D01*
X192951Y98597D01*
X192950Y98599D01*
X187706Y98572D01*
X187701Y98569D01*
X187697Y98569D01*
X187694Y98571D01*
X187358Y98490D01*
X187355Y98485D01*
X187351Y98488D01*
X187032Y98356D01*
X187029Y98350D01*
X187025Y98352D01*
X186731Y98172D01*
X186729Y98167D01*
X186725Y98168D01*
X186462Y97944D01*
X186461Y97938D01*
X186457Y97938D01*
X186233Y97675D01*
X186232Y97669D01*
X186228Y97669D01*
X186048Y97375D01*
X186049Y97369D01*
X186045Y97368D01*
X185913Y97049D01*
X185914Y97043D01*
X185910Y97042D01*
X185829Y96706D01*
X185831Y96700D01*
X185828Y96698D01*
X185801Y96354D01*
X185803Y96351D01*
X185801Y96350D01*
X185801Y92150D01*
X185803Y92148D01*
X185801Y92146D01*
X185828Y91802D01*
X185832Y91798D01*
X185829Y91794D01*
X185910Y91458D01*
X185915Y91455D01*
X185913Y91451D01*
X186045Y91132D01*
X186050Y91129D01*
X186048Y91125D01*
X186228Y90831D01*
X186233Y90829D01*
X186233Y90825D01*
X186457Y90562D01*
X186462Y90561D01*
X186462Y90557D01*
X186725Y90333D01*
X186731Y90332D01*
X186731Y90328D01*
X187025Y90148D01*
X187031Y90149D01*
X187032Y90145D01*
X187351Y90013D01*
X187357Y90014D01*
X187358Y90010D01*
X187694Y89929D01*
X187700Y89931D01*
X187702Y89928D01*
X188046Y89901D01*
X188049Y89903D01*
X188050Y89901D01*
X193294Y89928D01*
G37*
G36*
X155194Y89928D02*
X155194Y89928D01*
X155201Y89933D01*
X155206Y89929D01*
X155542Y90010D01*
X155545Y90015D01*
X155549Y90013D01*
X155868Y90145D01*
X155871Y90150D01*
X155875Y90148D01*
X156169Y90328D01*
X156171Y90333D01*
X156175Y90333D01*
X156438Y90557D01*
X156439Y90562D01*
X156444Y90562D01*
X156668Y90825D01*
X156668Y90831D01*
X156672Y90831D01*
X156852Y91125D01*
X156851Y91131D01*
X156856Y91132D01*
X156988Y91451D01*
X156986Y91457D01*
X156990Y91458D01*
X157071Y91794D01*
X157069Y91800D01*
X157072Y91802D01*
X157099Y92146D01*
X157098Y92149D01*
X157099Y92150D01*
X157099Y96350D01*
X157097Y96352D01*
X157099Y96354D01*
X157072Y96698D01*
X157068Y96702D01*
X157071Y96706D01*
X156990Y97042D01*
X156985Y97045D01*
X156988Y97049D01*
X156856Y97368D01*
X156850Y97371D01*
X156852Y97375D01*
X156672Y97669D01*
X156667Y97671D01*
X156668Y97675D01*
X156444Y97938D01*
X156438Y97939D01*
X156438Y97944D01*
X156175Y98168D01*
X156169Y98168D01*
X156169Y98172D01*
X155875Y98352D01*
X155869Y98351D01*
X155868Y98356D01*
X155549Y98488D01*
X155543Y98486D01*
X155542Y98490D01*
X155206Y98571D01*
X155201Y98569D01*
X155200Y98569D01*
X155198Y98572D01*
X154854Y98599D01*
X154851Y98597D01*
X154850Y98599D01*
X149606Y98572D01*
X149601Y98569D01*
X149597Y98569D01*
X149594Y98571D01*
X149258Y98490D01*
X149255Y98485D01*
X149251Y98488D01*
X148932Y98356D01*
X148929Y98350D01*
X148925Y98352D01*
X148631Y98172D01*
X148629Y98167D01*
X148625Y98168D01*
X148362Y97944D01*
X148361Y97938D01*
X148357Y97938D01*
X148133Y97675D01*
X148132Y97669D01*
X148128Y97669D01*
X147948Y97375D01*
X147949Y97369D01*
X147945Y97368D01*
X147813Y97049D01*
X147814Y97043D01*
X147810Y97042D01*
X147729Y96706D01*
X147731Y96700D01*
X147728Y96698D01*
X147701Y96354D01*
X147703Y96351D01*
X147701Y96350D01*
X147701Y92150D01*
X147703Y92148D01*
X147701Y92146D01*
X147728Y91802D01*
X147732Y91798D01*
X147729Y91794D01*
X147810Y91458D01*
X147815Y91455D01*
X147813Y91451D01*
X147945Y91132D01*
X147950Y91129D01*
X147948Y91125D01*
X148128Y90831D01*
X148133Y90829D01*
X148133Y90825D01*
X148357Y90562D01*
X148362Y90561D01*
X148362Y90557D01*
X148625Y90333D01*
X148631Y90332D01*
X148631Y90328D01*
X148925Y90148D01*
X148931Y90149D01*
X148932Y90145D01*
X149251Y90013D01*
X149257Y90014D01*
X149258Y90010D01*
X149594Y89929D01*
X149600Y89931D01*
X149602Y89928D01*
X149946Y89901D01*
X149949Y89903D01*
X149950Y89901D01*
X155194Y89928D01*
G37*
D10*
X32043Y474143D02*
X32043Y470657D01*
X28857Y470657D01*
X28857Y474143D01*
X32043Y474143D01*
X32043Y470956D02*
X28857Y470956D01*
X28857Y471255D02*
X32043Y471255D01*
X32043Y471554D02*
X28857Y471554D01*
X28857Y471853D02*
X32043Y471853D01*
X32043Y472152D02*
X28857Y472152D01*
X28857Y472451D02*
X32043Y472451D01*
X32043Y472750D02*
X28857Y472750D01*
X28857Y473049D02*
X32043Y473049D01*
X32043Y473348D02*
X28857Y473348D01*
X28857Y473647D02*
X32043Y473647D01*
X32043Y473946D02*
X28857Y473946D01*
X32043Y469143D02*
X32043Y465657D01*
X28857Y465657D01*
X28857Y469143D01*
X32043Y469143D01*
X32043Y465956D02*
X28857Y465956D01*
X28857Y466255D02*
X32043Y466255D01*
X32043Y466554D02*
X28857Y466554D01*
X28857Y466853D02*
X32043Y466853D01*
X32043Y467152D02*
X28857Y467152D01*
X28857Y467451D02*
X32043Y467451D01*
X32043Y467750D02*
X28857Y467750D01*
X28857Y468049D02*
X32043Y468049D01*
X32043Y468348D02*
X28857Y468348D01*
X28857Y468647D02*
X32043Y468647D01*
X32043Y468946D02*
X28857Y468946D01*
X34693Y463993D02*
X34693Y460507D01*
X31507Y460507D01*
X31507Y463993D01*
X34693Y463993D01*
X34693Y460806D02*
X31507Y460806D01*
X31507Y461105D02*
X34693Y461105D01*
X34693Y461404D02*
X31507Y461404D01*
X31507Y461703D02*
X34693Y461703D01*
X34693Y462002D02*
X31507Y462002D01*
X31507Y462301D02*
X34693Y462301D01*
X34693Y462600D02*
X31507Y462600D01*
X31507Y462899D02*
X34693Y462899D01*
X34693Y463198D02*
X31507Y463198D01*
X31507Y463497D02*
X34693Y463497D01*
X34693Y463796D02*
X31507Y463796D01*
X39693Y463993D02*
X39693Y460507D01*
X36507Y460507D01*
X36507Y463993D01*
X39693Y463993D01*
X39693Y460806D02*
X36507Y460806D01*
X36507Y461105D02*
X39693Y461105D01*
X39693Y461404D02*
X36507Y461404D01*
X36507Y461703D02*
X39693Y461703D01*
X39693Y462002D02*
X36507Y462002D01*
X36507Y462301D02*
X39693Y462301D01*
X39693Y462600D02*
X36507Y462600D01*
X36507Y462899D02*
X39693Y462899D01*
X39693Y463198D02*
X36507Y463198D01*
X36507Y463497D02*
X39693Y463497D01*
X39693Y463796D02*
X36507Y463796D01*
X44693Y463993D02*
X44693Y460507D01*
X41507Y460507D01*
X41507Y463993D01*
X44693Y463993D01*
X44693Y460806D02*
X41507Y460806D01*
X41507Y461105D02*
X44693Y461105D01*
X44693Y461404D02*
X41507Y461404D01*
X41507Y461703D02*
X44693Y461703D01*
X44693Y462002D02*
X41507Y462002D01*
X41507Y462301D02*
X44693Y462301D01*
X44693Y462600D02*
X41507Y462600D01*
X41507Y462899D02*
X44693Y462899D01*
X44693Y463198D02*
X41507Y463198D01*
X41507Y463497D02*
X44693Y463497D01*
X44693Y463796D02*
X41507Y463796D01*
X47343Y465657D02*
X47343Y469143D01*
X47343Y465657D02*
X44157Y465657D01*
X44157Y469143D01*
X47343Y469143D01*
X47343Y465956D02*
X44157Y465956D01*
X44157Y466255D02*
X47343Y466255D01*
X47343Y466554D02*
X44157Y466554D01*
X44157Y466853D02*
X47343Y466853D01*
X47343Y467152D02*
X44157Y467152D01*
X44157Y467451D02*
X47343Y467451D01*
X47343Y467750D02*
X44157Y467750D01*
X44157Y468049D02*
X47343Y468049D01*
X47343Y468348D02*
X44157Y468348D01*
X44157Y468647D02*
X47343Y468647D01*
X47343Y468946D02*
X44157Y468946D01*
X47343Y470657D02*
X47343Y474143D01*
X47343Y470657D02*
X44157Y470657D01*
X44157Y474143D01*
X47343Y474143D01*
X47343Y470956D02*
X44157Y470956D01*
X44157Y471255D02*
X47343Y471255D01*
X47343Y471554D02*
X44157Y471554D01*
X44157Y471853D02*
X47343Y471853D01*
X47343Y472152D02*
X44157Y472152D01*
X44157Y472451D02*
X47343Y472451D01*
X47343Y472750D02*
X44157Y472750D01*
X44157Y473049D02*
X47343Y473049D01*
X47343Y473348D02*
X44157Y473348D01*
X44157Y473647D02*
X47343Y473647D01*
X47343Y473946D02*
X44157Y473946D01*
X44693Y475807D02*
X44693Y479293D01*
X44693Y475807D02*
X41507Y475807D01*
X41507Y479293D01*
X44693Y479293D01*
X44693Y476106D02*
X41507Y476106D01*
X41507Y476405D02*
X44693Y476405D01*
X44693Y476704D02*
X41507Y476704D01*
X41507Y477003D02*
X44693Y477003D01*
X44693Y477302D02*
X41507Y477302D01*
X41507Y477601D02*
X44693Y477601D01*
X44693Y477900D02*
X41507Y477900D01*
X41507Y478199D02*
X44693Y478199D01*
X44693Y478498D02*
X41507Y478498D01*
X41507Y478797D02*
X44693Y478797D01*
X44693Y479096D02*
X41507Y479096D01*
X39693Y479293D02*
X39693Y475807D01*
X36507Y475807D01*
X36507Y479293D01*
X39693Y479293D01*
X39693Y476106D02*
X36507Y476106D01*
X36507Y476405D02*
X39693Y476405D01*
X39693Y476704D02*
X36507Y476704D01*
X36507Y477003D02*
X39693Y477003D01*
X39693Y477302D02*
X36507Y477302D01*
X36507Y477601D02*
X39693Y477601D01*
X39693Y477900D02*
X36507Y477900D01*
X36507Y478199D02*
X39693Y478199D01*
X39693Y478498D02*
X36507Y478498D01*
X36507Y478797D02*
X39693Y478797D01*
X39693Y479096D02*
X36507Y479096D01*
X34693Y479293D02*
X34693Y475807D01*
X31507Y475807D01*
X31507Y479293D01*
X34693Y479293D01*
X34693Y476106D02*
X31507Y476106D01*
X31507Y476405D02*
X34693Y476405D01*
X34693Y476704D02*
X31507Y476704D01*
X31507Y477003D02*
X34693Y477003D01*
X34693Y477302D02*
X31507Y477302D01*
X31507Y477601D02*
X34693Y477601D01*
X34693Y477900D02*
X31507Y477900D01*
X31507Y478199D02*
X34693Y478199D01*
X34693Y478498D02*
X31507Y478498D01*
X31507Y478797D02*
X34693Y478797D01*
X34693Y479096D02*
X31507Y479096D01*
D11*
X178022Y479572D02*
X178022Y474468D01*
X175418Y474468D01*
X175418Y479572D01*
X178022Y479572D01*
X178022Y474654D02*
X175418Y474654D01*
X175418Y474840D02*
X178022Y474840D01*
X178022Y475026D02*
X175418Y475026D01*
X175418Y475212D02*
X178022Y475212D01*
X178022Y475398D02*
X175418Y475398D01*
X175418Y475584D02*
X178022Y475584D01*
X178022Y475770D02*
X175418Y475770D01*
X175418Y475956D02*
X178022Y475956D01*
X178022Y476142D02*
X175418Y476142D01*
X175418Y476328D02*
X178022Y476328D01*
X178022Y476514D02*
X175418Y476514D01*
X175418Y476700D02*
X178022Y476700D01*
X178022Y476886D02*
X175418Y476886D01*
X175418Y477072D02*
X178022Y477072D01*
X178022Y477258D02*
X175418Y477258D01*
X175418Y477444D02*
X178022Y477444D01*
X178022Y477630D02*
X175418Y477630D01*
X175418Y477816D02*
X178022Y477816D01*
X178022Y478002D02*
X175418Y478002D01*
X175418Y478188D02*
X178022Y478188D01*
X178022Y478374D02*
X175418Y478374D01*
X175418Y478560D02*
X178022Y478560D01*
X178022Y478746D02*
X175418Y478746D01*
X175418Y478932D02*
X178022Y478932D01*
X178022Y479118D02*
X175418Y479118D01*
X175418Y479304D02*
X178022Y479304D01*
X178022Y479490D02*
X175418Y479490D01*
X174518Y472572D02*
X179622Y472572D01*
X179622Y469968D01*
X174518Y469968D01*
X174518Y472572D01*
X174518Y470154D02*
X179622Y470154D01*
X179622Y470340D02*
X174518Y470340D01*
X174518Y470526D02*
X179622Y470526D01*
X179622Y470712D02*
X174518Y470712D01*
X174518Y470898D02*
X179622Y470898D01*
X179622Y471084D02*
X174518Y471084D01*
X174518Y471270D02*
X179622Y471270D01*
X179622Y471456D02*
X174518Y471456D01*
X174518Y471642D02*
X179622Y471642D01*
X179622Y471828D02*
X174518Y471828D01*
X174518Y472014D02*
X179622Y472014D01*
X179622Y472200D02*
X174518Y472200D01*
X174518Y472386D02*
X179622Y472386D01*
X179622Y472572D02*
X174518Y472572D01*
X174518Y468272D02*
X179622Y468272D01*
X179622Y465668D01*
X174518Y465668D01*
X174518Y468272D01*
X174518Y465854D02*
X179622Y465854D01*
X179622Y466040D02*
X174518Y466040D01*
X174518Y466226D02*
X179622Y466226D01*
X179622Y466412D02*
X174518Y466412D01*
X174518Y466598D02*
X179622Y466598D01*
X179622Y466784D02*
X174518Y466784D01*
X174518Y466970D02*
X179622Y466970D01*
X179622Y467156D02*
X174518Y467156D01*
X174518Y467342D02*
X179622Y467342D01*
X179622Y467528D02*
X174518Y467528D01*
X174518Y467714D02*
X179622Y467714D01*
X179622Y467900D02*
X174518Y467900D01*
X174518Y468086D02*
X179622Y468086D01*
X179622Y468272D02*
X174518Y468272D01*
X174518Y463972D02*
X179622Y463972D01*
X179622Y461368D01*
X174518Y461368D01*
X174518Y463972D01*
X174518Y461554D02*
X179622Y461554D01*
X179622Y461740D02*
X174518Y461740D01*
X174518Y461926D02*
X179622Y461926D01*
X179622Y462112D02*
X174518Y462112D01*
X174518Y462298D02*
X179622Y462298D01*
X179622Y462484D02*
X174518Y462484D01*
X174518Y462670D02*
X179622Y462670D01*
X179622Y462856D02*
X174518Y462856D01*
X174518Y463042D02*
X179622Y463042D01*
X179622Y463228D02*
X174518Y463228D01*
X174518Y463414D02*
X179622Y463414D01*
X179622Y463600D02*
X174518Y463600D01*
X174518Y463786D02*
X179622Y463786D01*
X179622Y463972D02*
X174518Y463972D01*
X174518Y459672D02*
X179622Y459672D01*
X179622Y457068D01*
X174518Y457068D01*
X174518Y459672D01*
X174518Y457254D02*
X179622Y457254D01*
X179622Y457440D02*
X174518Y457440D01*
X174518Y457626D02*
X179622Y457626D01*
X179622Y457812D02*
X174518Y457812D01*
X174518Y457998D02*
X179622Y457998D01*
X179622Y458184D02*
X174518Y458184D01*
X174518Y458370D02*
X179622Y458370D01*
X179622Y458556D02*
X174518Y458556D01*
X174518Y458742D02*
X179622Y458742D01*
X179622Y458928D02*
X174518Y458928D01*
X174518Y459114D02*
X179622Y459114D01*
X179622Y459300D02*
X174518Y459300D01*
X174518Y459486D02*
X179622Y459486D01*
X179622Y459672D02*
X174518Y459672D01*
X175418Y455172D02*
X175418Y450068D01*
X175418Y455172D02*
X178022Y455172D01*
X178022Y450068D01*
X175418Y450068D01*
X175418Y450254D02*
X178022Y450254D01*
X178022Y450440D02*
X175418Y450440D01*
X175418Y450626D02*
X178022Y450626D01*
X178022Y450812D02*
X175418Y450812D01*
X175418Y450998D02*
X178022Y450998D01*
X178022Y451184D02*
X175418Y451184D01*
X175418Y451370D02*
X178022Y451370D01*
X178022Y451556D02*
X175418Y451556D01*
X175418Y451742D02*
X178022Y451742D01*
X178022Y451928D02*
X175418Y451928D01*
X175418Y452114D02*
X178022Y452114D01*
X178022Y452300D02*
X175418Y452300D01*
X175418Y452486D02*
X178022Y452486D01*
X178022Y452672D02*
X175418Y452672D01*
X175418Y452858D02*
X178022Y452858D01*
X178022Y453044D02*
X175418Y453044D01*
X175418Y453230D02*
X178022Y453230D01*
X178022Y453416D02*
X175418Y453416D01*
X175418Y453602D02*
X178022Y453602D01*
X178022Y453788D02*
X175418Y453788D01*
X175418Y453974D02*
X178022Y453974D01*
X178022Y454160D02*
X175418Y454160D01*
X175418Y454346D02*
X178022Y454346D01*
X178022Y454532D02*
X175418Y454532D01*
X175418Y454718D02*
X178022Y454718D01*
X178022Y454904D02*
X175418Y454904D01*
X175418Y455090D02*
X178022Y455090D01*
X179718Y455172D02*
X179718Y450068D01*
X179718Y455172D02*
X182322Y455172D01*
X182322Y450068D01*
X179718Y450068D01*
X179718Y450254D02*
X182322Y450254D01*
X182322Y450440D02*
X179718Y450440D01*
X179718Y450626D02*
X182322Y450626D01*
X182322Y450812D02*
X179718Y450812D01*
X179718Y450998D02*
X182322Y450998D01*
X182322Y451184D02*
X179718Y451184D01*
X179718Y451370D02*
X182322Y451370D01*
X182322Y451556D02*
X179718Y451556D01*
X179718Y451742D02*
X182322Y451742D01*
X182322Y451928D02*
X179718Y451928D01*
X179718Y452114D02*
X182322Y452114D01*
X182322Y452300D02*
X179718Y452300D01*
X179718Y452486D02*
X182322Y452486D01*
X182322Y452672D02*
X179718Y452672D01*
X179718Y452858D02*
X182322Y452858D01*
X182322Y453044D02*
X179718Y453044D01*
X179718Y453230D02*
X182322Y453230D01*
X182322Y453416D02*
X179718Y453416D01*
X179718Y453602D02*
X182322Y453602D01*
X182322Y453788D02*
X179718Y453788D01*
X179718Y453974D02*
X182322Y453974D01*
X182322Y454160D02*
X179718Y454160D01*
X179718Y454346D02*
X182322Y454346D01*
X182322Y454532D02*
X179718Y454532D01*
X179718Y454718D02*
X182322Y454718D01*
X182322Y454904D02*
X179718Y454904D01*
X179718Y455090D02*
X182322Y455090D01*
X184018Y455172D02*
X184018Y450068D01*
X184018Y455172D02*
X186622Y455172D01*
X186622Y450068D01*
X184018Y450068D01*
X184018Y450254D02*
X186622Y450254D01*
X186622Y450440D02*
X184018Y450440D01*
X184018Y450626D02*
X186622Y450626D01*
X186622Y450812D02*
X184018Y450812D01*
X184018Y450998D02*
X186622Y450998D01*
X186622Y451184D02*
X184018Y451184D01*
X184018Y451370D02*
X186622Y451370D01*
X186622Y451556D02*
X184018Y451556D01*
X184018Y451742D02*
X186622Y451742D01*
X186622Y451928D02*
X184018Y451928D01*
X184018Y452114D02*
X186622Y452114D01*
X186622Y452300D02*
X184018Y452300D01*
X184018Y452486D02*
X186622Y452486D01*
X186622Y452672D02*
X184018Y452672D01*
X184018Y452858D02*
X186622Y452858D01*
X186622Y453044D02*
X184018Y453044D01*
X184018Y453230D02*
X186622Y453230D01*
X186622Y453416D02*
X184018Y453416D01*
X184018Y453602D02*
X186622Y453602D01*
X186622Y453788D02*
X184018Y453788D01*
X184018Y453974D02*
X186622Y453974D01*
X186622Y454160D02*
X184018Y454160D01*
X184018Y454346D02*
X186622Y454346D01*
X186622Y454532D02*
X184018Y454532D01*
X184018Y454718D02*
X186622Y454718D01*
X186622Y454904D02*
X184018Y454904D01*
X184018Y455090D02*
X186622Y455090D01*
X188318Y455172D02*
X188318Y450068D01*
X188318Y455172D02*
X190922Y455172D01*
X190922Y450068D01*
X188318Y450068D01*
X188318Y450254D02*
X190922Y450254D01*
X190922Y450440D02*
X188318Y450440D01*
X188318Y450626D02*
X190922Y450626D01*
X190922Y450812D02*
X188318Y450812D01*
X188318Y450998D02*
X190922Y450998D01*
X190922Y451184D02*
X188318Y451184D01*
X188318Y451370D02*
X190922Y451370D01*
X190922Y451556D02*
X188318Y451556D01*
X188318Y451742D02*
X190922Y451742D01*
X190922Y451928D02*
X188318Y451928D01*
X188318Y452114D02*
X190922Y452114D01*
X190922Y452300D02*
X188318Y452300D01*
X188318Y452486D02*
X190922Y452486D01*
X190922Y452672D02*
X188318Y452672D01*
X188318Y452858D02*
X190922Y452858D01*
X190922Y453044D02*
X188318Y453044D01*
X188318Y453230D02*
X190922Y453230D01*
X190922Y453416D02*
X188318Y453416D01*
X188318Y453602D02*
X190922Y453602D01*
X190922Y453788D02*
X188318Y453788D01*
X188318Y453974D02*
X190922Y453974D01*
X190922Y454160D02*
X188318Y454160D01*
X188318Y454346D02*
X190922Y454346D01*
X190922Y454532D02*
X188318Y454532D01*
X188318Y454718D02*
X190922Y454718D01*
X190922Y454904D02*
X188318Y454904D01*
X188318Y455090D02*
X190922Y455090D01*
X192618Y455172D02*
X192618Y450068D01*
X192618Y455172D02*
X195222Y455172D01*
X195222Y450068D01*
X192618Y450068D01*
X192618Y450254D02*
X195222Y450254D01*
X195222Y450440D02*
X192618Y450440D01*
X192618Y450626D02*
X195222Y450626D01*
X195222Y450812D02*
X192618Y450812D01*
X192618Y450998D02*
X195222Y450998D01*
X195222Y451184D02*
X192618Y451184D01*
X192618Y451370D02*
X195222Y451370D01*
X195222Y451556D02*
X192618Y451556D01*
X192618Y451742D02*
X195222Y451742D01*
X195222Y451928D02*
X192618Y451928D01*
X192618Y452114D02*
X195222Y452114D01*
X195222Y452300D02*
X192618Y452300D01*
X192618Y452486D02*
X195222Y452486D01*
X195222Y452672D02*
X192618Y452672D01*
X192618Y452858D02*
X195222Y452858D01*
X195222Y453044D02*
X192618Y453044D01*
X192618Y453230D02*
X195222Y453230D01*
X195222Y453416D02*
X192618Y453416D01*
X192618Y453602D02*
X195222Y453602D01*
X195222Y453788D02*
X192618Y453788D01*
X192618Y453974D02*
X195222Y453974D01*
X195222Y454160D02*
X192618Y454160D01*
X192618Y454346D02*
X195222Y454346D01*
X195222Y454532D02*
X192618Y454532D01*
X192618Y454718D02*
X195222Y454718D01*
X195222Y454904D02*
X192618Y454904D01*
X192618Y455090D02*
X195222Y455090D01*
X196918Y455172D02*
X196918Y450068D01*
X196918Y455172D02*
X199522Y455172D01*
X199522Y450068D01*
X196918Y450068D01*
X196918Y450254D02*
X199522Y450254D01*
X199522Y450440D02*
X196918Y450440D01*
X196918Y450626D02*
X199522Y450626D01*
X199522Y450812D02*
X196918Y450812D01*
X196918Y450998D02*
X199522Y450998D01*
X199522Y451184D02*
X196918Y451184D01*
X196918Y451370D02*
X199522Y451370D01*
X199522Y451556D02*
X196918Y451556D01*
X196918Y451742D02*
X199522Y451742D01*
X199522Y451928D02*
X196918Y451928D01*
X196918Y452114D02*
X199522Y452114D01*
X199522Y452300D02*
X196918Y452300D01*
X196918Y452486D02*
X199522Y452486D01*
X199522Y452672D02*
X196918Y452672D01*
X196918Y452858D02*
X199522Y452858D01*
X199522Y453044D02*
X196918Y453044D01*
X196918Y453230D02*
X199522Y453230D01*
X199522Y453416D02*
X196918Y453416D01*
X196918Y453602D02*
X199522Y453602D01*
X199522Y453788D02*
X196918Y453788D01*
X196918Y453974D02*
X199522Y453974D01*
X199522Y454160D02*
X196918Y454160D01*
X196918Y454346D02*
X199522Y454346D01*
X199522Y454532D02*
X196918Y454532D01*
X196918Y454718D02*
X199522Y454718D01*
X199522Y454904D02*
X196918Y454904D01*
X196918Y455090D02*
X199522Y455090D01*
X201218Y455172D02*
X201218Y450068D01*
X201218Y455172D02*
X203822Y455172D01*
X203822Y450068D01*
X201218Y450068D01*
X201218Y450254D02*
X203822Y450254D01*
X203822Y450440D02*
X201218Y450440D01*
X201218Y450626D02*
X203822Y450626D01*
X203822Y450812D02*
X201218Y450812D01*
X201218Y450998D02*
X203822Y450998D01*
X203822Y451184D02*
X201218Y451184D01*
X201218Y451370D02*
X203822Y451370D01*
X203822Y451556D02*
X201218Y451556D01*
X201218Y451742D02*
X203822Y451742D01*
X203822Y451928D02*
X201218Y451928D01*
X201218Y452114D02*
X203822Y452114D01*
X203822Y452300D02*
X201218Y452300D01*
X201218Y452486D02*
X203822Y452486D01*
X203822Y452672D02*
X201218Y452672D01*
X201218Y452858D02*
X203822Y452858D01*
X203822Y453044D02*
X201218Y453044D01*
X201218Y453230D02*
X203822Y453230D01*
X203822Y453416D02*
X201218Y453416D01*
X201218Y453602D02*
X203822Y453602D01*
X203822Y453788D02*
X201218Y453788D01*
X201218Y453974D02*
X203822Y453974D01*
X203822Y454160D02*
X201218Y454160D01*
X201218Y454346D02*
X203822Y454346D01*
X203822Y454532D02*
X201218Y454532D01*
X201218Y454718D02*
X203822Y454718D01*
X203822Y454904D02*
X201218Y454904D01*
X201218Y455090D02*
X203822Y455090D01*
X205518Y455172D02*
X205518Y450068D01*
X205518Y455172D02*
X208122Y455172D01*
X208122Y450068D01*
X205518Y450068D01*
X205518Y450254D02*
X208122Y450254D01*
X208122Y450440D02*
X205518Y450440D01*
X205518Y450626D02*
X208122Y450626D01*
X208122Y450812D02*
X205518Y450812D01*
X205518Y450998D02*
X208122Y450998D01*
X208122Y451184D02*
X205518Y451184D01*
X205518Y451370D02*
X208122Y451370D01*
X208122Y451556D02*
X205518Y451556D01*
X205518Y451742D02*
X208122Y451742D01*
X208122Y451928D02*
X205518Y451928D01*
X205518Y452114D02*
X208122Y452114D01*
X208122Y452300D02*
X205518Y452300D01*
X205518Y452486D02*
X208122Y452486D01*
X208122Y452672D02*
X205518Y452672D01*
X205518Y452858D02*
X208122Y452858D01*
X208122Y453044D02*
X205518Y453044D01*
X205518Y453230D02*
X208122Y453230D01*
X208122Y453416D02*
X205518Y453416D01*
X205518Y453602D02*
X208122Y453602D01*
X208122Y453788D02*
X205518Y453788D01*
X205518Y453974D02*
X208122Y453974D01*
X208122Y454160D02*
X205518Y454160D01*
X205518Y454346D02*
X208122Y454346D01*
X208122Y454532D02*
X205518Y454532D01*
X205518Y454718D02*
X208122Y454718D01*
X208122Y454904D02*
X205518Y454904D01*
X205518Y455090D02*
X208122Y455090D01*
X209022Y457068D02*
X203918Y457068D01*
X203918Y459672D01*
X209022Y459672D01*
X209022Y457068D01*
X209022Y457254D02*
X203918Y457254D01*
X203918Y457440D02*
X209022Y457440D01*
X209022Y457626D02*
X203918Y457626D01*
X203918Y457812D02*
X209022Y457812D01*
X209022Y457998D02*
X203918Y457998D01*
X203918Y458184D02*
X209022Y458184D01*
X209022Y458370D02*
X203918Y458370D01*
X203918Y458556D02*
X209022Y458556D01*
X209022Y458742D02*
X203918Y458742D01*
X203918Y458928D02*
X209022Y458928D01*
X209022Y459114D02*
X203918Y459114D01*
X203918Y459300D02*
X209022Y459300D01*
X209022Y459486D02*
X203918Y459486D01*
X203918Y459672D02*
X209022Y459672D01*
X209022Y461368D02*
X203918Y461368D01*
X203918Y463972D01*
X209022Y463972D01*
X209022Y461368D01*
X209022Y461554D02*
X203918Y461554D01*
X203918Y461740D02*
X209022Y461740D01*
X209022Y461926D02*
X203918Y461926D01*
X203918Y462112D02*
X209022Y462112D01*
X209022Y462298D02*
X203918Y462298D01*
X203918Y462484D02*
X209022Y462484D01*
X209022Y462670D02*
X203918Y462670D01*
X203918Y462856D02*
X209022Y462856D01*
X209022Y463042D02*
X203918Y463042D01*
X203918Y463228D02*
X209022Y463228D01*
X209022Y463414D02*
X203918Y463414D01*
X203918Y463600D02*
X209022Y463600D01*
X209022Y463786D02*
X203918Y463786D01*
X203918Y463972D02*
X209022Y463972D01*
X209022Y465668D02*
X203918Y465668D01*
X203918Y468272D01*
X209022Y468272D01*
X209022Y465668D01*
X209022Y465854D02*
X203918Y465854D01*
X203918Y466040D02*
X209022Y466040D01*
X209022Y466226D02*
X203918Y466226D01*
X203918Y466412D02*
X209022Y466412D01*
X209022Y466598D02*
X203918Y466598D01*
X203918Y466784D02*
X209022Y466784D01*
X209022Y466970D02*
X203918Y466970D01*
X203918Y467156D02*
X209022Y467156D01*
X209022Y467342D02*
X203918Y467342D01*
X203918Y467528D02*
X209022Y467528D01*
X209022Y467714D02*
X203918Y467714D01*
X203918Y467900D02*
X209022Y467900D01*
X209022Y468086D02*
X203918Y468086D01*
X203918Y468272D02*
X209022Y468272D01*
X209022Y469968D02*
X203918Y469968D01*
X203918Y472572D01*
X209022Y472572D01*
X209022Y469968D01*
X209022Y470154D02*
X203918Y470154D01*
X203918Y470340D02*
X209022Y470340D01*
X209022Y470526D02*
X203918Y470526D01*
X203918Y470712D02*
X209022Y470712D01*
X209022Y470898D02*
X203918Y470898D01*
X203918Y471084D02*
X209022Y471084D01*
X209022Y471270D02*
X203918Y471270D01*
X203918Y471456D02*
X209022Y471456D01*
X209022Y471642D02*
X203918Y471642D01*
X203918Y471828D02*
X209022Y471828D01*
X209022Y472014D02*
X203918Y472014D01*
X203918Y472200D02*
X209022Y472200D01*
X209022Y472386D02*
X203918Y472386D01*
X203918Y472572D02*
X209022Y472572D01*
X208122Y474468D02*
X208122Y479572D01*
X208122Y474468D02*
X205518Y474468D01*
X205518Y479572D01*
X208122Y479572D01*
X208122Y474654D02*
X205518Y474654D01*
X205518Y474840D02*
X208122Y474840D01*
X208122Y475026D02*
X205518Y475026D01*
X205518Y475212D02*
X208122Y475212D01*
X208122Y475398D02*
X205518Y475398D01*
X205518Y475584D02*
X208122Y475584D01*
X208122Y475770D02*
X205518Y475770D01*
X205518Y475956D02*
X208122Y475956D01*
X208122Y476142D02*
X205518Y476142D01*
X205518Y476328D02*
X208122Y476328D01*
X208122Y476514D02*
X205518Y476514D01*
X205518Y476700D02*
X208122Y476700D01*
X208122Y476886D02*
X205518Y476886D01*
X205518Y477072D02*
X208122Y477072D01*
X208122Y477258D02*
X205518Y477258D01*
X205518Y477444D02*
X208122Y477444D01*
X208122Y477630D02*
X205518Y477630D01*
X205518Y477816D02*
X208122Y477816D01*
X208122Y478002D02*
X205518Y478002D01*
X205518Y478188D02*
X208122Y478188D01*
X208122Y478374D02*
X205518Y478374D01*
X205518Y478560D02*
X208122Y478560D01*
X208122Y478746D02*
X205518Y478746D01*
X205518Y478932D02*
X208122Y478932D01*
X208122Y479118D02*
X205518Y479118D01*
X205518Y479304D02*
X208122Y479304D01*
X208122Y479490D02*
X205518Y479490D01*
X203822Y479572D02*
X203822Y474468D01*
X201218Y474468D01*
X201218Y479572D01*
X203822Y479572D01*
X203822Y474654D02*
X201218Y474654D01*
X201218Y474840D02*
X203822Y474840D01*
X203822Y475026D02*
X201218Y475026D01*
X201218Y475212D02*
X203822Y475212D01*
X203822Y475398D02*
X201218Y475398D01*
X201218Y475584D02*
X203822Y475584D01*
X203822Y475770D02*
X201218Y475770D01*
X201218Y475956D02*
X203822Y475956D01*
X203822Y476142D02*
X201218Y476142D01*
X201218Y476328D02*
X203822Y476328D01*
X203822Y476514D02*
X201218Y476514D01*
X201218Y476700D02*
X203822Y476700D01*
X203822Y476886D02*
X201218Y476886D01*
X201218Y477072D02*
X203822Y477072D01*
X203822Y477258D02*
X201218Y477258D01*
X201218Y477444D02*
X203822Y477444D01*
X203822Y477630D02*
X201218Y477630D01*
X201218Y477816D02*
X203822Y477816D01*
X203822Y478002D02*
X201218Y478002D01*
X201218Y478188D02*
X203822Y478188D01*
X203822Y478374D02*
X201218Y478374D01*
X201218Y478560D02*
X203822Y478560D01*
X203822Y478746D02*
X201218Y478746D01*
X201218Y478932D02*
X203822Y478932D01*
X203822Y479118D02*
X201218Y479118D01*
X201218Y479304D02*
X203822Y479304D01*
X203822Y479490D02*
X201218Y479490D01*
X199522Y479572D02*
X199522Y474468D01*
X196918Y474468D01*
X196918Y479572D01*
X199522Y479572D01*
X199522Y474654D02*
X196918Y474654D01*
X196918Y474840D02*
X199522Y474840D01*
X199522Y475026D02*
X196918Y475026D01*
X196918Y475212D02*
X199522Y475212D01*
X199522Y475398D02*
X196918Y475398D01*
X196918Y475584D02*
X199522Y475584D01*
X199522Y475770D02*
X196918Y475770D01*
X196918Y475956D02*
X199522Y475956D01*
X199522Y476142D02*
X196918Y476142D01*
X196918Y476328D02*
X199522Y476328D01*
X199522Y476514D02*
X196918Y476514D01*
X196918Y476700D02*
X199522Y476700D01*
X199522Y476886D02*
X196918Y476886D01*
X196918Y477072D02*
X199522Y477072D01*
X199522Y477258D02*
X196918Y477258D01*
X196918Y477444D02*
X199522Y477444D01*
X199522Y477630D02*
X196918Y477630D01*
X196918Y477816D02*
X199522Y477816D01*
X199522Y478002D02*
X196918Y478002D01*
X196918Y478188D02*
X199522Y478188D01*
X199522Y478374D02*
X196918Y478374D01*
X196918Y478560D02*
X199522Y478560D01*
X199522Y478746D02*
X196918Y478746D01*
X196918Y478932D02*
X199522Y478932D01*
X199522Y479118D02*
X196918Y479118D01*
X196918Y479304D02*
X199522Y479304D01*
X199522Y479490D02*
X196918Y479490D01*
X195222Y479572D02*
X195222Y474468D01*
X192618Y474468D01*
X192618Y479572D01*
X195222Y479572D01*
X195222Y474654D02*
X192618Y474654D01*
X192618Y474840D02*
X195222Y474840D01*
X195222Y475026D02*
X192618Y475026D01*
X192618Y475212D02*
X195222Y475212D01*
X195222Y475398D02*
X192618Y475398D01*
X192618Y475584D02*
X195222Y475584D01*
X195222Y475770D02*
X192618Y475770D01*
X192618Y475956D02*
X195222Y475956D01*
X195222Y476142D02*
X192618Y476142D01*
X192618Y476328D02*
X195222Y476328D01*
X195222Y476514D02*
X192618Y476514D01*
X192618Y476700D02*
X195222Y476700D01*
X195222Y476886D02*
X192618Y476886D01*
X192618Y477072D02*
X195222Y477072D01*
X195222Y477258D02*
X192618Y477258D01*
X192618Y477444D02*
X195222Y477444D01*
X195222Y477630D02*
X192618Y477630D01*
X192618Y477816D02*
X195222Y477816D01*
X195222Y478002D02*
X192618Y478002D01*
X192618Y478188D02*
X195222Y478188D01*
X195222Y478374D02*
X192618Y478374D01*
X192618Y478560D02*
X195222Y478560D01*
X195222Y478746D02*
X192618Y478746D01*
X192618Y478932D02*
X195222Y478932D01*
X195222Y479118D02*
X192618Y479118D01*
X192618Y479304D02*
X195222Y479304D01*
X195222Y479490D02*
X192618Y479490D01*
X190922Y479572D02*
X190922Y474468D01*
X188318Y474468D01*
X188318Y479572D01*
X190922Y479572D01*
X190922Y474654D02*
X188318Y474654D01*
X188318Y474840D02*
X190922Y474840D01*
X190922Y475026D02*
X188318Y475026D01*
X188318Y475212D02*
X190922Y475212D01*
X190922Y475398D02*
X188318Y475398D01*
X188318Y475584D02*
X190922Y475584D01*
X190922Y475770D02*
X188318Y475770D01*
X188318Y475956D02*
X190922Y475956D01*
X190922Y476142D02*
X188318Y476142D01*
X188318Y476328D02*
X190922Y476328D01*
X190922Y476514D02*
X188318Y476514D01*
X188318Y476700D02*
X190922Y476700D01*
X190922Y476886D02*
X188318Y476886D01*
X188318Y477072D02*
X190922Y477072D01*
X190922Y477258D02*
X188318Y477258D01*
X188318Y477444D02*
X190922Y477444D01*
X190922Y477630D02*
X188318Y477630D01*
X188318Y477816D02*
X190922Y477816D01*
X190922Y478002D02*
X188318Y478002D01*
X188318Y478188D02*
X190922Y478188D01*
X190922Y478374D02*
X188318Y478374D01*
X188318Y478560D02*
X190922Y478560D01*
X190922Y478746D02*
X188318Y478746D01*
X188318Y478932D02*
X190922Y478932D01*
X190922Y479118D02*
X188318Y479118D01*
X188318Y479304D02*
X190922Y479304D01*
X190922Y479490D02*
X188318Y479490D01*
X186622Y479572D02*
X186622Y474468D01*
X184018Y474468D01*
X184018Y479572D01*
X186622Y479572D01*
X186622Y474654D02*
X184018Y474654D01*
X184018Y474840D02*
X186622Y474840D01*
X186622Y475026D02*
X184018Y475026D01*
X184018Y475212D02*
X186622Y475212D01*
X186622Y475398D02*
X184018Y475398D01*
X184018Y475584D02*
X186622Y475584D01*
X186622Y475770D02*
X184018Y475770D01*
X184018Y475956D02*
X186622Y475956D01*
X186622Y476142D02*
X184018Y476142D01*
X184018Y476328D02*
X186622Y476328D01*
X186622Y476514D02*
X184018Y476514D01*
X184018Y476700D02*
X186622Y476700D01*
X186622Y476886D02*
X184018Y476886D01*
X184018Y477072D02*
X186622Y477072D01*
X186622Y477258D02*
X184018Y477258D01*
X184018Y477444D02*
X186622Y477444D01*
X186622Y477630D02*
X184018Y477630D01*
X184018Y477816D02*
X186622Y477816D01*
X186622Y478002D02*
X184018Y478002D01*
X184018Y478188D02*
X186622Y478188D01*
X186622Y478374D02*
X184018Y478374D01*
X184018Y478560D02*
X186622Y478560D01*
X186622Y478746D02*
X184018Y478746D01*
X184018Y478932D02*
X186622Y478932D01*
X186622Y479118D02*
X184018Y479118D01*
X184018Y479304D02*
X186622Y479304D01*
X186622Y479490D02*
X184018Y479490D01*
X182322Y479572D02*
X182322Y474468D01*
X179718Y474468D01*
X179718Y479572D01*
X182322Y479572D01*
X182322Y474654D02*
X179718Y474654D01*
X179718Y474840D02*
X182322Y474840D01*
X182322Y475026D02*
X179718Y475026D01*
X179718Y475212D02*
X182322Y475212D01*
X182322Y475398D02*
X179718Y475398D01*
X179718Y475584D02*
X182322Y475584D01*
X182322Y475770D02*
X179718Y475770D01*
X179718Y475956D02*
X182322Y475956D01*
X182322Y476142D02*
X179718Y476142D01*
X179718Y476328D02*
X182322Y476328D01*
X182322Y476514D02*
X179718Y476514D01*
X179718Y476700D02*
X182322Y476700D01*
X182322Y476886D02*
X179718Y476886D01*
X179718Y477072D02*
X182322Y477072D01*
X182322Y477258D02*
X179718Y477258D01*
X179718Y477444D02*
X182322Y477444D01*
X182322Y477630D02*
X179718Y477630D01*
X179718Y477816D02*
X182322Y477816D01*
X182322Y478002D02*
X179718Y478002D01*
X179718Y478188D02*
X182322Y478188D01*
X182322Y478374D02*
X179718Y478374D01*
X179718Y478560D02*
X182322Y478560D01*
X182322Y478746D02*
X179718Y478746D01*
X179718Y478932D02*
X182322Y478932D01*
X182322Y479118D02*
X179718Y479118D01*
X179718Y479304D02*
X182322Y479304D01*
X182322Y479490D02*
X179718Y479490D01*
D12*
X588200Y430600D03*
X573200Y430600D03*
X558200Y430600D03*
X543200Y430600D03*
X528200Y430600D03*
X513200Y430600D03*
X498200Y430600D03*
X483200Y430600D03*
X468200Y430600D03*
X453200Y430600D03*
X453200Y280600D03*
X468200Y280600D03*
X483200Y280600D03*
X498200Y280600D03*
X513200Y280600D03*
X528200Y280600D03*
X543200Y280600D03*
X558200Y280600D03*
X573200Y280600D03*
X588200Y280600D03*
D13*
X80400Y469900D03*
X97400Y469900D03*
X80400Y431800D03*
X97400Y431800D03*
D14*
X450700Y37300D03*
X470700Y37300D03*
X490700Y37300D03*
X510700Y37300D03*
X530700Y37300D03*
X550700Y37300D03*
X570700Y37300D03*
X590700Y37300D03*
X590700Y191300D03*
X570700Y191300D03*
X550700Y191300D03*
X530700Y191300D03*
X510700Y191300D03*
X490700Y191300D03*
X470700Y191300D03*
X450700Y191300D03*
D15*
X254000Y275200D03*
X254000Y258200D03*
X203200Y258200D03*
X203200Y275200D03*
X246770Y435610D03*
X263770Y435610D03*
X245500Y482600D03*
X262500Y482600D03*
D13*
X98670Y388620D03*
X81670Y388620D03*
X142630Y388620D03*
X159630Y388620D03*
X195970Y388620D03*
X212970Y388620D03*
X254390Y388620D03*
X271390Y388620D03*
X312810Y388620D03*
X329810Y388620D03*
X647700Y397900D03*
X647700Y414900D03*
X643500Y469900D03*
X626500Y469900D03*
D15*
X575700Y237490D03*
X592700Y237490D03*
X152400Y59300D03*
X152400Y42300D03*
X190500Y59300D03*
X190500Y42300D03*
X228600Y59300D03*
X228600Y42300D03*
M02*
