M48
;GenerationSoftware,Autodesk,EAGLE,9.4.0*%
;CreationDate,2019-12-05T03:25:54Z*%
FMAT,2
ICI,OFF
METRIC,TZ,000.000
T5C0.350
T4C0.965
T3C1.016
T2C1.100
T1C3.000
%
G90
M71
T1
X52920Y35060
T2
X7620Y2540
X7620Y7620
X7620Y5080
X11430Y2540
X11430Y5080
X11430Y7620
T3
X63500Y17780
X3810Y10160
X3810Y12700
T4
X11430Y16510
X13970Y16510
X16510Y16510
X21590Y16510
X24130Y16510
X26670Y16510
X29210Y16510
X31750Y16510
X34290Y16510
X19050Y16510
X36830Y16510
X36830Y19050
X36830Y21590
X36830Y24130
X36830Y29210
X36830Y31750
X34290Y31750
X31750Y31750
X29210Y31750
X26670Y31750
X24130Y31750
X21590Y31750
X16510Y31750
X13970Y31750
X11430Y31750
X8890Y31750
X6350Y31750
X3810Y31750
X19050Y31750
X36830Y26670
X3810Y16510
X6350Y16510
X8890Y16510
T5
X2540Y41910
X5080Y41910
X6350Y48260
X21971Y46863
X24130Y45720
X58420Y38100
X57150Y31750
X40640Y39370
X54610Y39370
X11430Y43180
X64770Y43180
X20320Y22860
X15240Y12700
X60960Y39370
X57150Y25400
X35560Y39370
X14859Y45720
X22860Y36322
X14097Y47752
X21590Y34290
X13970Y27940
X13970Y24130
X11430Y27940
X11430Y24130
X36830Y3810
X62230Y3810
X36830Y5080
X45720Y40640
X53340Y11430
X49070Y13795
X17272Y38862
X33020Y11430
X39370Y13970
X49530Y15240
X41910Y30480
M30